<?xml version="1.0" encoding="UTF-8"?>
<svg id="Layer_2" data-name="Layer 2" xmlns="http://www.w3.org/2000/svg" viewBox="0 0 55.99 55.45">
  <defs>
    <style>
      .cls-1 {
        fill: #2b2f83;
      }

      .cls-2 {
        fill: #ee2329;
      }
    </style>
  </defs>
  <g id="Layer_1-2" data-name="Layer 1">
    <g>
      <path class="cls-1" d="M.02,48.43s.23.11,1.76-1.99c1.52-2.1,11.32-14.94,11.32-14.94,0,0,.78-1.32.95-1.69s.08-.58.08-.58h4.45s-.04,1.61.29,2.72,2.72,8.31,2.72,8.31l1.39-1.51-3.12-9.44h4.94l1.61,5.68,3.42-4.49s.25-.16.25-.62.04-.58.04-.58h4.4s-.49.33-3.05,3.46-3.99,4.94-3.99,4.94l.58,2.1,7.04-8.89s.49-.37.62-1.03l.12-.66h4.28s-.21,1.03.37,2.96c.58,1.93,4.65,14.82,5.02,15.76s1.23,2.02,1.23,2.02h-5.6s.37-.12-.45-2.8c-.82-2.68-1.89-5.93-1.89-5.93h-8.48l-1.11,1.81s.91,3,1.48,4.57,1.48,2.47,1.48,2.47h-5.47l-.7-2.8-1.89,2.92h-3.95l-.66-3.05-2.08,2.96h-3.77l4.69-5.68-1.03-3.09h-8.36l-6.46,8.68H.13v5.39h55.85V.09H.17S-.08,48.32.02,48.43Z"/>
      <path class="cls-1" d="M36.52,33.38s.16,1.53.7,3.34.7,1.98.7,1.98h-5.48l4.08-5.32Z"/>
      <path class="cls-1" d="M15.12,33.38s.16,1.53.7,3.34.7,1.98.7,1.98h-5.48l4.08-5.32Z"/>
      <polygon class="cls-1" points="22.49 43.18 24.09 41.34 25.06 44.08 23.48 46.16 22.49 43.18"/>
      <path class="cls-2" d="M55.85.04l-21.17,27.56h-3.51L52.6.13s3.24-.22,3.24-.09Z"/>
    </g>
  </g>
</svg>