<?xml version="1.0" encoding="UTF-8"?>
<svg id="Layer_2" data-name="Layer 2" xmlns="http://www.w3.org/2000/svg" viewBox="0 0 50.7 60.96">
  <defs>
    <style>
      .cls-1 {
        fill: #231f20;
      }

      .cls-2 {
        fill: #42ace2;
      }

      .cls-3 {
        fill: #2a2865;
      }
    </style>
  </defs>
  <g id="Layer_1-2" data-name="Layer 1">
    <g>
      <g>
        <path class="cls-2" d="M21.98,29.55c-.51,1.07-1.6,1.81-2.86,1.81-1.75,0-3.16-1.42-3.16-3.16s1.42-3.16,3.16-3.16c1.06,0,2.01.53,2.58,1.33l5.37,5.83s1.95,2.45,5.37,2.45c2.5,0,5.71-2.63,5.71-6.12,0-4.41-2.84-5.64-2.84-5.64l-2.38,2.36c1.2.45,2.05,1.61,2.05,2.96,0,1.75-1.42,3.16-3.16,3.16-.82,0-1.56-.31-2.13-.82l-8.41-8.62,4.27-4.35,3.05,2.97,2.26-2.32-5.4-5.29-11.98,12.07s-1.09,1.17-1.13,3.12c-.03,1.38.56,3.33,2.07,4.71,3.66,3.32,6.44,1.76,7.82.77s1.97-1.76,1.97-1.76l-2.23-2.28Z"/>
        <path class="cls-2" d="M17.7,18.28l-2.5,2.46-1.41-1.57s-1.37-1.65-1.17-4.19,1.17-3.18,1.61-3.74S25.51,0,25.51,0l11.15,11.15s1.69,1.33,1.69,4.03-.85,3.46-1.53,4.27l-7.81,7.61-2.38-2.33,8.09-7.77s.56-.6.56-1.45-.2-1.01-1.09-2.05-8.82-8.62-8.82-8.62l-8.82,8.98s-.97,1.57-.32,2.58,1.45,1.89,1.45,1.89Z"/>
      </g>
      <g>
        <path class="cls-1" d="M2.03,59.73H0v-3.67h1.94v.39H.45v1.22h1.38v.39H.45v1.28h1.58v.39Z"/>
        <path class="cls-1" d="M4.86,59.73h-.44v-1.49c0-.56-.21-.83-.63-.83-.22,0-.4.08-.54.24s-.21.36-.21.6v1.49h-.44v-2.62h.44v.44h.01c.21-.33.51-.5.9-.5.3,0,.53.09.69.28.16.19.24.45.24.8v1.6Z"/>
        <path class="cls-1" d="M5.41,59.63v-.45c.24.17.5.25.79.25.38,0,.58-.12.58-.37,0-.07-.02-.13-.05-.18-.03-.05-.08-.09-.13-.13-.06-.04-.12-.07-.2-.1-.08-.03-.16-.06-.24-.09-.12-.05-.23-.09-.32-.14-.09-.05-.17-.1-.23-.16-.06-.06-.11-.13-.14-.2-.03-.07-.05-.16-.05-.26,0-.12.03-.23.09-.33.06-.09.14-.17.23-.24.1-.06.21-.11.33-.14s.25-.05.39-.05c.24,0,.45.04.63.12v.42c-.2-.13-.43-.19-.69-.19-.08,0-.16,0-.22.03-.07.02-.12.04-.17.08s-.08.07-.11.12c-.03.05-.04.1-.04.15,0,.07.01.13.04.17s.06.09.11.12.11.07.18.1c.07.03.15.06.24.09.12.04.23.09.33.14.1.05.18.1.25.16.07.06.12.13.16.2s.05.17.05.27c0,.13-.03.24-.09.34-.06.1-.14.17-.24.24-.1.06-.21.11-.34.14s-.27.05-.41.05c-.28,0-.52-.05-.73-.16Z"/>
        <path class="cls-1" d="M10,59.73h-.44v-.41h-.01c-.18.32-.46.48-.84.48-.65,0-.98-.37-.98-1.12v-1.57h.43v1.5c0,.55.22.83.66.83.21,0,.39-.08.53-.23.14-.15.21-.35.21-.59v-1.51h.44v2.62Z"/>
        <path class="cls-1" d="M12.19,57.53c-.08-.06-.19-.08-.33-.08-.19,0-.34.08-.47.25s-.19.4-.19.69v1.34h-.44v-2.62h.44v.54h.01c.06-.18.16-.33.29-.43s.27-.16.43-.16c.11,0,.2.01.26.04v.44Z"/>
        <path class="cls-1" d="M12.78,56.44c-.08,0-.14-.03-.2-.08-.06-.05-.08-.12-.08-.19s.03-.14.08-.2c.06-.05.12-.08.2-.08s.15.03.2.08c.06.05.08.12.08.2s-.03.14-.08.19c-.06.05-.12.08-.2.08ZM13,59.73h-.44v-2.62h.44v2.62Z"/>
        <path class="cls-1" d="M16.04,59.73h-.44v-1.49c0-.56-.21-.83-.63-.83-.22,0-.4.08-.54.24s-.21.36-.21.6v1.49h-.44v-2.62h.44v.44h.01c.21-.33.51-.5.9-.5.3,0,.53.09.69.28.16.19.24.45.24.8v1.6Z"/>
        <path class="cls-1" d="M19.09,59.52c0,.96-.48,1.44-1.44,1.44-.34,0-.63-.06-.89-.18v-.42c.31.16.6.25.88.25.67,0,1.01-.34,1.01-1.03v-.29h-.01c-.21.33-.52.5-.94.5-.34,0-.61-.12-.82-.35-.21-.23-.31-.55-.31-.94,0-.45.11-.8.33-1.06.22-.26.53-.39.92-.39s.64.14.82.42h.01v-.36h.44v2.41ZM18.65,58.54v-.39c0-.21-.07-.39-.22-.54-.15-.15-.33-.22-.55-.22-.27,0-.48.09-.63.28-.15.19-.23.45-.23.79,0,.29.07.53.22.7s.34.26.58.26.44-.08.6-.25c.15-.17.23-.38.23-.64Z"/>
        <path class="cls-1" d="M24.18,59.73h-.45v-1.67h-1.98v1.67h-.45v-3.67h.45v1.61h1.98v-1.61h.45v3.67Z"/>
        <path class="cls-1" d="M27.22,58.52h-1.93c0,.29.09.52.25.68s.37.24.65.24c.31,0,.59-.1.85-.29v.39c-.24.17-.56.25-.95.25s-.69-.12-.91-.36-.33-.57-.33-1c0-.41.12-.74.36-1,.24-.26.54-.39.9-.39s.63.11.83.33c.2.22.29.53.29.92v.22ZM26.77,58.17c0-.24-.06-.43-.18-.57-.12-.13-.29-.2-.5-.2s-.38.07-.53.21-.23.33-.27.56h1.48Z"/>
        <path class="cls-1" d="M29.72,59.73h-.44v-.41h-.01c-.19.31-.47.47-.84.47-.27,0-.49-.07-.64-.21s-.23-.32-.23-.55c0-.49.3-.77.9-.85l.82-.11c0-.45-.19-.67-.56-.67-.33,0-.63.11-.89.32v-.43c.27-.16.58-.25.93-.25.64,0,.96.33.96.98v1.7ZM29.29,58.4l-.66.09c-.2.03-.36.08-.46.14s-.15.19-.15.37c0,.13.05.23.14.31.1.08.22.12.38.12.22,0,.4-.07.54-.22s.21-.33.21-.55v-.26Z"/>
        <path class="cls-1" d="M30.88,59.73h-.44v-3.88h.44v3.88Z"/>
        <path class="cls-1" d="M32.92,59.7c-.1.05-.24.08-.41.08-.48,0-.72-.26-.72-.77v-1.55h-.47v-.36h.47v-.64l.44-.14v.78h.69v.36h-.69v1.48c0,.18.03.3.09.38.06.08.17.11.31.11.11,0,.21-.03.29-.09v.36Z"/>
        <path class="cls-1" d="M35.66,59.73h-.44v-1.51c0-.55-.21-.82-.63-.82-.21,0-.39.08-.54.24s-.22.36-.22.61v1.48h-.44v-3.88h.44v1.69h.01c.21-.33.51-.5.9-.5.62,0,.92.36.92,1.07v1.62Z"/>
        <path class="cls-1" d="M39.11,56.22c-.09-.05-.18-.07-.29-.07-.31,0-.46.19-.46.56v.4h.64v.36h-.64v2.26h-.43v-2.26h-.47v-.36h.47v-.42c0-.27.08-.49.25-.65.17-.16.37-.24.62-.24.13,0,.24.02.32.05v.38Z"/>
        <path class="cls-1" d="M40.51,59.79c-.4,0-.73-.12-.97-.37-.24-.24-.36-.57-.36-.97,0-.44.13-.78.38-1.03s.59-.37,1.02-.37.73.12.95.36c.23.24.34.57.34,1s-.12.75-.37,1c-.25.25-.58.38-.99.38ZM40.54,57.4c-.28,0-.5.09-.67.28-.16.18-.25.44-.25.76s.08.56.25.73c.17.18.39.27.66.27s.5-.09.65-.26c.15-.18.23-.43.23-.75s-.08-.58-.23-.76c-.15-.18-.37-.27-.65-.27Z"/>
        <path class="cls-1" d="M43.88,57.53c-.08-.06-.19-.08-.33-.08-.19,0-.34.08-.47.25-.13.17-.19.4-.19.69v1.34h-.44v-2.62h.44v.54h.01c.06-.18.16-.33.29-.43.13-.1.27-.16.43-.16.11,0,.2.01.26.04v.44Z"/>
        <path class="cls-1" d="M48.65,59.73h-.5l-.41-1.03h-1.62l-.38,1.03h-.5l1.47-3.67h.46l1.47,3.67ZM47.6,58.31l-.6-1.56c-.02-.05-.04-.13-.06-.25h-.01c-.02.1-.04.19-.06.25l-.59,1.56h1.33Z"/>
        <path class="cls-1" d="M49.49,59.73h-.44v-3.88h.44v3.88Z"/>
        <path class="cls-1" d="M50.7,59.73h-.44v-3.88h.44v3.88Z"/>
      </g>
      <g>
        <path class="cls-3" d="M31.99,41.33c-3.56,0-6.45,2.83-6.45,6.32s2.89,6.32,6.45,6.32,6.45-2.83,6.45-6.32-2.89-6.32-6.45-6.32ZM32.05,51.64c-2.29,0-4.15-1.91-4.15-4.26s1.86-4.26,4.15-4.26,4.15,1.91,4.15,4.26-1.86,4.26-4.15,4.26Z"/>
        <path class="cls-3" d="M40.4,40.97l8.03,7.66v-7.25h2.23v12.4l-8.35-7.57v7.62h-2.02s0-12.98.1-12.86Z"/>
        <polygon class="cls-3" points="15.24 41.31 17.86 41.31 20.79 45.51 23.77 41.24 26.36 41.24 22.28 47.24 26.94 53.66 23.82 53.66 20.74 49.14 17.67 53.71 14.83 53.71 19.33 47.12 15.24 41.31"/>
        <path class="cls-3" d="M7.41,40.81L.04,53.68h2.76l1.51-2.55h6.25l1.25,2.52h2.91l-7.3-12.85ZM5.08,49.69l2.28-4.18,2.38,4.18h-4.66Z"/>
      </g>
    </g>
  </g>
</svg>