<?xml version="1.0" encoding="UTF-8"?>
<svg id="Layer_2" data-name="Layer 2" xmlns="http://www.w3.org/2000/svg" viewBox="0 0 104.12 17.12">
  <defs>
    <style>
      .cls-1 {
        fill: #2559a9;
        fill-rule: evenodd;
      }
    </style>
  </defs>
  <g id="Layer_1-2" data-name="Layer 1">
    <path class="cls-1" d="M30.52,17.03v-4.47h6.15v4.47h3.88V.17h-7.34c-1.43,0-2.87.34-3.96,1.18-1.6,1.18-2.61,3.04-2.61,5.4v10.29h3.88ZM36.68,8.68h-6.15v-2.02c0-1.43.76-2.61,2.61-2.61h3.63c-.08,0-.08,4.64-.08,4.64ZM42.58,17.03h3.88V4.05h4.55c.93,0,1.85.84,1.85,1.85,0,.67-.17,1.26-.93,1.77-.25.17-3.88,2.02-3.88,2.02l.08.17,4.13,7h4.55l-3.37-5.9c1.94-.93,3.37-2.87,3.37-5.23,0-3.2-2.61-5.73-5.73-5.73h-8.43v17.03h-.08ZM99.49.17l-3.12,5.48-3.12-5.48h-4.72l5.82,9.36v7.5h3.88v-7.5L104.12.17h-4.64ZM83.64,17.03c3.29,0,5.65-2.61,5.65-5.48,0-1.69-.67-3.04-1.85-4.05h0c.67-.76,1.18-1.85,1.18-2.95,0-2.36-1.94-4.3-4.38-4.3h-9.36v16.86l8.77-.08h0ZM84.73,10.03c.84.51.84,1.52.84,1.52,0,.93-.76,1.6-1.77,1.6h-5.06V4.05h5.14c.25,0,.42.08.59.25.17.08.25.34.25.51.08.34-.17.67-.34.84-.08.08-3.71,2.61-3.71,2.61l2.28,3.2,1.77-1.43h0ZM62.81,17.03v-4.47h6.15v4.47h3.88V.17h-7.59c-1.43,0-2.61.34-3.71,1.18-1.6,1.18-2.61,3.04-2.61,5.4v10.29h3.88ZM68.97,8.68h-6.15v-2.36c0-1.01.93-2.28,2.36-2.28h3.79v4.64ZM12.98.17v16.86h11.63v-3.88h-7.76V.17h-3.88ZM0,.17v16.86h10.96v-3.88H3.88v-2.61h6.07v-3.88H3.88v-2.61h7.08V.17H0Z"/>
  </g>
</svg>