<?xml version="1.0" encoding="UTF-8"?>
<svg id="Layer_2" data-name="Layer 2" xmlns="http://www.w3.org/2000/svg" xmlns:xlink="http://www.w3.org/1999/xlink" viewBox="0 0 63.86 46.4">
  <defs>
    <style>
      .cls-1 {
        fill: #242764;
      }

      .cls-2 {
        fill: url(#linear-gradient-2);
      }

      .cls-3 {
        fill: url(#linear-gradient-4);
      }

      .cls-4 {
        fill: url(#linear-gradient-3);
      }

      .cls-5 {
        fill: url(#linear-gradient-5);
      }

      .cls-6 {
        fill: url(#linear-gradient-8);
      }

      .cls-7 {
        fill: url(#linear-gradient-7);
      }

      .cls-8 {
        fill: url(#linear-gradient-6);
      }

      .cls-9 {
        fill: url(#linear-gradient);
      }

      .cls-10 {
        fill: #219747;
      }
    </style>
    <linearGradient id="linear-gradient" x1="18.73" y1="24.77" x2=".02" y2="24.77" gradientUnits="userSpaceOnUse">
      <stop offset="0" stop-color="#2976bc"/>
      <stop offset=".1" stop-color="#2973b7"/>
      <stop offset=".2" stop-color="#296aaa"/>
      <stop offset=".2" stop-color="#2a6aaa"/>
      <stop offset=".36" stop-color="#274e8c"/>
      <stop offset=".59" stop-color="#242764"/>
      <stop offset="1" stop-color="#232562"/>
    </linearGradient>
    <linearGradient id="linear-gradient-2" x1=".04" y1="5.9" x2="33.91" y2="5.9" gradientUnits="userSpaceOnUse">
      <stop offset="0" stop-color="#2f348f"/>
      <stop offset=".33" stop-color="#2d378f"/>
      <stop offset=".62" stop-color="#29418f"/>
      <stop offset=".89" stop-color="#21538f"/>
      <stop offset="1" stop-color="#1e5d90"/>
    </linearGradient>
    <linearGradient id="linear-gradient-3" x1="24.94" y1="21.77" x2="0" y2="21.77" gradientUnits="userSpaceOnUse">
      <stop offset="0" stop-color="#2976bc"/>
      <stop offset=".19" stop-color="#2973b7"/>
      <stop offset=".4" stop-color="#296aaa"/>
      <stop offset=".4" stop-color="#2a6aaa"/>
      <stop offset=".69" stop-color="#264685"/>
      <stop offset="1" stop-color="#232562"/>
    </linearGradient>
    <linearGradient id="linear-gradient-4" x1="21.19" y1="26.11" x2="21.19" y2="38.5" gradientUnits="userSpaceOnUse">
      <stop offset="0" stop-color="#2976bc"/>
      <stop offset=".1" stop-color="#2973b7"/>
      <stop offset=".2" stop-color="#296aaa"/>
      <stop offset=".21" stop-color="#2a6aaa"/>
      <stop offset=".59" stop-color="#264685"/>
      <stop offset="1" stop-color="#232562"/>
    </linearGradient>
    <linearGradient id="linear-gradient-5" x1="39.26" x2="39.26" xlink:href="#linear-gradient-4"/>
    <linearGradient id="linear-gradient-6" x1="30.36" y1="21.1" x2="30.36" y2="38.1" xlink:href="#linear-gradient-4"/>
    <linearGradient id="linear-gradient-7" x1="52.94" y1="32.08" x2="45.68" y2="32.08" xlink:href="#linear-gradient-4"/>
    <linearGradient id="linear-gradient-8" x1="58.43" y1="25.9" x2="58.43" y2="38.58" xlink:href="#linear-gradient-4"/>
  </defs>
  <g id="Layer_1-2" data-name="Layer 1">
    <g>
      <g>
        <g>
          <g>
            <g>
              <path class="cls-9" d="M3.06,41.37l6.71-24.7s-6.36.46-7.87-.79S-.25,14.11.12,11.21c.37-2.9,3.44-3.05,3.44-3.05l-.17.96s-.61.99,3.41,1.05c4.02.06,11.92,0,11.92,0l-2.01,7.11-1.81,6.5-2.59,9.85s-1.02,3.53-3.88,5.22-5.36,2.48-5.36,2.48"/>
              <path class="cls-2" d="M.04,11.8s.3-3.21,9.38-3.21h14.46s4.79.44,7.55-3.6,2.47-4.98,2.47-4.98c0,0-5.43,2.37-11.94,2.37h-13.13s-6.81-.3-7.75,4.05S.04,11.8.04,11.8Z"/>
            </g>
            <path class="cls-1" d="M3.15,23.62s.78,1.91,2.44,1.75,2.06-.12,2.06-.12l-1.91,6.62s-3.65.03-4.56-1.34-1.44-3.03-.87-4.93,2.84-1.97,2.84-1.97Z"/>
          </g>
          <path class="cls-4" d="M24.88,16.3s-7.88,1.51-12.42,1.32c-4.54-.19-7.88-.27-10.07,1.97S.23,24.08.07,24.94s.03,2.3.03,2.3c0,0-.34-2.78,2.05-3.35,1.49-.35,2.78-.16,4.51-.14s8.32,0,8.32,0c0,0,3.78.41,7.21-2.43,3.43-2.84,2.7-5.02,2.7-5.02Z"/>
        </g>
        <path class="cls-3" d="M16.2,26.11s2.98.99,2.98,3.52v4.81s-.06,1.46,1.8,1.46,2.28-1.1,2.28-1.58v-4.53s-.11-1.55,1.07-2.73c1.18-1.18,1.94-.82,1.94-.82v8.61s-.42,3.63-5.26,3.63-4.93-4.81-4.93-4.81l.11-7.57Z"/>
        <path class="cls-5" d="M34.28,26.11s2.98.99,2.98,3.52v4.81s-.06,1.46,1.8,1.46,2.28-1.1,2.28-1.58v-4.53s-.11-1.55,1.07-2.73,1.94-.82,1.94-.82v8.61s-.42,3.63-5.26,3.63-4.93-4.81-4.93-4.81l.11-7.57Z"/>
        <path class="cls-8" d="M27.69,21.1s2.62,1.55,2.62,3.32v1.77h2.39s.2,1.24-.7,1.77-1.58.51-1.58.51v6.62s-.11.65,1.29.65h1.41s-.53,2.36-3.12,2.36-2.39-1.24-2.39-2.53.08-14.47.08-14.47Z"/>
        <path class="cls-7" d="M45.7,38.16v-7.09s-.49-2.99,2.53-4.39c1.94-.9,4.67-.65,4.67-.65,0,0,.39,1.58-1.72,2.81s-2.65,1.77-2.65,2.73v6.57s-2.84-.07-2.84.02Z"/>
        <path class="cls-6" d="M58.77,25.9c-6.44,0-5.74,6.17-5.74,6.91s.07,5.77,6.09,5.77c4.95,0,4.51-2.7,4.51-2.7,0,0-1.98.64-4.16.64s-3.19-1.44-3.34-3.66h7.58s1.51-6.96-4.93-6.96ZM60.78,30.78h-4.66s-.35-2.48,2.33-2.48,2.33,2.48,2.33,2.48Z"/>
      </g>
      <g>
        <path class="cls-10" d="M27.76,42.11c-2.18,0-1.94,2.09-1.94,2.34s.03,1.95,2.06,1.95c1.68,0,1.52-.91,1.52-.91,0,0-.67.22-1.41.22s-1.08-.49-1.13-1.24h2.56s.51-2.35-1.67-2.35ZM28.44,43.76h-1.57s-.12-.84.79-.84.79.84.79.84Z"/>
        <path class="cls-10" d="M57.45,42.11c-2.18,0-1.94,2.09-1.94,2.34s.03,1.95,2.06,1.95c1.68,0,1.52-.91,1.52-.91,0,0-.67.22-1.41.22s-1.08-.49-1.13-1.24h2.56s.51-2.35-1.67-2.35ZM58.12,43.76h-1.57s-.12-.84.79-.84.79.84.79.84Z"/>
        <path class="cls-10" d="M21.52,40.9v1.9h2.28v-1.93s1.02.14,1.02,1.18.03,4.19.03,4.19h-1.07l-.03-2.4h-2.18v2.42h-1.09v-4.56s.09-.74,1.04-.79Z"/>
        <path class="cls-10" d="M32.32,41.82c-1.66,0-1.8,1.26-1.8,1.26,0,0,1.03-.03,1.03.01,0,0,.14-.37.69-.37s.56.19.56.47-.58.37-1.09.37c-.77,0-1.46.59-1.46,1.37s.59,1.32,1.6,1.32,2.11-.32,2.11-1.53v-1.63s.03-1.27-1.63-1.27ZM32.09,45.41c-.87,0-.77-.62-.47-.97s1.29-.3,1.29-.3c0,0,.06,1.27-.82,1.27Z"/>
        <path class="cls-10" d="M50.6,41.82c-1.66,0-1.8,1.26-1.8,1.26,0,0,1.03-.03,1.03.01,0,0,.14-.37.69-.37s.56.19.56.47-.58.37-1.09.37c-.77,0-1.46.59-1.46,1.37s.59,1.32,1.6,1.32,2.11-.32,2.11-1.53v-1.63s.03-1.27-1.63-1.27ZM50.37,45.41c-.87,0-.77-.62-.47-.97s1.29-.3,1.29-.3c0,0,.06,1.27-.82,1.27Z"/>
        <path class="cls-10" d="M34.74,40.83v5.43h.99v-4.58s-.24-.76-.99-.84Z"/>
        <path class="cls-10" d="M37.05,40.48v5.31s0,.46.83.46.99-.84.99-.84h-.86v-2.41s.31.07.47-.09.29-.71.29-.71c0,0-.43.21-.64.21h-.21v-1.13s-.16-.78-.89-.78Z"/>
        <path class="cls-10" d="M39.33,40.44v5.8h1.01v-3.08s.08-.35.92-.35,1.03.34,1.03.67v1.86s.07.36.46.6.54.28.54.28v-2.86s.04-1.4-1.58-1.4c-1.28,0-1.41.23-1.41.23v-.82s-.11-.97-.97-.92Z"/>
        <path class="cls-10" d="M47.87,43.14s-.22-1.29-1.85-1.29-1.97,1.36-1.97,2.24.3,2.2,1.78,2.2,2.06-1.47,2.06-1.47h-.62s-.34.4-1.24.4-.94-.72-.94-1.21.21-1.17.94-1.17.77.54,1.35.54.49-.23.49-.23Z"/>
        <path class="cls-10" d="M55.52,42.19s-.19.73-.74,1.08-.73.5-.73.5v2.44h-.99v-2.52s-.1-1.87,2.47-1.5Z"/>
      </g>
    </g>
  </g>
</svg>