<?xml version="1.0" encoding="UTF-8"?>
<svg id="Layer_2" data-name="Layer 2" xmlns="http://www.w3.org/2000/svg" xmlns:xlink="http://www.w3.org/1999/xlink" viewBox="0 0 72.63 65.49">
  <defs>
    <style>
      .cls-1 {
        fill: #2162af;
      }

      .cls-2 {
        fill: url(#linear-gradient-2);
      }

      .cls-3 {
        fill: url(#linear-gradient-3);
      }

      .cls-4 {
        font-family: Calibri, Calibri;
        font-size: 9.12px;
      }

      .cls-4, .cls-5 {
        fill: #004856;
      }

      .cls-6 {
        letter-spacing: 0em;
      }

      .cls-7 {
        fill: url(#linear-gradient);
      }

      .cls-8 {
        fill: #8bc751;
      }
    </style>
    <linearGradient id="linear-gradient" x1="18.2" y1="16.17" x2="44.64" y2="16.17" gradientUnits="userSpaceOnUse">
      <stop offset="0" stop-color="#2162af"/>
      <stop offset=".03" stop-color="#2870b8"/>
      <stop offset=".12" stop-color="#368ccb"/>
      <stop offset=".21" stop-color="#42a3da"/>
      <stop offset=".31" stop-color="#4bb5e6"/>
      <stop offset=".44" stop-color="#52c1ee"/>
      <stop offset=".61" stop-color="#55c8f3"/>
      <stop offset="1" stop-color="#57cbf5"/>
    </linearGradient>
    <linearGradient id="linear-gradient-2" x1="37.08" y1="9.53" x2="47.9" y2="9.53" xlink:href="#linear-gradient"/>
    <linearGradient id="linear-gradient-3" x1="28.72" y1="24.94" x2="50.73" y2="24.94" gradientUnits="userSpaceOnUse">
      <stop offset="0" stop-color="#2162af"/>
      <stop offset=".07" stop-color="#2972b9"/>
      <stop offset=".24" stop-color="#3992cf"/>
      <stop offset=".41" stop-color="#46abdf"/>
      <stop offset=".59" stop-color="#4fbceb"/>
      <stop offset=".78" stop-color="#55c7f2"/>
      <stop offset="1" stop-color="#57cbf5"/>
    </linearGradient>
  </defs>
  <g id="Layer_1-2" data-name="Layer 1">
    <g>
      <path class="cls-7" d="M44.33,3.64l-9.56,10.08h7.38l-1.73,1.68-6.01,5.85h7.07l-7.69,7.22h10.86s-1.92,3.87-10.86,3.87-15.59-6.67-15.59-16.44S26.75,0,34.16,0c5.8,0,10.17,3.64,10.17,3.64Z"/>
      <polygon class="cls-1" points="30.16 7.63 26.36 11.43 37.08 11.43 40.7 7.63 30.16 7.63"/>
      <polygon class="cls-2" points="47.9 7.63 40.7 7.63 37.08 11.43 44.24 11.43 47.9 7.63"/>
      <polygon class="cls-1" points="32.69 22.91 28.72 26.88 35.46 26.88 39.61 22.99 32.69 22.91"/>
      <polygon class="cls-3" points="50.73 23.13 39.61 22.99 35.46 26.88 46.98 26.88 50.73 23.13"/>
      <polygon class="cls-8" points="53.85 15.5 50.09 19.26 36.38 19.26 40.33 15.31 53.85 15.5"/>
      <path class="cls-5" d="M28.82,41.72h-2.91v-3.03h-1.76v12.22h3.33c.5,0,4.21,1.07,4.21-4.14s-2.87-5.05-2.87-5.05ZM28.34,49.15h-2.38v-5.67h1.95c1.64,0,2,.54,2,3.26s-1.57,2.4-1.57,2.4Z"/>
      <path class="cls-5" d="M65.09,46.77c0,5.21,3.71,4.14,4.21,4.14h3.33s0-12.22,0-12.22h-1.76s0,3.03,0,3.03h-2.91s-2.87-.15-2.87,5.05ZM66.86,46.75c0-2.72.36-3.26,2-3.26h1.95v5.67h-2.38s-1.57.31-1.57-2.4Z"/>
      <rect class="cls-5" x="10.21" y="38.69" width="1.78" height="12.31"/>
      <polygon class="cls-5" points="43.03 51 43.03 38.69 45.43 38.69 48.24 44.85 51.38 38.69 53.69 38.69 53.69 51 51.5 51 51.5 42.17 48.36 48.49 45.1 42.42 45.1 51 43.03 51"/>
      <path class="cls-5" d="M63.36,48.87h-1.7s0,.54-1.24.54-2.89-.11-2.89-2.31h5.83v-2.24s.33-3.17-3.93-3.17-3.72,3.18-3.72,5.41.83,3.91,4.5,3.91,3.14-2.13,3.14-2.13ZM57.65,45.01s-.01-1.64,1.9-1.64c2.38,0,2.09,1.79,2.09,1.79v.56h-4s0-.71,0-.71Z"/>
      <path class="cls-5" d="M40.9,48.87h-1.7s0,.54-1.24.54-2.89-.11-2.89-2.31h5.83v-2.24s.33-3.17-3.93-3.17-3.72,3.18-3.72,5.41.83,3.91,4.5,3.91,3.14-2.13,3.14-2.13ZM35.18,45.01s-.01-1.64,1.9-1.64c2.38,0,2.09,1.79,2.09,1.79v.56h-4s0-.71,0-.71Z"/>
      <path class="cls-5" d="M19.03,41.61h-1.52c-1.6,0-2.9,1.3-2.9,2.9v3.59c0,1.6,1.3,2.9,2.9,2.9h1.52c1.6,0,2.9-1.3,2.9-2.9v-3.59c0-1.6-1.3-2.9-2.9-2.9ZM20.2,47.18c0,1.09-.89,1.98-1.98,1.98h0c-1.09,0-1.98-.89-1.98-1.98v-1.83c0-1.09.89-1.98,1.98-1.98h0c1.09,0,1.98.89,1.98,1.98v1.83Z"/>
      <path class="cls-5" d="M7.4,40.93v-1.8s-.66-.18-3.08-.18S0,39.76,0,42.58v5.12s-.36,3.3,3.7,3.3,2.41,0,2.41,0c0,0,1.74.05,1.74-1.54v-4.62h-2.04v4.47h-2.22s-1.83-.45-1.83-2.6v-3.92s-.12-2.31,3.11-2.31h.66v.42s1.86.03,1.86.03Z"/>
      <text class="cls-4" transform="translate(25.97 62.64)"><tspan x="0" y="0">Egy</tspan><tspan class="cls-6" x="12.87" y="0">p</tspan><tspan x="17.62" y="0">t</tspan></text>
    </g>
  </g>
</svg>