<?xml version="1.0" encoding="UTF-8"?>
<svg id="Layer_2" data-name="Layer 2" xmlns="http://www.w3.org/2000/svg" viewBox="0 0 74.17 37.02">
  <defs>
    <style>
      .cls-1, .cls-2 {
        fill: #231f20;
      }

      .cls-3 {
        fill: #005b9e;
      }

      .cls-2 {
        stroke: #231f20;
        stroke-miterlimit: 10;
        stroke-width: .5px;
      }
    </style>
  </defs>
  <g id="Layer_1-2" data-name="Layer 1">
    <g>
      <path class="cls-3" d="M73.74,21.6c0-2.74-.61-5.12-3.93-5.12s-4.94,2.38-4.94,4.04.83,2.92,2.67,2.92,2.53-.83,2.53-2.02-1.7-2.24-1.7-2.24c0,0,.07-1.3,1.15-1.3,1.55,0,2.08.83,2.08,4.2,0,5.97-17.02,4.65-17.02,4.65-14.54,0-26.65-3.32-35.58-6.33C8.79,16.97,2.79,13.77,2.79,13.77v-1.21h.65s3.07,2.84,7.41,2.84,7.03-2.15,7.6-2.15.65.77.65.77h1.34v-3.3h-1.46s.29.52,0,.81c-.29.29-.96.23-.96.23,0,0-1.92-2.8-7.03-2.8s-7.64,2.84-7.64,2.84h-.65v-.73s1.69-4,8.18-4,8.1,2.7,8.1,2.7h1.46v-3.3s-1.31-.08-1.31-.08c0,0-.04.72-.87.72-2.63,0-1.91-2.02-7.76-2.02s-7.69,1.95-7.69,1.95H.06v2.96s1.12.29,1.12,2.56S.06,15,.06,15v2.99h2.81v-1.3s2.64,1.09,6.91,2.62c5.7,2.04,14.15,5.32,23.29,7.34,6.72,1.48,13.88,2.06,20.24,2.06,21.5,0,20.42-4.37,20.42-7.11ZM10.97,10.57c2.36,0,4.27.73,4.27,1.63s-1.91,1.63-4.27,1.63-4.27-.73-4.27-1.63,1.91-1.63,4.27-1.63Z"/>
      <g>
        <path class="cls-1" d="M27.42,11.91v-1.73h4.48v4.1c-.44.42-1.07.79-1.89,1.11-.83.32-1.66.48-2.51.48-1.08,0-2.01-.23-2.82-.68-.8-.45-1.4-1.1-1.8-1.94-.4-.84-.6-1.75-.6-2.74,0-1.07.22-2.02.67-2.86.45-.83,1.11-1.47,1.97-1.92.66-.34,1.48-.51,2.46-.51,1.28,0,2.28.27,2.99.8.72.54,1.18,1.28,1.39,2.22l-2.06.39c-.15-.51-.42-.9-.82-1.2-.4-.29-.9-.44-1.5-.44-.91,0-1.63.29-2.17.86-.54.58-.8,1.43-.8,2.56,0,1.22.27,2.14.81,2.75.54.61,1.25.92,2.13.92.44,0,.87-.09,1.31-.26.44-.17.81-.38,1.13-.62v-1.31h-2.38Z"/>
        <path class="cls-1" d="M36.52,15.69v-4.33l-3.77-5.96h2.44l2.42,4.07,2.37-4.07h2.39l-3.78,5.97v4.32h-2.07Z"/>
        <path class="cls-1" d="M43.38,15.69V5.4h3.11l1.87,7.02,1.85-7.02h3.12v10.29h-1.93V7.59l-2.04,8.1h-2l-2.04-8.1v8.1h-1.93Z"/>
        <path class="cls-1" d="M55.38,15.69V5.4h7.63v1.74h-5.55v2.28h5.17v1.73h-5.17v2.8h5.75v1.73h-7.83Z"/>
        <path class="cls-1" d="M64.96,5.4h3.8c.86,0,1.51.07,1.96.2.6.18,1.12.49,1.55.95.43.45.76,1.01.98,1.67.22.66.34,1.47.34,2.43,0,.85-.11,1.58-.32,2.19-.26.75-.62,1.35-1.1,1.82-.36.35-.85.62-1.46.82-.46.15-1.07.22-1.84.22h-3.91V5.4ZM67.04,7.14v6.82h1.55c.58,0,1-.03,1.26-.1.34-.08.62-.23.84-.43.22-.2.4-.53.54-.99.14-.46.21-1.09.21-1.88s-.07-1.41-.21-1.83c-.14-.43-.34-.76-.59-1s-.57-.4-.96-.48c-.29-.07-.86-.1-1.71-.1h-.93Z"/>
      </g>
      <path class="cls-1" d="M71.31,0c.29,0,.58.07.85.22.27.15.48.36.64.63.15.27.23.56.23.86s-.08.58-.23.85c-.15.27-.36.48-.63.63s-.55.23-.85.23-.58-.08-.85-.23c-.27-.15-.48-.36-.63-.63-.15-.27-.23-.55-.23-.85s.08-.59.23-.86.37-.48.64-.63c.27-.15.55-.22.85-.22ZM71.31.34c-.24,0-.46.06-.68.18s-.39.29-.51.51-.19.45-.19.69.06.47.18.68c.12.22.29.39.51.51.22.12.45.18.68.18s.47-.06.68-.18c.22-.12.39-.29.51-.51.12-.22.18-.45.18-.68s-.06-.47-.19-.69c-.12-.22-.29-.39-.51-.51-.22-.12-.44-.18-.68-.18ZM71.73,1.97l.36.12c-.06.19-.15.33-.28.43s-.29.15-.47.15c-.25,0-.46-.08-.62-.25-.16-.17-.24-.4-.24-.69,0-.19.04-.36.11-.51s.17-.26.31-.34c.13-.07.29-.11.45-.11.18,0,.34.04.46.13.12.09.22.22.29.41l-.36.09c-.04-.11-.1-.19-.16-.24-.07-.05-.14-.07-.24-.07-.14,0-.25.05-.33.15-.09.1-.13.26-.13.48s.04.38.13.48c.09.1.19.15.31.15.1,0,.19-.03.26-.09.07-.06.13-.16.17-.29Z"/>
      <g>
        <path class="cls-2" d="M4.53,35.54H1.81c-.43,0-.8-.14-1.1-.41-.3-.27-.46-.61-.46-.99v-.5c0-.39.16-.73.46-1,.3-.27.67-.41,1.1-.41s.8.14,1.1.41c.3.27.46.61.46,1v1.42h1.16v.49ZM1.81,35.05h1.02v-1.42c0-.51-.46-.92-1.02-.92s-1.02.42-1.02.92v.5c0,.5.47.92,1.02.92ZM.93,31.47v-.39c0-.06.03-.09.1-.09h.37c.07,0,.1.03.1.09v.39c0,.06-.03.09-.1.09h-.37c-.07,0-.1-.03-.1-.09ZM1.91,31.47v-.39c0-.06.04-.09.1-.09h.36c.07,0,.1.03.1.09v.39c0,.06-.04.09-.1.09h-.36c-.07,0-.1-.03-.1-.09Z"/>
        <path class="cls-2" d="M5.67,34.68v-2.24c0-.06.04-.09.1-.09h.34c.07,0,.1.03.1.09v2.33c0,.07.01.13.06.17.07.07.22.11.44.11h.35v.49h-.25c-.36,0-.64-.09-.81-.25,0,0-.01,0-.01-.01,0,0-.01.03-.02.03-.17.15-.4.23-.69.23h-1.11v-.49h1.12c.27,0,.38-.12.38-.37ZM5.39,36.26v.39c0,.06-.03.09-.1.09h-.37c-.07,0-.1-.03-.1-.09v-.39c0-.06.03-.09.1-.09h.37c.07,0,.1.03.1.09ZM6.38,36.26v.39c0,.06-.04.09-.1.09h-.36c-.07,0-.1-.03-.1-.09v-.39c0-.06.04-.09.1-.09h.36c.07,0,.1.03.1.09Z"/>
        <path class="cls-2" d="M8.95,34.69v-2.25c0-.06.03-.09.1-.09h.35c.07,0,.1.03.1.09v2.33c0,.08.02.13.07.17.07.07.22.1.44.1h.34v.49h-.25c-.37,0-.64-.09-.82-.26-.18.16-.39.26-.71.26h-1.62v-.49h1.62c.27,0,.39-.11.39-.36ZM9.51,36.22v.39c0,.06-.04.09-.1.09h-.36c-.07,0-.1-.03-.1-.09v-.39c0-.06.03-.09.1-.09h.36c.07,0,.1.03.1.09Z"/>
        <path class="cls-2" d="M15.95,35.05c-.27,0-.5-.12-.5-.37v-1.28c0-.88-.74-1.54-1.69-1.54-.53,0-1.62.31-2.36.93v-1.98c0-.06-.04-.09-.1-.09h-.35c-.07,0-.1.03-.1.09v4.24h-.72l-.45.49h4.05c.89,0,1.22-.12,1.44-.36.04.05.07.07.09.09.2.17.45.27.77.27h.26v-.49h-.35ZM14.91,34.4c0,.45-.21.65-.71.65h-2.79v-1.6c.27-.3,1.04-.56,1.42-.77.38-.21.7-.33.95-.33.38,0,.84.15,1,.43.1.17.15.39.15.62v1Z"/>
        <path class="cls-2" d="M17.19,34.69v-3.88c0-.06.03-.09.1-.09h.35c.07,0,.1.03.1.09v3.88c0,.52-.37.85-.94.85h-.68v-.49h.68c.27,0,.39-.12.39-.36Z"/>
        <path class="cls-2" d="M19.37,35.54h-.36c-.07,0-.1-.03-.1-.09v-4.64c0-.06.03-.09.1-.09h.36c.06,0,.09.03.09.09v4.64c0,.06-.03.09-.09.09Z"/>
        <path class="cls-2" d="M21.15,34.09c0,.52.48.96,1.06.96h4.21c.28,0,.41-.11.41-.36v-2.25c0-.06.04-.09.1-.09h.35c.07,0,.1.03.1.09v2.25c0,.52-.37.85-.94.85h-4.22c-.44,0-.82-.14-1.13-.42-.31-.28-.47-.63-.47-1.03v-2.23l.54.36v1.87ZM23.56,31.5v-.36c0-.06.04-.09.1-.09h.36c.07,0,.1.03.1.09v.36c0,.06-.04.09-.1.09h-.36c-.07,0-.1-.03-.1-.09ZM24.55,31.5v-.36c0-.06.03-.09.1-.09h.37c.07,0,.1.03.1.09v.36c0,.06-.03.09-.1.09h-.37c-.07,0-.1-.03-.1-.09Z"/>
        <path class="cls-2" d="M29.48,35.05h.36v.49h-.35c-.58,0-.94-.33-.94-.85v-3.88c0-.06.03-.09.1-.09h.35c.07,0,.1.03.1.09v3.88c0,.25.12.36.38.36Z"/>
        <path class="cls-2" d="M33.54,32.63c.3.27.46.61.46.99v.5c0,.39-.16.72-.46.99-.3.27-.68.41-1.11.41h-2.77v-.49h1.21v-1.42c0-.39.16-.72.46-.99.3-.27.67-.41,1.1-.41s.81.14,1.11.41ZM33.45,34.13v-.5c0-.5-.47-.92-1.02-.92s-1.01.42-1.01.92v1.42h1.01c.55,0,1.02-.42,1.02-.92Z"/>
        <path class="cls-2" d="M38.96,35.05h.34v.49h-.25c-.33,0-.58-.09-.78-.27-.04-.05-.07-.07-.07-.07-.21.23-.55.33-1.01.33h-1.59c-.07,0-.1-.03-.1-.09v-.31c0-.06.03-.09.1-.09h1.59c.5,0,.72-.13.72-.56v-1.07c0-.39-.37-.71-.8-.71-.31,0-.55.05-.7.15l-.14.09s-.04.01-.06.01h-.01s-.04-.01-.06-.03l-.2-.25s-.02-.03-.02-.05h0s.02-.06.04-.07l.13-.09c.25-.16.59-.24,1.02-.24.36,0,.69.12.95.35.26.23.39.51.39.85v1.26c0,.25.22.37.5.37Z"/>
        <path class="cls-2" d="M42.87,34.4v-.64c0-.29-.12-.53-.35-.74s-.5-.31-.82-.31c-.52,0-.92.17-1.19.5l-.1.13s-.04.04-.07.04c-.02,0-.04,0-.06-.02l-.28-.18s-.04-.04-.04-.07c0-.02.01-.04.03-.06l.1-.13c.38-.47.92-.7,1.63-.7.47,0,.87.15,1.21.45s.5.66.5,1.09v1.01c0,.07.01.13.06.17.07.07.22.11.44.11h.35v.49h-.26c-.42,0-.71-.11-.89-.33-.22.23-.54.33-.95.33h-3.13v-.49h3.13c.5,0,.72-.2.72-.65ZM41.32,31.47v-.39c0-.06.03-.09.1-.09h.37c.07,0,.1.03.1.09v.39c0,.06-.03.09-.1.09h-.37c-.07,0-.1-.03-.1-.09Z"/>
        <path class="cls-2" d="M44.91,34.68v-3.87c0-.06.03-.09.1-.09h.35c.07,0,.1.03.1.09v3.96c0,.08.02.13.07.17.07.07.22.11.44.11h.38v.49h-.29c-.38,0-.64-.09-.82-.26,0,.01-.02.03-.03.03-.16.15-.39.23-.68.23h-.9v-.49h.9c.27,0,.39-.12.39-.37Z"/>
        <path class="cls-2" d="M47.37,34.69v-3.88c0-.06.03-.09.1-.09h.35c.07,0,.1.03.1.09v3.88c0,.52-.37.85-.94.85h-.86v-.49h.87c.27,0,.39-.12.39-.36Z"/>
        <path class="cls-2" d="M53.88,35.54h-2.72c-.43,0-.8-.14-1.1-.41-.3-.27-.46-.61-.46-.99v-.5c0-.39.16-.73.46-1,.3-.27.67-.41,1.1-.41s.8.14,1.1.41c.3.27.46.61.46,1v1.42h1.16v.49ZM51.15,35.05h1.02v-1.42c0-.51-.46-.92-1.02-.92s-1.02.42-1.02.92v.5c0,.5.47.92,1.02.92ZM50.27,31.47v-.39c0-.06.03-.09.1-.09h.37c.07,0,.1.03.1.09v.39c0,.06-.03.09-.1.09h-.37c-.07,0-.1-.03-.1-.09ZM51.26,31.47v-.39c0-.06.04-.09.1-.09h.36c.07,0,.1.03.1.09v.39c0,.06-.04.09-.1.09h-.36c-.07,0-.1-.03-.1-.09Z"/>
        <path class="cls-2" d="M55.11,35.54h-1.42v-.49h1.43c.27,0,.39-.11.39-.36v-2.25c0-.06.03-.09.1-.09h.35c.07,0,.1.03.1.09v2.25c0,.51-.37.85-.94.85ZM54.92,36.26v.39c0,.06-.04.09-.1.09h-.36c-.07,0-.1-.03-.1-.09v-.39c0-.06.03-.09.1-.09h.36c.07,0,.1.03.1.09ZM55.9,36.26v.39c0,.06-.03.09-.1.09h-.37c-.07,0-.1-.03-.1-.09v-.39c0-.06.03-.09.1-.09h.37c.07,0,.1.03.1.09Z"/>
        <path class="cls-2" d="M59.2,34.69v-2.25c0-.06.03-.09.1-.09h.35c.07,0,.1.03.1.09v2.25c0,.25.12.35.39.36h1.43s0,.49,0,.49h-1.42c-.57,0-.94-.33-.94-.85Z"/>
        <path class="cls-2" d="M57.32,35.79v-3.34c0-.06.04-.09.1-.09h.34c.07,0,.1.03.1.09v2.6h1.12v.49h-1.12v.66s-.11.57-.54.57v-.98Z"/>
        <path class="cls-2" d="M61.24,33.15c.73-.61,1.36-.93,1.9-.93.96,0,1.52.65,1.52,1.54v.92c0,.25.22.37.5.37h.35v.49h-.25c-.38,0-.67-.13-.87-.36-.22.24-.55.36-.98.36h-3.87v-.49h1.16s-.24-1,.55-1.9ZM64.11,34.4v-.64c0-.23-.05-.45-.15-.62-.16-.29-.44-.43-.82-.43-.26,0-1.29.33-1.72.95-.38.55-.18,1.39-.18,1.39h2.16c.49,0,.71-.2.71-.65Z"/>
        <path class="cls-2" d="M70.03,35.05h.55v.49h-.45c-.38,0-.7-.14-.89-.39-.3.26-.67.39-1.07.39h-2.85v-.49h1.29v-1.42c0-.39.16-.73.46-1,.3-.27.67-.41,1.1-.41s.8.14,1.1.41c.3.27.46.61.46,1v.5c0,.23-.06.45-.18.65.05.18.23.27.47.27ZM67.15,33.63v1.42h1.02c.56,0,1.02-.41,1.02-.92v-.5c0-.51-.46-.92-1.02-.92s-1.02.42-1.02.92Z"/>
        <path class="cls-2" d="M71.65,34.69v-3.88c0-.06.03-.09.1-.09h.35c.07,0,.1.03.1.09v3.88c0,.52-.37.85-.94.85h-.86v-.49h.87c.27,0,.39-.12.39-.36Z"/>
        <path class="cls-2" d="M73.83,35.54h-.36c-.07,0-.1-.03-.1-.09v-4.64c0-.06.03-.09.1-.09h.36c.06,0,.09.03.09.09v4.64c0,.06-.03.09-.09.09Z"/>
        <rect class="cls-2" x="58.86" y="35.06" width="12.6" height=".49"/>
      </g>
    </g>
  </g>
</svg>