<?xml version="1.0" encoding="UTF-8"?>
<svg id="Layer_2" data-name="Layer 2" xmlns="http://www.w3.org/2000/svg" xmlns:xlink="http://www.w3.org/1999/xlink" viewBox="0 0 101.76 26.65">
  <defs>
    <style>
      .cls-1 {
        fill: url(#linear-gradient-2);
      }

      .cls-2 {
        fill: none;
      }

      .cls-3 {
        fill: url(#radial-gradient);
      }

      .cls-4 {
        fill: #292a66;
      }

      .cls-5 {
        fill: url(#linear-gradient-3);
      }

      .cls-6 {
        fill: url(#linear-gradient);
      }

      .cls-7 {
        clip-path: url(#clippath);
      }
    </style>
    <clipPath id="clippath">
      <path class="cls-2" d="M14.86,2.07S12.69-1.08,6.76.64C.83,2.37-1.04,8.22.53,12.12s10.73,12.38,10.73,12.38c0,0,1.58,1.73,3.53,1.73s3.3-1.2,4.35-2.25,8.55-8.85,8.55-8.85c0,0,5.04-5.66-.23-11.85-5.55-6.53-12.6-1.2-12.6-1.2Z"/>
    </clipPath>
    <linearGradient id="linear-gradient" x1="1.25" y1="16.21" x2="30.13" y2="16.21" gradientUnits="userSpaceOnUse">
      <stop offset="0" stop-color="#282b67"/>
      <stop offset=".21" stop-color="#29326a"/>
      <stop offset=".71" stop-color="#6dc3ca"/>
    </linearGradient>
    <radialGradient id="radial-gradient" cx="8.57" cy="4.75" fx="8.57" fy="11.88" r="10.03" gradientUnits="userSpaceOnUse">
      <stop offset="0" stop-color="#5da2b5"/>
      <stop offset=".42" stop-color="#3c5e83"/>
      <stop offset=".63" stop-color="#282b64"/>
    </radialGradient>
    <linearGradient id="linear-gradient-2" x1="-2.66" y1="8.02" x2="32.2" y2="8.02" gradientUnits="userSpaceOnUse">
      <stop offset="0" stop-color="#282b67"/>
      <stop offset=".48" stop-color="#6dc3ca"/>
      <stop offset="1" stop-color="#c0dde4"/>
    </linearGradient>
    <linearGradient id="linear-gradient-3" x1="9.14" y1="20.34" x2="26.7" y2="23.35" gradientUnits="userSpaceOnUse">
      <stop offset=".17" stop-color="#272661"/>
      <stop offset=".27" stop-color="#304474"/>
      <stop offset=".38" stop-color="#396086"/>
      <stop offset=".49" stop-color="#407694"/>
      <stop offset=".62" stop-color="#46869e"/>
      <stop offset=".77" stop-color="#4990a4"/>
      <stop offset=".97" stop-color="#4a93a6"/>
    </linearGradient>
  </defs>
  <g id="Layer_1-2" data-name="Layer 1">
    <g>
      <g>
        <path class="cls-4" d="M38.89.53h1.57v9.78h5.93v1.31h-7.5V.53Z"/>
        <path class="cls-4" d="M50.54,3.39h1.55v1.21c.84-.98,1.84-1.47,3-1.47s2,.45,2.57,1.34c.81-.9,1.78-1.34,2.9-1.34.91,0,1.65.24,2.22.72.58.48.86,1.16.86,2.05v5.67h-1.65v-5.34c0-1.26-.58-1.89-1.74-1.89-.61,0-1.16.2-1.63.6-.47.39-.71.93-.71,1.61v5.03h-1.65v-5.71c0-1.02-.51-1.53-1.53-1.53-.74,0-1.35.23-1.83.7-.48.47-.72,1.15-.72,2.04v4.49h-1.65V3.39Z"/>
        <path class="cls-4" d="M67.34,4.47v-1.2h1.54v-1.9h1.44v1.9h2.8v1.2h-2.8v5.2c0,.46.29.69.87.69h1.82v1.15c-.54.07-2.26.11-2.52.11-1.07,0-1.61-.62-1.61-1.85v-5.3h-1.54Z"/>
        <path class="cls-4" d="M74.39,11.79V0h1.44v11.79h-1.44Z"/>
        <path class="cls-4" d="M78.65,7.94c0,.88.2,1.57.61,2.07.41.49,1.02.73,1.84.73.58,0,1.09-.17,1.52-.49.44-.33.69-.71.77-1.16h1.41c-.19.89-.59,1.6-1.21,2.12-.62.52-1.44.78-2.45.78-1.2,0-2.17-.37-2.89-1.12-.72-.75-1.08-1.83-1.08-3.24s.35-2.48,1.05-3.34c.71-.87,1.7-1.3,2.97-1.3,1.2,0,2.11.41,2.73,1.22.63.81.96,2.05.99,3.72h-6.26ZM78.65,6.82h4.77c-.1-.94-.35-1.6-.73-1.99-.39-.38-.92-.58-1.58-.58-.7,0-1.28.24-1.72.71-.45.47-.69,1.09-.73,1.85Z"/>
        <path class="cls-4" d="M87.36,9.18c.05,1.12.84,1.67,2.38,1.67.67,0,1.2-.12,1.58-.36.39-.25.59-.58.59-1.02,0-.31-.13-.56-.39-.74-.26-.17-.74-.33-1.45-.5l-1.81-.42c-1.43-.32-2.14-1.03-2.14-2.12,0-.78.3-1.43.91-1.94.61-.51,1.49-.77,2.63-.77.99,0,1.8.22,2.43.66.63.44.98,1.12,1.05,2.03h-1.52c-.07-.95-.77-1.42-2.09-1.42-1.25,0-1.88.41-1.88,1.23,0,.36.15.61.44.75.29.14.7.27,1.23.38l1.53.36c.94.22,1.6.5,1.99.84.4.35.59.83.59,1.44,0,.84-.32,1.53-.97,2.06-.64.53-1.58.79-2.8.79-1.13,0-1.75-.22-2.43-.66-.68-.44-1.05-1.2-1.11-2.28h1.23Z"/>
        <path class="cls-4" d="M95.68,9.18c.05,1.12.84,1.67,2.38,1.67.67,0,1.2-.12,1.58-.36.39-.25.59-.58.59-1.02,0-.31-.13-.56-.39-.74-.26-.17-.74-.33-1.45-.5l-1.81-.42c-1.43-.32-2.14-1.03-2.14-2.12,0-.78.3-1.43.91-1.94.61-.51,1.49-.77,2.63-.77.99,0,1.8.22,2.43.66.63.44.98,1.12,1.05,2.03h-1.52c-.07-.95-.77-1.42-2.09-1.42-1.25,0-1.88.41-1.88,1.23,0,.36.15.61.44.75.29.14.7.27,1.23.38l1.53.36c.94.22,1.6.5,1.99.84.4.35.59.83.59,1.44,0,.84-.32,1.53-.97,2.06-.64.53-1.58.79-2.8.79-1.13,0-1.75-.22-2.43-.66-.68-.44-1.05-1.2-1.11-2.28h1.23Z"/>
        <path class="cls-4" d="M48,22.43h1.58c-.28,1.41-.87,2.46-1.78,3.16-.91.7-2.08,1.05-3.5,1.05-1.64,0-2.95-.51-3.95-1.52-1-1.02-1.5-2.4-1.5-4.15s.51-3.1,1.53-4.12c1.02-1.03,2.41-1.55,4.15-1.55,1.32,0,2.41.29,3.26.88.86.58,1.42,1.46,1.67,2.64l-.02,1.16h-1.57s0-1.16,0-1.16c-.42-1.49-1.54-2.24-3.36-2.24-1.19,0-2.15.38-2.89,1.14-.73.76-1.1,1.86-1.1,3.3,0,1.33.33,2.39.98,3.18.66.79,1.63,1.18,2.93,1.18.94,0,1.71-.25,2.31-.75.6-.5,1.02-1.24,1.26-2.2Z"/>
        <path class="cls-4" d="M63.77,19.4h-.54c-.64,0-1.15.22-1.55.65-.4.43-.59.95-.59,1.56v4.78h-1.44v-8.2h1.35v1.37c.4-.63.78-1.06,1.15-1.28.37-.23.8-.34,1.27-.34l1.33.03s2.28.37,2.28,2.75,0,1.97,0,1.97h-1.38v-2.06s-.24-1.22-1.87-1.22Z"/>
        <path class="cls-4" d="M69.39,22.67c0,.86.21,1.53.64,2,.43.47,1.07.71,1.92.71.61,0,1.14-.16,1.59-.47.46-.32.73-.69.81-1.12h1.48c-.2.86-.62,1.55-1.27,2.06-.65.51-1.51.76-2.57.76-1.26,0-2.27-.36-3.03-1.09-.75-.72-1.13-1.77-1.13-3.14s.37-2.4,1.1-3.24c.74-.84,1.78-1.26,3.11-1.26,1.26,0,2.21.4,2.86,1.19.66.79,1,1.99,1.04,3.6h-6.56ZM69.39,21.59h5c-.11-.91-.36-1.56-.77-1.93-.41-.37-.96-.56-1.66-.56-.74,0-1.34.23-1.81.69-.47.45-.73,1.05-.77,1.8Z"/>
        <g>
          <rect class="cls-4" x="47.32" y="3.34" width="1.39" height="8.29"/>
          <circle class="cls-4" cx="48.02" cy="1.44" r=".84"/>
        </g>
        <g>
          <rect class="cls-4" x="65.24" y="3.34" width="1.39" height="8.29"/>
          <circle class="cls-4" cx="65.93" cy="1.44" r=".84"/>
        </g>
        <path class="cls-4" d="M54.32,17.96c-4.19,0-3.69,3.16-3.69,3.16h1.3v-.57s.34-1.46,2.23-1.46,2.67.89,2.67,1.82v.93h-4.29s-2.15-.2-2.15,2.23,1.98,2.51,3.1,2.51c3.3,0,3.44-2.05,3.44-2.05v1.78h1.36v-5.73s.22-2.61-3.97-2.61ZM56.83,23.47s-.45,1.9-3.06,1.9-2.11-1.5-2.11-1.5c0,0,.06-1.07,1.68-1.07s3.5.02,3.5,0v.67Z"/>
      </g>
      <g class="cls-7">
        <g>
          <path class="cls-6" d="M30.13,12.24s-3.28,5.04-5.2,6.59-5.99,6.89-7.42,7.57-4.1.75-4.1.75L1.25,15.7l10.69-7.3,8.77-3.12,9.41,6.96Z"/>
          <path class="cls-3" d="M14.88,2.11S13.04-.18,8.93-.18,1.71,2.3,2.35,5.84s2.3,3.88,3.76,3.84,2.52-1.32,5.08-3.88,3.69-3.69,3.69-3.69Z"/>
          <path class="cls-1" d="M30.17,15.82s-2.52-7.91-9.94-7.91c0,0-4.07-.34-7.98,4.33-3.92,4.67-5.27,5.12-6.96,5.12s-3.54.98-5.99-1.17S-3.53,3.81-.51,2.72s2.97,0,2.97,0c0,0-.45,11.22,6.4,5.08C15.71,1.66,16.58-1.12,16.58-1.12c0,0,15.62-2.15,15.62,3.35s-2.03,13.59-2.03,13.59Z"/>
          <path class="cls-5" d="M26.36,17.7s-2.52-2.56-6.48-2.33-6.29,2.9-7.72,4.33-3.8,3.61-3.8,3.61c0,0,.83,4.78,5.65,4.82s12.35-10.43,12.35-10.43Z"/>
        </g>
      </g>
    </g>
  </g>
</svg>