<?xml version="1.0" encoding="UTF-8"?>
<svg id="Layer_2" data-name="Layer 2" xmlns="http://www.w3.org/2000/svg" viewBox="0 0 49.58 49.58">
  <defs>
    <style>
      .cls-1 {
        fill: #fff;
      }

      .cls-2 {
        fill: #006d38;
      }
    </style>
  </defs>
  <g id="Layer_1-2" data-name="Layer 1">
    <g>
      <rect class="cls-2" width="49.58" height="49.58"/>
      <path class="cls-1" d="M8.2,15.3c.59-1.14,5.79-8.68,5.79-8.68,0,0,1.13-1.2,0-2.2s-2.01-.44-2.58.5c-.57.94-5.85,7.3-5.85,7.3,0,0-1.51,1.57-1.64,4.21-.13,2.64-.19,11.51-.19,11.51,0,0-.31,2.14,2.14,4.84,2.45,2.71,3.96,5.1,3.96,5.1,0,0,.94,1.45.94,3.4s-.19,4.84-.19,4.84h7.93v-12.14s-.25-2.83-1.32-5.1c-1.07-2.26-3.08-2.83-3.08-5.54v-6.35s.25-2.39-1.57-2.39-1.82,2.33-1.82,2.33v8.05s.06,2.14-1.51,2.14-1.2,0-1.2,0c0,0-.26-4.08-.26-6.73s-.14-3.96.45-5.1Z"/>
      <path class="cls-1" d="M41.44,15.3c-.59-1.14-5.79-8.68-5.79-8.68,0,0-1.13-1.2,0-2.2,1.13-1.01,2.01-.44,2.58.5.57.94,5.85,7.3,5.85,7.3,0,0,1.51,1.57,1.64,4.21.13,2.64.19,11.51.19,11.51,0,0,.31,2.14-2.14,4.84-2.45,2.71-3.96,5.1-3.96,5.1,0,0-.94,1.45-.94,3.4s.19,4.84.19,4.84h-7.93s0-12.14,0-12.14c0,0,.25-2.83,1.32-5.1,1.07-2.26,3.08-2.83,3.08-5.54v-6.35s-.25-2.39,1.57-2.39,1.82,2.33,1.82,2.33v8.05s-.06,2.14,1.51,2.14,1.2,0,1.2,0c0,0,.26-4.08.26-6.73s.14-3.96-.45-5.1Z"/>
      <path class="cls-1" d="M16.99,8.04h5.7l2.2,10.54,2.18-10.54h5.7v17.32h-3.55v-13.2l-2.74,13.2h-3.21l-2.73-13.2v13.2h-3.55V8.04Z"/>
    </g>
  </g>
</svg>