<?xml version="1.0" encoding="UTF-8"?>
<svg id="Layer_2" data-name="Layer 2" xmlns="http://www.w3.org/2000/svg" viewBox="0 0 105.01 41.94">
  <defs>
    <style>
      .cls-1 {
        fill: #924087;
      }

      .cls-2 {
        fill: #939598;
      }

      .cls-3 {
        fill: #ffc20e;
      }

      .cls-4 {
        fill: #9aca3c;
      }
    </style>
  </defs>
  <g id="Layer_1-2" data-name="Layer 1">
    <g>
      <path class="cls-1" d="M24.61,25.27l-2.25-3.22s-.36-.39-1.29-.36-1.22.75-1.22.75l5.69,9.76s1.75,3.11,5.51,2.97,6.74-2.5,6.69-6.51c-.04-2.93-2.9-14.45-2.9-14.45,0,0-.36-1.11-1.43-.86s-.86,1.07-.75,1.64.97,5.28.97,5.28c0,0,.09.4-.21.47-.35.08-.46-.34-.46-.34l-1.58-7.88s-.22-1.12-1.31-.92-.98,1.19-.94,1.5,1.56,7.7,1.56,7.7c0,0,.23.53-.21.62s-.51-.36-.51-.36l-1.87-8.93s-.29-1.41-1.31-1.21-1.14.85-.95,1.77,1.79,8.56,1.79,8.56c0,0,.21.66-.13.73s-.48-.1-.62-.54-1.62-7.82-1.62-7.82c0,0-.22-1.04-1.26-.82s-.99.85-.95,1.39,2.09,10.72,2.09,10.72c0,0,.14.62-.05.65-.28.06-.48-.31-.48-.31Z"/>
      <path class="cls-3" d="M17.96,13.92l-1.2,3.74s-.1.52.49,1.24,1.33.51,1.33.51l4.33-10.43s1.42-3.28-.97-6.18C19.57-.1,15.89-1.05,12.73,1.41,10.41,3.21,2.98,12.46,2.98,12.46c0,0-.67.96.18,1.66s1.37.03,1.76-.4,3.62-3.97,3.62-3.97c0,0,.27-.31.5-.11.27.23,0,.57,0,.57l-5.32,6.02s-.76.85.06,1.6,1.54.07,1.76-.16,5.19-5.9,5.19-5.9c0,0,.28-.5.62-.21s.02.63.02.63l-5.98,6.89s-.94,1.08-.17,1.78,1.37.39,1.98-.32,5.73-6.61,5.73-6.61c0,0,.4-.57.66-.34s.21.44-.05.82-5.24,6.02-5.24,6.02c0,0-.69.8.11,1.5s1.28.28,1.68-.09,7.27-8.14,7.27-8.14c0,0,.41-.48.55-.36.21.19.05.57.05.57Z"/>
      <path class="cls-4" d="M13.54,26.82l3.9.5s.53,0,1.13-.71.26-1.4.26-1.4l-11.05-2.37s-3.48-.8-5.9,2.07c-2.42,2.87-2.69,6.67.31,9.33,2.19,1.95,12.63,7.59,12.63,7.59,0,0,1.06.48,1.6-.48s-.21-1.36-.71-1.66-4.56-2.84-4.56-2.84c0,0-.35-.21-.2-.47.18-.31.56-.11.56-.11l6.89,4.14s.97.59,1.56-.35-.21-1.53-.48-1.7-6.74-4.04-6.74-4.04c0,0-.54-.19-.32-.57s.61-.13.61-.13l7.86,4.63s1.24.73,1.78-.15.14-1.41-.67-1.89-7.54-4.44-7.54-4.44c0,0-.63-.29-.45-.59s.4-.28.82-.1,6.87,4.07,6.87,4.07c0,0,.91.53,1.46-.38s.04-1.31-.39-1.63-9.33-5.68-9.33-5.68c0,0-.55-.31-.45-.48.15-.24.55-.15.55-.15Z"/>
      <g>
        <path class="cls-1" d="M66.26,21.88c.45.31,1.1.57,1.79.57,1.02,0,1.62-.6,1.62-1.48,0-.81-.41-1.27-1.46-1.72-1.26-.5-2.05-1.23-2.05-2.45,0-1.35,1-2.35,2.51-2.35.79,0,1.37.21,1.71.42l-.28.91c-.25-.15-.77-.41-1.47-.41-1.06,0-1.46.71-1.46,1.3,0,.81.47,1.21,1.54,1.67,1.31.57,1.98,1.27,1.98,2.54,0,1.34-.89,2.49-2.71,2.49-.75,0-1.56-.24-1.98-.55l.25-.94Z"/>
        <path class="cls-1" d="M77.14,20.08c0,2.3-1.43,3.3-2.77,3.3-1.51,0-2.67-1.23-2.67-3.2,0-2.08,1.22-3.3,2.76-3.3s2.68,1.3,2.68,3.2ZM72.72,20.14c0,1.36.7,2.39,1.69,2.39s1.69-1.01,1.69-2.41c0-1.05-.47-2.39-1.67-2.39s-1.71,1.23-1.71,2.41Z"/>
        <path class="cls-1" d="M78.41,14.12h1.01v9.12h-1.01v-9.12Z"/>
        <path class="cls-1" d="M85.79,21.54c0,.64.01,1.21.05,1.7h-.9l-.06-1.01h-.02c-.26.5-.85,1.16-1.84,1.16-.87,0-1.92-.54-1.92-2.72v-3.63h1.01v3.44c0,1.18.32,1.98,1.24,1.98.68,0,1.15-.53,1.33-1.03.06-.17.09-.37.09-.58v-3.81h1.01v4.52Z"/>
        <path class="cls-1" d="M88.68,15.24v1.79h1.45v.86h-1.45v3.35c0,.77.2,1.21.76,1.21.26,0,.46-.04.59-.08l.05.85c-.2.09-.51.15-.9.15-.47,0-.85-.17-1.09-.48-.29-.33-.39-.89-.39-1.62v-3.39h-.86v-.86h.86v-1.49l.99-.3Z"/>
        <path class="cls-1" d="M92.4,15.28c.01.39-.24.69-.64.69-.36,0-.61-.31-.61-.69s.26-.71.63-.71.62.31.62.71ZM91.27,23.24v-6.22h1.01v6.22h-1.01Z"/>
        <path class="cls-1" d="M99,20.08c0,2.3-1.43,3.3-2.77,3.3-1.51,0-2.67-1.23-2.67-3.2,0-2.08,1.22-3.3,2.76-3.3s2.68,1.3,2.68,3.2ZM94.58,20.14c0,1.36.7,2.39,1.69,2.39s1.69-1.01,1.69-2.41c0-1.05-.47-2.39-1.67-2.39s-1.71,1.23-1.71,2.41Z"/>
        <path class="cls-1" d="M100.28,18.71c0-.64-.01-1.17-.05-1.68h.9l.06,1.03h.02c.28-.59.92-1.17,1.84-1.17.77,0,1.97.51,1.97,2.65v3.71h-1.01v-3.58c0-1-.33-1.84-1.29-1.84-.67,0-1.18.53-1.36,1.16-.05.14-.07.33-.07.53v3.74h-1.01v-4.53Z"/>
      </g>
      <g>
        <path class="cls-1" d="M49.22,20.03c-.04-1.02-.07-2.24-.07-3.47h-.04c-.26,1.08-.6,2.28-.92,3.27l-1.01,3.3h-1.46l-.88-3.27c-.27-.99-.55-2.19-.75-3.3h-.02c-.05,1.14-.09,2.44-.15,3.5l-.15,3.21h-1.73l.53-8.45h2.49l.81,2.82c.26.98.52,2.03.7,3.02h.04c.23-.98.52-2.09.79-3.03l.88-2.81h2.44l.45,8.45h-1.83l-.12-3.23Z"/>
        <path class="cls-1" d="M56.92,19.69h-3.05v2.01h3.4v1.57h-5.28v-8.45h5.11v1.57h-3.23v1.75h3.05v1.55Z"/>
        <path class="cls-1" d="M57.94,14.93c.69-.11,1.58-.18,2.53-.18,1.57,0,2.59.29,3.39.9.86.65,1.4,1.69,1.4,3.18,0,1.62-.58,2.73-1.38,3.42-.87.74-2.2,1.09-3.82,1.09-.97,0-1.66-.06-2.12-.13v-8.3ZM59.82,21.82c.16.04.42.04.65.04,1.69.01,2.8-.94,2.8-2.96.01-1.75-.99-2.68-2.6-2.68-.42,0-.69.04-.85.08v5.53Z"/>
      </g>
      <g>
        <path class="cls-2" d="M56.77,31.61v-3.87h.76l.91,2.74c.08.26.14.45.18.57.04-.14.11-.35.2-.62l.92-2.69h.68v3.87h-.49v-3.24l-1.11,3.24h-.46l-1.11-3.3v3.3h-.49Z"/>
        <path class="cls-2" d="M63.08,30.71l.49.06c-.08.29-.22.51-.43.67-.21.16-.47.24-.79.24-.41,0-.73-.13-.96-.38-.24-.25-.36-.61-.36-1.06s.12-.84.36-1.1c.24-.26.55-.39.93-.39s.67.13.91.38c.23.26.35.61.35,1.08,0,.03,0,.07,0,.13h-2.07c.02.31.1.54.26.71.15.16.35.25.58.25.17,0,.32-.05.44-.14.12-.09.22-.24.29-.44ZM61.54,29.94h1.55c-.02-.24-.08-.41-.18-.53-.15-.18-.34-.27-.58-.27-.22,0-.4.07-.54.22-.15.15-.23.34-.24.59Z"/>
        <path class="cls-2" d="M65.95,31.61v-.35c-.18.28-.43.42-.78.42-.22,0-.42-.06-.61-.18-.19-.12-.33-.3-.43-.52-.1-.22-.15-.47-.15-.76s.05-.53.14-.76c.09-.23.23-.4.41-.52.18-.12.39-.18.62-.18.17,0,.32.04.45.11.13.07.24.16.32.28v-1.39h.47v3.87h-.44ZM64.47,30.21c0,.36.07.63.22.81.15.18.33.27.53.27s.38-.08.52-.25c.14-.17.22-.43.22-.78,0-.38-.07-.67-.22-.85-.15-.18-.33-.27-.54-.27s-.38.09-.52.26c-.14.17-.21.44-.21.82Z"/>
        <path class="cls-2" d="M67.13,28.29v-.55h.47v.55h-.47ZM67.13,31.61v-2.81h.47v2.81h-.47Z"/>
        <path class="cls-2" d="M70.12,30.59l.46.06c-.05.32-.18.57-.39.76-.21.18-.46.27-.77.27-.38,0-.68-.13-.91-.38-.23-.25-.35-.61-.35-1.08,0-.3.05-.57.15-.8s.25-.4.45-.51.42-.17.66-.17c.3,0,.55.08.74.23.19.15.31.37.37.66l-.46.07c-.04-.19-.12-.33-.23-.43-.11-.1-.24-.14-.4-.14-.24,0-.43.09-.58.26-.15.17-.22.44-.22.81s.07.65.21.82c.14.17.33.26.56.26.18,0,.34-.06.46-.17.12-.11.2-.29.23-.53Z"/>
        <path class="cls-2" d="M72.8,31.27c-.17.15-.34.26-.5.32-.16.06-.33.09-.52.09-.3,0-.54-.08-.7-.23-.16-.15-.25-.34-.25-.58,0-.14.03-.26.09-.38s.14-.2.24-.27.21-.12.34-.16c.09-.02.23-.05.42-.07.38-.05.66-.1.84-.16,0-.07,0-.11,0-.12,0-.19-.04-.33-.13-.41-.12-.11-.3-.16-.53-.16-.22,0-.38.04-.49.12-.11.08-.18.22-.23.42l-.46-.06c.04-.2.11-.36.21-.48.1-.12.23-.22.41-.28s.39-.1.63-.1.43.03.58.08.26.13.33.21c.07.09.12.19.15.32.02.08.02.23.02.44v.63c0,.44.01.72.03.84s.06.23.12.34h-.49c-.05-.1-.08-.21-.09-.35ZM72.76,30.21c-.17.07-.43.13-.77.18-.19.03-.33.06-.41.1-.08.04-.14.09-.19.15-.04.07-.07.14-.07.23,0,.13.05.23.14.32.09.08.23.13.42.13s.34-.04.48-.12c.14-.08.24-.19.31-.33.05-.11.08-.27.08-.48v-.17Z"/>
        <path class="cls-2" d="M73.95,31.61v-3.87h.47v3.87h-.47Z"/>
        <path class="cls-2" d="M76.52,30.37l.48-.04c.02.19.08.35.16.48.08.12.21.22.38.3.17.08.37.11.59.11.19,0,.36-.03.51-.09s.26-.14.33-.24c.07-.1.11-.21.11-.33s-.03-.23-.1-.32c-.07-.09-.18-.17-.34-.23-.1-.04-.33-.1-.68-.19-.35-.09-.6-.17-.74-.24-.18-.1-.32-.22-.41-.36s-.13-.3-.13-.48c0-.2.05-.38.16-.55s.27-.3.48-.39c.21-.09.44-.13.7-.13.28,0,.53.05.75.14.22.09.38.23.5.41.12.18.18.38.19.61l-.49.04c-.03-.24-.11-.43-.26-.55s-.37-.19-.67-.19-.53.06-.67.17-.21.25-.21.41c0,.14.05.25.15.34.1.09.35.18.76.28.41.09.69.18.85.25.22.1.39.24.49.39.11.16.16.34.16.55s-.06.4-.17.58c-.12.18-.28.32-.5.43-.22.1-.46.15-.74.15-.35,0-.64-.05-.87-.15s-.42-.26-.55-.46c-.13-.2-.2-.44-.21-.7Z"/>
        <path class="cls-2" d="M82.1,30.71l.49.06c-.08.29-.22.51-.43.67-.21.16-.47.24-.79.24-.41,0-.73-.13-.96-.38-.24-.25-.36-.61-.36-1.06s.12-.84.36-1.1c.24-.26.55-.39.93-.39s.67.13.91.38c.23.26.35.61.35,1.08,0,.03,0,.07,0,.13h-2.07c.02.31.1.54.26.71.15.16.35.25.58.25.17,0,.32-.05.44-.14.12-.09.22-.24.29-.44ZM80.55,29.94h1.55c-.02-.24-.08-.41-.18-.53-.15-.18-.34-.27-.58-.27-.22,0-.4.07-.54.22-.15.15-.23.34-.24.59Z"/>
        <path class="cls-2" d="M83.17,31.61v-2.81h.42v.43c.11-.2.21-.33.3-.39s.19-.1.3-.1c.16,0,.32.05.48.15l-.16.44c-.11-.07-.23-.1-.34-.1-.1,0-.19.03-.28.09-.08.06-.14.15-.17.26-.05.17-.08.35-.08.55v1.47h-.47Z"/>
        <path class="cls-2" d="M85.72,31.61l-1.05-2.81h.5l.6,1.68c.06.18.12.37.18.57.04-.15.1-.33.17-.53l.62-1.71h.48l-1.05,2.81h-.44Z"/>
        <path class="cls-2" d="M87.63,28.29v-.55h.47v.55h-.47ZM87.63,31.61v-2.81h.47v2.81h-.47Z"/>
        <path class="cls-2" d="M90.62,30.59l.46.06c-.05.32-.18.57-.39.76-.21.18-.46.27-.77.27-.38,0-.68-.13-.91-.38-.23-.25-.35-.61-.35-1.08,0-.3.05-.57.15-.8s.25-.4.45-.51.42-.17.66-.17c.3,0,.55.08.74.23.19.15.31.37.37.66l-.46.07c-.04-.19-.12-.33-.23-.43-.11-.1-.24-.14-.4-.14-.24,0-.43.09-.58.26-.15.17-.22.44-.22.81s.07.65.21.82c.14.17.33.26.56.26.18,0,.34-.06.46-.17.12-.11.2-.29.23-.53Z"/>
        <path class="cls-2" d="M93.38,30.71l.49.06c-.08.29-.22.51-.43.67-.21.16-.47.24-.79.24-.41,0-.73-.13-.96-.38-.24-.25-.36-.61-.36-1.06s.12-.84.36-1.1c.24-.26.55-.39.93-.39s.67.13.91.38c.23.26.35.61.35,1.08,0,.03,0,.07,0,.13h-2.07c.02.31.1.54.26.71.15.16.35.25.58.25.17,0,.32-.05.44-.14.12-.09.22-.24.29-.44ZM91.84,29.94h1.55c-.02-.24-.08-.41-.18-.53-.15-.18-.34-.27-.58-.27-.22,0-.4.07-.54.22-.15.15-.23.34-.24.59Z"/>
        <path class="cls-2" d="M94.27,30.78l.46-.07c.03.19.1.33.22.43s.29.15.5.15.38-.04.48-.13c.1-.09.16-.19.16-.31,0-.11-.05-.19-.14-.25-.06-.04-.22-.1-.48-.16-.34-.09-.58-.16-.72-.23-.13-.06-.23-.15-.3-.27-.07-.11-.1-.24-.1-.38,0-.13.03-.24.08-.35.06-.11.13-.19.23-.27.07-.05.17-.1.3-.14.13-.04.26-.06.41-.06.22,0,.41.03.57.1s.29.15.36.26c.08.11.13.25.16.43l-.46.06c-.02-.14-.08-.26-.18-.34-.1-.08-.24-.12-.42-.12-.22,0-.37.04-.46.11-.09.07-.14.16-.14.25,0,.06.02.12.06.17.04.05.1.09.18.13.05.02.19.06.41.12.33.09.56.16.7.22.13.06.23.14.31.25.07.11.11.24.11.41s-.05.31-.14.45c-.09.14-.22.25-.4.32-.17.08-.37.11-.58.11-.36,0-.63-.08-.82-.23-.19-.15-.31-.38-.36-.67Z"/>
      </g>
    </g>
  </g>
</svg>