<?xml version="1.0" encoding="UTF-8"?>
<svg id="Layer_2" data-name="Layer 2" xmlns="http://www.w3.org/2000/svg" xmlns:xlink="http://www.w3.org/1999/xlink" viewBox="0 0 116.6 28.3">
  <defs>
    <style>
      .cls-1 {
        fill: #fff;
      }

      .cls-2 {
        letter-spacing: -.03em;
      }

      .cls-3 {
        font-family: Lato-Medium, Lato;
        font-size: 7.18px;
        font-weight: 500;
      }

      .cls-3, .cls-4 {
        fill: #1f275a;
      }

      .cls-5 {
        fill: none;
      }

      .cls-6 {
        fill: #ad1f2c;
      }

      .cls-7 {
        fill: #232a60;
      }

      .cls-8 {
        letter-spacing: -.02em;
      }

      .cls-9 {
        clip-path: url(#clippath);
      }
    </style>
    <clipPath id="clippath">
      <circle class="cls-5" cx="50.91" cy="8.02" r="8.02"/>
    </clipPath>
  </defs>
  <g id="Layer_1-2" data-name="Layer 1">
    <g>
      <circle class="cls-6" cx="50.91" cy="8.02" r="8.02"/>
      <g>
        <g class="cls-9">
          <path class="cls-1" d="M55.89,1.64l-4.86,5.06-1.58-1.65s-.85-.95-1.52-.19-.79.89,0,1.84c.79.95,2.25,2.28,2.25,2.28,0,0,.91.82,1.88,0s5.47-5.76,5.47-5.76l-1.64-1.58Z"/>
        </g>
        <text class="cls-3" transform="translate(25.46 26.36)"><tspan x="0" y="0">MEDICA</tspan><tspan class="cls-2" x="28.01" y="0">L</tspan><tspan x="31.49" y="0" xml:space="preserve"> SE</tspan><tspan class="cls-8" x="41.36" y="0">R</tspan><tspan x="45.75" y="0">VICES</tspan></text>
        <polygon class="cls-4" points="0 14.2 0 2.17 2.88 2.17 6.99 9.25 11.04 2.17 13.78 2.17 13.78 14.2 10.76 14.2 10.76 7.79 7.69 12.93 6.14 12.93 3.16 8.02 3.16 14.2 0 14.2"/>
        <polygon class="cls-7" points="25.46 4.83 25.46 2.35 16.11 2.35 16.11 14.2 25.66 14.2 25.66 11.5 19.34 11.5 19.34 9.38 24.64 9.38 24.64 6.82 19.39 6.82 19.39 4.93 25.46 4.93 25.46 4.83"/>
        <path class="cls-7" d="M33.49,2.26h-5.94l-.02.09v11.85h6.65s5.43-.77,5.43-6.02-4.73-5.93-6.12-5.93ZM33.47,11.53h-2.76v-6.61h2.48c1.18,0,3.12.45,3.12,3.36s-2.83,3.25-2.83,3.25Z"/>
        <rect class="cls-7" x="74.76" y="2.24" width="3.35" height="11.92"/>
        <polygon class="cls-7" points="93.43 2.24 96.74 2.24 96.74 6.77 101.29 6.77 101.29 2.35 104.68 2.35 104.68 14.06 101.34 14.06 101.34 9.43 96.69 9.43 96.69 14.16 93.32 14.16 93.32 2.24 93.43 2.24"/>
        <polygon class="cls-7" points="105.84 2.24 116.6 2.24 116.6 4.9 112.72 4.9 112.72 14.16 109.51 14.16 109.51 4.89 105.84 4.89 105.84 2.24"/>
        <path class="cls-7" d="M89.44,6.21l2.1-2.05s-1.3-2.15-5.24-2.15-6.48,2.32-6.48,6.3,3.4,6.15,6.57,6.15,5.08-1.66,5.08-1.66v-4.89h-3.16v3.2s-.26.46-1.77.46-3.32-1.12-3.32-3.35,1.44-3.33,3.38-3.33,2.85,1.33,2.85,1.33Z"/>
        <path class="cls-7" d="M70.47,10.33s2.43-.69,2.43-3.49-1.7-4.61-4.93-4.61h-5.73v11.92h3.34v-3.17h1.72l2.34,3.17h3.45v-.31l-2.61-3.52ZM68.2,8.34h-2.7v-3.4h2.23c1.06,0,1.95.38,1.95,1.81s-1.48,1.59-1.48,1.59Z"/>
      </g>
    </g>
  </g>
</svg>