<?xml version="1.0" encoding="UTF-8"?>
<svg id="Layer_2" data-name="Layer 2" xmlns="http://www.w3.org/2000/svg" viewBox="0 0 111.6 32.21">
  <defs>
    <style>
      .cls-1 {
        fill: #295d90;
      }

      .cls-2 {
        fill: #0089b1;
      }

      .cls-3 {
        fill: #3d79bd;
      }

      .cls-4 {
        fill: #8a8c8e;
      }

      .cls-5 {
        fill: #6bc4ef;
      }

      .cls-6 {
        fill: #1968ab;
      }

      .cls-7 {
        fill: #0f6937;
      }

      .cls-8 {
        fill: #34ab57;
      }
    </style>
  </defs>
  <g id="Layer_1-2" data-name="Layer 1">
    <g>
      <g>
        <path class="cls-6" d="M6.19,19.02l10.52,10.88s-3.51,3.18-8.64-.43c-5.13-3.61-1.88-10.45-1.88-10.45Z"/>
        <g>
          <path class="cls-7" d="M19.32,6.43l-14.5,2.79s.4-6,5.46-7.29,8.88,2.05,9.04,4.5Z"/>
          <path class="cls-8" d="M4.83,9.22s-.31-2.59,1.87-5.57C8.87.67,13.19,0,17.77,0s11.52,2.05,11.52,6.67c0,0,.49,1.38-1.47,7.07s-3.03,9.34-3.03,9.34c0,0-1.51-.04-2.58-.31s-1.51-.31-1.51-.31c0,0,.31-5.83-.4-11.83-.71-6.01-4.32-8.85-8.14-8.54-3.83.31-5.61,2.61-6.33,4.08s-.76,2.99-.76,2.99l-.26.06Z"/>
        </g>
        <path class="cls-3" d="M20.14,10.17s-8.06,3.9-12.33,8.42-1.72,8.62.56,10.51,5.08,2,6.55,1.58,1.79-.77,1.79-.77l.32.25s-1.58,1.19-4.87,1.19-5.78-1.65-8.51-5.43S-.03,18.8,0,14.91s2.74-5.27,5.08-5.75,14.11-2.65,14.11-2.65c0,0,.45.94.71,2s.24,1.67.24,1.67Z"/>
        <path class="cls-2" d="M24.85,22.99s2.83-8.66,3.39-10.46c.56-1.8.85-3.01.85-3.01,0,0,3.19,2,3.54,3.92s.65,6.33-1.28,8.34c-1.94,2.01-6.49,1.21-6.49,1.21Z"/>
        <path class="cls-5" d="M9.54,16.92s7.92,5.06,12.09,5.71c4.18.65,7.2.84,9.52-2.36s1.58-6.51.41-8.07-2.49-2.68-2.49-2.68l.04-.22s4.46,2.36,4.46,7.75c0,3.63-1.91,6.9-3.18,8.72s-4.32,6.44-8.48,6.44c-3.04,0-4.55-1.63-6.12-3.32-1.56-1.68-8.97-9.2-8.97-9.2,0,0,.7-1,1.38-1.59s1.32-1.19,1.32-1.19Z"/>
      </g>
      <path class="cls-1" d="M39.88,10.7s1.5-.66,3.91-.66,2.79.68,2.79.68c0,0,.84-.72,3.09-.72s3.38.9,3.38,3.18v6.37h-1.82v-6.43s.29-1.68-1.76-1.68c-1.56,0-2.13.51-2.13.51,0,0,.23.12.23.98v6.66h-1.84v-6.58s.06-1.6-2.11-1.6c-1.52,0-1.89.37-1.89.37v7.77h-1.91s.04-8.85.06-8.85Z"/>
      <path class="cls-1" d="M73.13,10.7s1.5-.66,3.91-.66,2.79.68,2.79.68c0,0,.84-.72,3.09-.72s3.38.9,3.38,3.18v6.37h-1.82v-6.43s.29-1.68-1.76-1.68c-1.56,0-2.13.51-2.13.51,0,0,.23.12.23.98v6.66h-1.84v-6.58s.06-1.6-2.11-1.6c-1.52,0-1.89.37-1.89.37v7.77h-1.91s.04-8.85.06-8.85Z"/>
      <path class="cls-1" d="M56.8,13.79v1.3h5.8v-1.77s-.17-3.34-3.92-3.34-4.5,3.34-4.5,5.14.43,4.75,4.6,4.75c2.5,0,3.38-.97,3.38-.97v-1.65s-.89,1.16-3.26,1.16-3.03-1.71-3.03-3.47.78-3.55,2.74-3.55c2.41,0,2.23,2.37,2.23,2.37l-4.04.04Z"/>
      <path class="cls-1" d="M69.48,4.97h1.82v14.33s-.89.46-3.34.46-4.95-.69-4.95-4.63,2.73-5.17,5.03-5.17h.75v1.5h-1.5s-2.53.1-2.53,3.92c0,2.36,1.96,2.95,3.46,2.95s1.23-.24,1.23-.24l.04-13.12Z"/>
      <path class="cls-1" d="M101.31,11.8v-1.54s.1-.3-1.96-.3-3.38.79-3.38.79v8.85h1.8v-7.72s.79-.4,1.88-.4,1.66.32,1.66.32Z"/>
      <rect class="cls-1" x="102.04" y="4.99" width="1.74" height="14.59"/>
      <path class="cls-1" d="M108.87,10.17h2.14s-.99,1.23-2.36,2.43-2.1,1.9-2.1,1.9c0,0,1.05,1.15,2.57,2.63s2.47,2.38,2.47,2.38h-2.47s-1.44-1.35-2.63-2.73c-1.19-1.39-1.31-1.62-1.31-1.62,0,0-.4-.1-.4-.63s.18-.65.79-1.15,3.29-3.21,3.29-3.21Z"/>
      <path class="cls-1" d="M88.01,12.59v-1.62s1.11-.99,3.48-.99,2.73,1.43,2.73,2.22v7.2s-1.33.46-3.5.46-3.21-.57-3.21-2.57c0-3.64,4.22-3.34,4.22-3.34v1.33s-2.63.08-2.63,1.78,1.03,1.5,1.92,1.5,1.52-.32,1.52-.32v-5.86s0-1.01-1.64-1.01-2.89,1.23-2.89,1.23Z"/>
      <path class="cls-4" d="M41.41,23.21h.25v-.41s-.27-.27-.94-.27-1.14.41-1.14,1.07.34.81.84,1.02.74.34.74.78-.49.54-.76.54-.56-.3-.56-.3h-.22v.54s.19.23.88.23,1.31-.37,1.31-1.02c0-.48-.05-.85-.79-1.18s-.93-.34-.93-.62.1-.58.7-.58.65.08.63.19Z"/>
      <path class="cls-4" d="M43.86,22.73v-1.04s.45,0,.45,0v1.03h.87v.49h-.86v2.24s-.02.39.38.39h.45v.46h-.83s-.48-.02-.48-.65v-2.44h-.52v-.48h.54Z"/>
      <path class="cls-4" d="M78.23,22.73v-1.04s.45,0,.45,0v1.03h.87v.49h-.86v2.24s-.02.39.38.39h.45v.46h-.83s-.48-.02-.48-.65v-2.44h-.52v-.48h.54Z"/>
      <path class="cls-4" d="M96.41,22.73v-1.04s.45,0,.45,0v1.03h.87v.49h-.86v2.24s-.02.39.38.39h.45v.46h-.83s-.48-.02-.48-.65v-2.44h-.52v-.48h.54Z"/>
      <path class="cls-4" d="M48.89,22.54v.46s-.38.03-.79.03-.52.2-.52.2v3.01h-.56v-3.2s.2-.5.98-.5.85.03.85.03l.05-.03Z"/>
      <path class="cls-4" d="M72.65,22.54v.46s-.38.03-.79.03-.52.2-.52.2v3.01h-.56v-3.2s.2-.5.98-.5.85.03.85.03l.05-.03Z"/>
      <path class="cls-4" d="M111.6,22.54v.46s-.38.03-.79.03-.52.2-.52.2v3.01h-.56v-3.2s.2-.5.98-.5.85.03.85.03l.05-.03Z"/>
      <path class="cls-4" d="M52.08,22.56c-.93,0-1.68.88-1.68,1.96s.75,1.96,1.68,1.96,1.68-.88,1.68-1.96-.75-1.96-1.68-1.96ZM52.08,25.94c-.64,0-1.16-.63-1.16-1.42s.52-1.42,1.16-1.42,1.16.63,1.16,1.42-.52,1.42-1.16,1.42Z"/>
      <path class="cls-4" d="M82.75,22.56c-.93,0-1.68.88-1.68,1.96s.75,1.96,1.68,1.96,1.68-.88,1.68-1.96-.75-1.96-1.68-1.96ZM82.75,25.94c-.64,0-1.16-.63-1.16-1.42s.52-1.42,1.16-1.42,1.16.63,1.16,1.42-.52,1.42-1.16,1.42Z"/>
      <path class="cls-4" d="M55.8,26.25v-3.51s.91-.22,1.51-.22,1.37.32,1.37,1v2.75h-.54v-2.63s-.03-.66-.89-.66-.92.25-.92.25v3.03s-.52,0-.53,0Z"/>
      <g>
        <path class="cls-4" d="M99.73,26.25v-3.51s.91-.22,1.51-.22,1.37.32,1.37,1v2.75h-.54v-2.63s-.03-.66-.89-.66-.92.25-.92.25v3.03s-.52,0-.53,0Z"/>
        <rect class="cls-4" x="99.74" y="20.65" width=".53" height="2.39"/>
      </g>
      <path class="cls-4" d="M68.8,24.38v-.69s.02-1.21-1.47-1.21-1.71,1.36-1.71,2.09.58,1.74,1.74,1.74,1.29-.38,1.29-.38v-.52s-.28.49-1.28.49-1.28-1.13-1.23-1.53h2.66ZM67.22,23c1.27,0,1.1.95,1.1.95h-2.14s0-.95,1.04-.95Z"/>
      <path class="cls-4" d="M94.44,24.38v-.69s.02-1.21-1.47-1.21-1.71,1.36-1.71,2.09.58,1.74,1.74,1.74,1.29-.38,1.29-.38v-.52s-.28.49-1.28.49-1.28-1.13-1.23-1.53h2.66ZM92.86,23c1.27,0,1.1.95,1.1.95h-2.14s0-.95,1.04-.95Z"/>
      <path class="cls-4" d="M107.78,24.38v-.69s.02-1.21-1.47-1.21-1.71,1.36-1.71,2.09.58,1.74,1.74,1.74,1.29-.38,1.29-.38v-.52s-.28.49-1.28.49-1.28-1.13-1.23-1.53h2.66ZM106.2,23c1.27,0,1.1.95,1.1.95h-2.14s0-.95,1.04-.95Z"/>
      <path class="cls-4" d="M64.21,23.24v-.49s-.58-.22-1.51-.22-2.11.49-2.11,2.08,1.19,1.67,1.66,1.67.73-.03.73-.03v.58c0,.37-.25.9-1.03.9s-1.23-.52-1.23-.52l-.09.49s.33.57,1.32.57c1.7,0,1.56-1.72,1.56-1.72v-3.37l.7.05ZM63.03,25.71s-.33.1-.75.1-1.16-.29-1.16-1.2.66-1.56,1.3-1.56h.61v2.66Z"/>
      <path class="cls-4" d="M89.79,23.24v-.49s-.58-.22-1.51-.22-2.11.49-2.11,2.08,1.19,1.67,1.66,1.67.73-.03.73-.03v.58c0,.37-.25.9-1.03.9s-1.23-.52-1.23-.52l-.09.49s.33.57,1.32.57c1.7,0,1.56-1.72,1.56-1.72v-3.37l.7.05ZM88.6,25.71s-.33.1-.75.1-1.16-.29-1.16-1.2.66-1.56,1.3-1.56h.61v2.66Z"/>
    </g>
  </g>
</svg>