<?xml version="1.0" encoding="UTF-8"?>
<svg id="Layer_2" data-name="Layer 2" xmlns="http://www.w3.org/2000/svg" xmlns:xlink="http://www.w3.org/1999/xlink" viewBox="0 0 91.19 45.27">
  <defs>
    <style>
      .cls-1 {
        fill: url(#linear-gradient-2);
      }

      .cls-2 {
        fill: url(#linear-gradient);
      }

      .cls-3 {
        fill: #0e7496;
        font-family: Trebuchet-BoldItalic, 'Trebuchet MS';
        font-size: 4.16px;
        font-style: italic;
        font-weight: 700;
        letter-spacing: 0em;
      }
    </style>
    <linearGradient id="linear-gradient" x1="32.59" y1="9.98" x2="91.19" y2="9.98" gradientUnits="userSpaceOnUse">
      <stop offset="0" stop-color="#2fa19d"/>
      <stop offset="1" stop-color="#0e7496"/>
    </linearGradient>
    <linearGradient id="linear-gradient-2" x1=".94" y1="30.55" x2="62.9" y2="30.55" xlink:href="#linear-gradient"/>
  </defs>
  <g id="Layer_1-2" data-name="Layer 1">
    <g>
      <path class="cls-2" d="M35.25,9.61c0,.73-.6,1.33-1.33,1.33s-1.33-.6-1.33-1.33.6-1.33,1.33-1.33,1.33.6,1.33,1.33ZM39.18,8.36c-.73,0-1.33.6-1.33,1.33s.6,1.33,1.33,1.33,1.33-.6,1.33-1.33-.6-1.33-1.33-1.33ZM42.75,4.34c-.73,0-1.33.6-1.33,1.33s.6,1.33,1.33,1.33,1.33-.6,1.33-1.33-.6-1.33-1.33-1.33ZM58.12,4.36c-.73,0-1.33.6-1.33,1.33s.6,1.33,1.33,1.33,1.33-.6,1.33-1.33-.6-1.33-1.33-1.33ZM50.39,12.99c-.73,0-1.33.6-1.33,1.33s.6,1.33,1.33,1.33,1.33-.6,1.33-1.33-.6-1.33-1.33-1.33ZM54.25,8.58c-.73,0-1.33.6-1.33,1.33s.6,1.33,1.33,1.33,1.33-.6,1.33-1.33-.6-1.33-1.33-1.33ZM69.64,8.64c-.73,0-1.33.6-1.33,1.33s.6,1.33,1.33,1.33,1.33-.6,1.33-1.33-.6-1.33-1.33-1.33ZM84.58,9.07c-.73,0-1.33.6-1.33,1.33s.6,1.33,1.33,1.33,1.33-.6,1.33-1.33-.6-1.33-1.33-1.33ZM81.15,12.95c-.73,0-1.33.6-1.33,1.33s.6,1.33,1.33,1.33,1.33-.6,1.33-1.33-.6-1.33-1.33-1.33ZM77.24,17.28c-.73,0-1.33.6-1.33,1.33s.6,1.33,1.33,1.33,1.33-.6,1.33-1.33-.6-1.33-1.33-1.33ZM77.24,11.67c-.73,0-1.33.6-1.33,1.33s.6,1.33,1.33,1.33,1.33-.6,1.33-1.33-.6-1.33-1.33-1.33ZM77.24,5.8c-.73,0-1.33.6-1.33,1.33s.6,1.33,1.33,1.33,1.33-.6,1.33-1.33-.6-1.33-1.33-1.33ZM77.24,0c-.73,0-1.33.6-1.33,1.33s.6,1.33,1.33,1.33,1.33-.6,1.33-1.33-.6-1.33-1.33-1.33ZM61.95,0c-.73,0-1.33.6-1.33,1.33s.6,1.33,1.33,1.33,1.33-.6,1.33-1.33-.6-1.33-1.33-1.33ZM61.95,5.8c-.73,0-1.33.6-1.33,1.33s.6,1.33,1.33,1.33,1.33-.6,1.33-1.33-.6-1.33-1.33-1.33ZM61.95,11.67c-.73,0-1.33.6-1.33,1.33s.6,1.33,1.33,1.33,1.33-.6,1.33-1.33-.6-1.33-1.33-1.33ZM61.95,17.3c-.73,0-1.33.6-1.33,1.33s.6,1.33,1.33,1.33,1.33-.6,1.33-1.33-.6-1.33-1.33-1.33ZM65.69,13.03c-.73,0-1.33.6-1.33,1.33s.6,1.33,1.33,1.33,1.33-.6,1.33-1.33-.6-1.33-1.33-1.33ZM73.41,4.42c-.73,0-1.33.6-1.33,1.33s.6,1.33,1.33,1.33,1.33-.6,1.33-1.33-.6-1.33-1.33-1.33ZM46.55,0c-.73,0-1.33.6-1.33,1.33s.6,1.33,1.33,1.33,1.33-.6,1.33-1.33-.6-1.33-1.33-1.33ZM46.55,5.8c-.73,0-1.33.6-1.33,1.33s.6,1.33,1.33,1.33,1.33-.6,1.33-1.33-.6-1.33-1.33-1.33ZM46.55,11.67c-.73,0-1.33.6-1.33,1.33s.6,1.33,1.33,1.33,1.33-.6,1.33-1.33-.6-1.33-1.33-1.33ZM46.55,17.3c-.73,0-1.33.6-1.33,1.33s.6,1.33,1.33,1.33,1.33-.6,1.33-1.33-.6-1.33-1.33-1.33ZM89.86,9.07c-.73,0-1.33.6-1.33,1.33s.6,1.33,1.33,1.33,1.33-.6,1.33-1.33-.6-1.33-1.33-1.33Z"/>
      <path class="cls-1" d="M1.98,28.87c.11-.59.24-1.56,2.95-1.56s3.41,1.13,3.41,1.13c0,0,1.75-1.24,3.28-1.24,3.65,0,3.28,3.06,3.28,3.06l-.75,6.71h-1.93s.62-5.61.7-6.69-1.21-.94-1.21-.94h-2.39l-.75,7.68h-2.07s.62-5,.78-6.28-.62-1.56-.62-1.56h-2.63l-1.02,7.9H.94s.94-7.63,1.05-8.22ZM22.13,33.09h-3.01c0,1.34.21,2.47,1.75,2.47s2.15-.62,2.15-.62l.91,1.48s-1.42.99-3.09.99-3.68-.32-3.68-4.11c0-5.13,3.33-5.96,4.4-5.96s3.44.05,3.44,2.87-2.87,2.87-2.87,2.87ZM23.15,30.32c0-.94-.46-1.35-1.42-1.35s-2.16.75-2.42,2.74h2.18s1.67.13,1.67-1.4ZM52.49,33.09h-3.01c0,1.34.21,2.47,1.75,2.47s2.15-.62,2.15-.62l.91,1.48s-1.42.99-3.09.99-3.68-.32-3.68-4.11c0-5.13,3.33-5.96,4.4-5.96s3.44.05,3.44,2.87-2.87,2.87-2.87,2.87ZM53.51,30.32c0-.94-.46-1.35-1.42-1.35s-2.16.75-2.42,2.74h2.18s1.67.13,1.67-1.4ZM35.85,23.66l-1.7,12.46s-.86,1.32-3.58,1.32-3.87-1.16-3.87-3.89,1-6.28,4.91-6.28c.97,0,1.59.3,1.59.3l.61-3.92h2.04ZM32.9,29.37s-.14-.18-1.2-.18c-1.99,0-3.08,1.81-3.08,3.85s.82,2.6,1.93,2.6,1.63-.29,1.63-.29l.72-5.98ZM39.07,37.1l.98-7.83h2.1s1.22-.1,1.22,1.48-.79,6.37-.79,6.37h2.2l.69-6.4s.93-3.51-3.92-3.51c-2.6,0-3.39.67-3.63,1.79s-1.07,8.07-1.07,8.07c0,0,2.26-.01,2.22.02ZM58.01,27.52c-.85,0-.85.7-.85.7l-.17,1.07h1.46s-.56,3.04-.75,5.15c-.19,2.11.17,2.96,2.16,2.96s2.21-.34,2.21-.34v-1.75s-.19.22-1.43.22-.92-.73-.92-.73l.63-5.56h2.21l.34-1.63-2.21-.05.32-3.13s-.49.17-1.19.41-.68,1.07-.68,1.07l-.27,1.7s0-.1-.85-.1Z"/>
      <text class="cls-3" transform="translate(0 44.11)"><tspan x="0" y="0">The preferred choice for healthcare solutions</tspan></text>
    </g>
  </g>
</svg>