<?xml version="1.0" encoding="UTF-8"?>
<svg id="Layer_2" data-name="Layer 2" xmlns="http://www.w3.org/2000/svg" xmlns:xlink="http://www.w3.org/1999/xlink" viewBox="0 0 93.69 43.35">
  <defs>
    <style>
      .cls-1 {
        fill: url(#linear-gradient-2);
      }

      .cls-2 {
        letter-spacing: -.03em;
      }

      .cls-3 {
        fill: url(#linear-gradient-3);
      }

      .cls-4 {
        letter-spacing: 0em;
      }

      .cls-5 {
        letter-spacing: -.02em;
      }

      .cls-6 {
        fill: #26235e;
        font-family: Lato-Bold, Lato;
        font-size: 6.31px;
        font-weight: 700;
      }

      .cls-7 {
        letter-spacing: 0em;
      }

      .cls-8 {
        letter-spacing: 0em;
      }

      .cls-9 {
        fill: url(#linear-gradient);
      }
    </style>
    <linearGradient id="linear-gradient" x1=".02" y1="16.09" x2="29.98" y2="16.09" gradientUnits="userSpaceOnUse">
      <stop offset="0" stop-color="#283555"/>
      <stop offset="1" stop-color="#1968ab"/>
    </linearGradient>
    <linearGradient id="linear-gradient-2" x1="34.51" y1="5.83" x2="92.97" y2="5.83" gradientUnits="userSpaceOnUse">
      <stop offset="0" stop-color="#1968ab"/>
      <stop offset="1" stop-color="#20c4f4"/>
    </linearGradient>
    <linearGradient id="linear-gradient-3" x1="34.24" y1="24.35" x2="93.24" y2="24.35" xlink:href="#linear-gradient-2"/>
  </defs>
  <g id="Layer_1-2" data-name="Layer 1">
    <g>
      <path class="cls-9" d="M11.9,6.27l2.09-3.26S12.49,0,7.2,0,.02,4.5.02,7.77v24.41h4.31V15.01s.98.39,3.85.39,5.55-1.44,7.57-4.5c2.02-3.07,3.59-6.72,6.72-6.72s3.59,1.5,3.59,3.72-1.83,5.22-4.7,7.64-6.53,5.35-6.53,5.35l-4.5-4.24s-1.31.26-2.42.26-2.61-.26-2.61-.26l9.27,8.68,11.36-8.88v15.67h4.05V6.59S29.52.07,22.54.07s-8.29,5.61-9.6,7.77-2.09,3.66-5.16,3.66-3.85-2.15-3.85-3.79,1.17-3.59,3.75-3.59c2.95,0,4.22,2.15,4.22,2.15Z"/>
      <path class="cls-1" d="M37.13,1.71c-.88,0-1.28.67-1.28,1.23s.27,1.29,1.32,1.29,1.32-.51,1.76-1.25.89-2.65,3.28-2.65,2.54,2.23,2.54,2.23v8.72h-1.38v-5.35l-3.88,3.03-3.17-2.97s.51.09.89.09.83-.09.83-.09l1.54,1.45s1.25-1,2.23-1.83,1.61-1.85,1.61-2.61-.16-1.27-1.23-1.27-1.61,1.25-2.3,2.3-1.61,1.54-2.59,1.54-1.32-.13-1.32-.13v5.87h-1.47V2.96c0-1.12.65-2.65,2.45-2.65s2.32,1.03,2.32,1.03l-.71,1.12s-.43-.74-1.44-.74ZM53.3,7.73c.17,0,.29-.05.35-.15.06-.1.09-.29.09-.57,0-.55-.08-1.05-.25-1.48-.17-.43-.4-.8-.7-1.09-.3-.3-.66-.52-1.07-.68-.42-.15-.87-.23-1.36-.23-.58,0-1.11.1-1.57.3-.46.2-.86.47-1.18.81-.32.34-.57.74-.74,1.21-.17.46-.26.96-.26,1.48,0,.67.1,1.27.3,1.78.2.51.47.94.81,1.29.35.35.75.61,1.22.79s.97.27,1.52.27c.27,0,.56-.02.85-.06s.58-.11.86-.21.55-.23.81-.39.49-.36.7-.6l-.54-.67c-.08-.11-.19-.17-.35-.17-.12,0-.24.03-.36.1s-.27.15-.43.23c-.17.08-.36.16-.58.23s-.48.1-.79.1-.58-.05-.83-.14c-.25-.09-.47-.23-.65-.42-.18-.19-.33-.42-.44-.71-.11-.29-.18-.63-.21-1.02h4.83ZM48.51,6.61c.09-.56.29-.99.6-1.3.31-.3.74-.46,1.28-.46.28,0,.52.05.73.14.21.09.38.22.52.38.14.16.24.35.31.56.07.21.1.44.1.68h-3.55ZM60.1.2v4.05c-.24-.23-.52-.41-.83-.55-.31-.13-.68-.2-1.12-.2-.51,0-.97.1-1.39.3-.41.2-.76.48-1.06.84-.29.36-.52.78-.68,1.27-.16.49-.24,1.02-.24,1.59,0,.63.07,1.19.21,1.68.14.49.34.9.59,1.23s.56.59.92.76c.36.17.75.26,1.17.26.54,0,1.02-.11,1.43-.33.41-.22.77-.51,1.09-.86l.16.74c.07.22.22.34.47.34h1.15V.2h-1.88ZM60.1,9.06c-.24.29-.5.52-.78.68-.27.16-.61.24-1,.24-.24,0-.46-.04-.66-.13-.2-.09-.37-.23-.5-.43-.14-.2-.24-.45-.32-.76-.07-.31-.11-.69-.11-1.14s.04-.83.13-1.16.21-.6.37-.81c.16-.21.36-.37.59-.48.23-.1.48-.16.77-.16s.56.05.81.16.48.28.7.54v3.45ZM70.52,1.52c-.39-.36-.85-.64-1.4-.84-.55-.2-1.15-.3-1.8-.3-.58,0-1.09.09-1.54.26-.45.17-.82.41-1.13.7-.3.29-.54.62-.7,1s-.24.76-.24,1.15c0,.49.07.91.22,1.25.14.34.34.62.57.84s.51.41.81.55c.3.14.61.26.93.36.31.1.62.19.93.28.3.08.58.19.81.31.24.12.43.27.57.45.14.18.22.41.22.7,0,.51-.16.9-.48,1.17s-.77.41-1.36.41c-.38,0-.71-.05-.98-.15-.27-.1-.51-.22-.71-.34s-.38-.24-.53-.34c-.15-.1-.28-.15-.41-.15-.09,0-.18.02-.26.07-.08.05-.15.11-.2.18l-.6.97c.21.21.46.41.73.58.27.17.57.32.88.45.31.12.64.22.98.29.34.07.69.1,1.04.1.61,0,1.15-.09,1.62-.27.47-.18.87-.43,1.2-.75.33-.32.58-.69.75-1.12.17-.43.25-.89.25-1.37,0-.45-.07-.83-.22-1.15-.14-.31-.34-.58-.57-.8-.24-.22-.51-.4-.81-.54s-.62-.27-.94-.37c-.32-.11-.63-.21-.94-.3s-.58-.2-.81-.32c-.24-.12-.43-.26-.57-.43s-.22-.38-.22-.64c0-.2.04-.38.11-.55.07-.17.18-.31.32-.43.14-.12.32-.21.54-.28s.46-.1.75-.1c.31,0,.59.04.82.12s.43.16.61.26c.17.1.32.18.45.26.12.08.24.12.35.12s.19-.02.25-.07c.07-.05.13-.12.19-.23l.51-.95ZM76.96,3.65v5.56c-.25.25-.52.45-.81.59-.28.14-.59.21-.91.21-.44,0-.77-.13-.99-.39-.22-.26-.33-.62-.33-1.09V3.65h-1.88v4.88c0,.43.06.82.17,1.18.11.36.28.67.51.93.22.26.5.46.83.6.33.14.7.21,1.13.21.52,0,.98-.1,1.36-.3.39-.2.74-.46,1.06-.78l.13.61c.07.22.22.34.47.34h1.15V3.65h-1.88ZM82.4,4.12c-.03-.17-.08-.3-.15-.36-.08-.07-.21-.1-.4-.1h-1.1v7.69h1.88v-4.74c.09-.2.18-.39.28-.55s.21-.3.34-.41c.13-.11.28-.2.44-.26.16-.06.35-.09.56-.09.14,0,.29.01.44.04.15.03.26.04.34.04.08,0,.15-.02.19-.06s.08-.1.11-.19l.12-1.39c-.22-.15-.51-.23-.87-.23-.46,0-.85.13-1.19.39s-.62.62-.87,1.08l-.11-.87ZM92.53,7.73c.17,0,.29-.05.35-.15s.09-.29.09-.57c0-.55-.08-1.05-.25-1.48-.17-.43-.4-.8-.7-1.09s-.66-.52-1.07-.68c-.42-.15-.87-.23-1.36-.23-.58,0-1.11.1-1.57.3-.46.2-.86.47-1.18.81-.32.34-.57.74-.74,1.21-.17.46-.26.96-.26,1.48,0,.67.1,1.27.3,1.78.2.51.47.94.81,1.29s.75.61,1.22.79c.47.18.97.27,1.52.27.27,0,.56-.02.85-.06s.58-.11.86-.21c.28-.1.55-.23.81-.39.26-.16.49-.36.7-.6l-.54-.67c-.08-.11-.19-.17-.35-.17-.12,0-.24.03-.36.1-.12.07-.27.15-.43.23-.17.08-.36.16-.58.23-.22.07-.48.1-.79.1s-.58-.05-.83-.14c-.25-.09-.47-.23-.65-.42-.18-.19-.33-.42-.44-.71-.11-.29-.18-.63-.21-1.02h4.83ZM87.73,6.61c.09-.56.29-.99.6-1.3.31-.3.74-.46,1.28-.46.28,0,.52.05.73.14.21.09.38.22.52.38.14.16.24.35.31.56.07.21.1.44.1.68h-3.55Z"/>
      <path class="cls-3" d="M88.11,24.29s.55,1.01,1.74,1.01,1.88-.6,1.88-1.79-.69-1.6-1.65-1.6-1.65.6-3.67,2.89c-2.02,2.29-2.62,2.02-3.34,2.02s-.61,0-.61,0c0,0-1.01.02-1.59-.42s-1.05-1.29-1.05-1.29c0,0-.31,1.66-1.64,1.66h-2.89s-.66.07-.94-.24-.51-.51-.51-.51c0,0,.05.75-.63.75h-6.23v-1.21h5.95s.37-1.19-.86-2.55-2.24-2.1-2.24-2.1l1.1-1.14s1.84,1.42,2.8,2.64,1.03,3.03,1.03,3.03v.09h2.75s1.36.1,1.36-1.68v-3.64h1.56v3.87s.96,1.57,2.17,1.57,1.38-.24,2.12-.94,2.38-2.52,3.25-3.5,1.59-1,2.01-1,3.25-.09,3.25,3.17-2.47,3.31-3.1,3.31-1.24-.1-1.94-.47-.98-.98-.98-.98l.89-.93ZM65.74,19.94v5.56s.02,1.26-2.76,1.26-2.84-1.66-2.85-1.81c0,.15.05,1.79-2.59,1.79-1.84,0-2.4-1.38-2.4-1.38,0,0,.14,1.43-1.24,1.43h-6.02s-1.38,1.59-3.43,3.22c-2.05,1.63-3.48,2.45-3.48,2.45v-2.17s1.42-.63,2.69-1.75c1.28-1.12,1.91-1.94,1.91-1.94,0,0-3.01-.07-3.01-3.15s2.38-3.34,3.38-3.34,3.59.03,3.59,2.76c0,.98-.65,2.61-.65,2.61h4.02s.96.14.96-.54v-4.23h1.75v2.99s.54,1.82,1.63,1.82h.89s.59.26.59-1.31v-3.45h1.63v3.17s.68,1.64,2.03,1.64h.94s.65-.07.65-1.01c0-1.35,0-4.67,0-4.62h1.77ZM46.13,21.79c-1.82,0-1.84.87-1.84,1.56s.1,1.64,1.63,1.64,1.73-.45,1.92-1.47c.2-1.05.1-1.73-1.71-1.73ZM39.52,25.2c0,1.31-.72,1.82-.72,1.82l-4.57,3.67v2.01s2.31-1.87,4.5-3.5,2.03-2.78,2.03-2.78v-6.24h-1.33s.09,3.04.09,5.02ZM76.56,27.83h-1.27v1.19h1.27v-1.19ZM78.9,27.85h-1.27v1.19h1.27v-1.19ZM59.72,17.86h-1.27v1.19h1.27v-1.19ZM61.64,17.86h-1.27v1.19h1.27v-1.19ZM60.67,15.99h-1.27v1.19h1.27v-1.19Z"/>
      <text class="cls-6" transform="translate(0 41.55)"><tspan class="cls-7" x="0" y="0">F</tspan><tspan class="cls-4" x="3.55" y="0">OR MEDICA</tspan><tspan class="cls-2" x="39.23" y="0">L</tspan><tspan class="cls-8" x="42.34" y="0" xml:space="preserve"> SE</tspan><tspan class="cls-5" x="51.02" y="0">R</tspan><tspan class="cls-8" x="54.95" y="0">VICES (S.A.E.)</tspan></text>
    </g>
  </g>
</svg>