<?xml version="1.0" encoding="UTF-8"?>
<svg id="Layer_2" data-name="Layer 2" xmlns="http://www.w3.org/2000/svg" viewBox="0 0 86.98 33.06">
  <defs>
    <style>
      .cls-1 {
        fill: #1268b3;
      }

      .cls-2 {
        fill: #93c1e7;
      }

      .cls-3 {
        fill: #8ec640;
        stroke: #f9ed32;
        stroke-width: .5px;
      }

      .cls-3, .cls-4 {
        stroke-miterlimit: 10;
      }

      .cls-4 {
        fill: none;
        stroke: #1268b3;
        stroke-width: 1.5px;
      }
    </style>
  </defs>
  <g id="Layer_1-2" data-name="Layer 1">
    <g>
      <path class="cls-3" d="M30.17,17.32c-.31,6.85-5.96,12.31-12.89,12.31s-12.59-5.47-12.89-12.33h6.96l1.79,7.67,1.56-7.76h1.54l.41-3.29,2.27,14.81,2.16-11.39h9.08Z"/>
      <path class="cls-2" d="M4.5,16.12c.27-6.89,5.83-12.29,12.78-12.29s12.57,5.45,12.88,12.29h-9.88l-1.21,7.63-2.59-16.55-1.1,8.83h-1.58l-.71,4.19-1.15-4.19-7.44.08Z"/>
      <path class="cls-4" d="M1.62,12.68S4.37.75,17.62.75c9.3,0,13.32,6.48,14.89,10.94.91,2.58.79,4.32.79,4.32"/>
      <circle class="cls-1" cx="1.74" cy="13.15" r="1.74"/>
      <path class="cls-4" d="M32.75,20.38s-2.76,11.93-16,11.93c-9.3,0-13.32-6.48-14.89-10.94-.91-2.58-.79-4.32-.79-4.32"/>
      <circle class="cls-1" cx="32.63" cy="19.91" r="1.74"/>
      <g>
        <path class="cls-2" d="M39.28,24.57v1.65h1.91v-1.65h.52v3.95h-.52v-1.85h-1.91v1.85h-.51v-3.95h.51Z"/>
        <path class="cls-2" d="M42.86,27.2c.01.7.46.98.97.98.37,0,.59-.06.79-.15l.09.37c-.18.08-.49.18-.94.18-.87,0-1.4-.57-1.4-1.43s.5-1.53,1.33-1.53c.93,0,1.17.81,1.17,1.33,0,.11-.01.19-.02.24h-1.99ZM44.37,26.83c0-.33-.13-.84-.72-.84-.52,0-.75.48-.79.84h1.51Z"/>
        <path class="cls-2" d="M47.08,28.52l-.04-.36h-.02c-.16.22-.46.42-.87.42-.57,0-.87-.4-.87-.81,0-.69.61-1.06,1.71-1.05v-.06c0-.23-.06-.66-.64-.66-.26,0-.54.08-.74.21l-.12-.34c.23-.15.57-.25.93-.25.87,0,1.08.59,1.08,1.16v1.06c0,.25.01.49.05.68h-.47ZM47,27.07c-.56-.01-1.2.09-1.2.64,0,.33.22.49.49.49.37,0,.6-.23.69-.47.02-.05.03-.11.03-.16v-.49Z"/>
        <path class="cls-2" d="M48.33,24.36h.52v4.16h-.52v-4.16Z"/>
        <path class="cls-2" d="M50.34,24.87v.81h.74v.39h-.74v1.53c0,.35.1.55.39.55.13,0,.23-.02.3-.04l.02.39c-.1.04-.26.07-.46.07-.24,0-.43-.08-.56-.22-.15-.15-.2-.4-.2-.74v-1.55h-.44v-.39h.44v-.68l.5-.13Z"/>
        <path class="cls-2" d="M51.66,24.36h.52v1.77h.01c.08-.15.21-.28.37-.36.15-.09.33-.15.53-.15.38,0,.99.23.99,1.21v1.69h-.52v-1.63c0-.46-.17-.84-.66-.84-.33,0-.6.23-.69.52-.03.07-.04.15-.04.25v1.71h-.52v-4.16Z"/>
        <path class="cls-2" d="M56.93,28.41c-.13.07-.43.16-.81.16-.86,0-1.41-.58-1.41-1.45s.6-1.5,1.52-1.5c.3,0,.57.08.72.15l-.12.4c-.12-.07-.32-.13-.6-.13-.65,0-1,.48-1,1.07,0,.66.42,1.06.98,1.06.29,0,.49-.08.63-.14l.09.39Z"/>
        <path class="cls-2" d="M59.11,28.52l-.04-.36h-.02c-.16.22-.46.42-.87.42-.57,0-.87-.4-.87-.81,0-.69.61-1.06,1.71-1.05v-.06c0-.23-.06-.66-.64-.66-.26,0-.54.08-.74.21l-.12-.34c.23-.15.57-.25.93-.25.87,0,1.08.59,1.08,1.16v1.06c0,.25.01.49.05.68h-.47ZM59.03,27.07c-.56-.01-1.2.09-1.2.64,0,.33.22.49.49.49.37,0,.6-.23.69-.47.02-.05.03-.11.03-.16v-.49Z"/>
        <path class="cls-2" d="M60.36,26.57c0-.33,0-.62-.02-.88h.45l.02.56h.02c.13-.38.44-.62.79-.62.06,0,.1,0,.15.02v.49c-.05-.01-.11-.02-.18-.02-.36,0-.62.28-.69.66-.01.07-.02.15-.02.24v1.51h-.51v-1.95Z"/>
        <path class="cls-2" d="M62.51,27.2c.01.7.46.98.97.98.37,0,.59-.06.79-.15l.09.37c-.18.08-.49.18-.94.18-.87,0-1.4-.57-1.4-1.43s.5-1.53,1.33-1.53c.93,0,1.17.81,1.17,1.33,0,.11-.01.19-.02.24h-1.99ZM64.02,26.83c0-.33-.13-.84-.72-.84-.52,0-.75.48-.79.84h1.51Z"/>
        <path class="cls-2" d="M66.42,28.52v-3.95h.56l1.27,2c.29.46.52.88.71,1.28h.01c-.05-.53-.06-1.01-.06-1.63v-1.65h.48v3.95h-.52l-1.25-2c-.28-.44-.54-.89-.74-1.32h-.02c.03.5.04.98.04,1.63v1.69h-.48Z"/>
        <path class="cls-2" d="M70.54,27.2c.01.7.46.98.97.98.37,0,.59-.06.79-.15l.09.37c-.18.08-.49.18-.94.18-.87,0-1.4-.57-1.4-1.43s.5-1.53,1.33-1.53c.93,0,1.17.81,1.17,1.33,0,.11-.01.19-.02.24h-1.99ZM72.06,26.83c0-.33-.13-.84-.72-.84-.52,0-.75.48-.79.84h1.51Z"/>
        <path class="cls-2" d="M73.81,24.87v.81h.74v.39h-.74v1.53c0,.35.1.55.39.55.13,0,.23-.02.3-.04l.02.39c-.1.04-.26.07-.46.07-.24,0-.43-.08-.56-.22-.15-.15-.2-.4-.2-.74v-1.55h-.44v-.39h.44v-.68l.5-.13Z"/>
        <path class="cls-2" d="M75.39,25.69l.38,1.44c.08.32.16.61.21.9h.02c.06-.29.16-.59.25-.9l.46-1.45h.43l.44,1.42c.11.34.19.64.25.93h.02c.05-.29.12-.59.22-.92l.4-1.42h.51l-.91,2.83h-.47l-.43-1.35c-.1-.32-.18-.6-.25-.93h-.01c-.07.34-.16.63-.26.94l-.46,1.35h-.47l-.86-2.83h.53Z"/>
        <path class="cls-2" d="M82.01,27.08c0,1.05-.73,1.5-1.41,1.5-.77,0-1.36-.56-1.36-1.46,0-.95.62-1.5,1.41-1.5s1.37.59,1.37,1.46ZM79.76,27.11c0,.62.36,1.09.86,1.09s.86-.46.86-1.1c0-.48-.24-1.09-.85-1.09s-.87.56-.87,1.1Z"/>
        <path class="cls-2" d="M82.66,26.57c0-.33,0-.62-.02-.88h.45l.02.56h.02c.13-.38.44-.62.79-.62.06,0,.1,0,.15.02v.49c-.05-.01-.11-.02-.18-.02-.36,0-.62.28-.69.66-.01.07-.02.15-.02.24v1.51h-.51v-1.95Z"/>
        <path class="cls-2" d="M85.11,26.99h.01c.07-.1.17-.22.25-.32l.83-.98h.62l-1.1,1.17,1.25,1.67h-.63l-.98-1.36-.26.29v1.07h-.51v-4.16h.51v2.62Z"/>
      </g>
      <path class="cls-1" d="M38.66,16.09V4.92h5.23l3.86,11.17h-3.41l-2.28-6.25v6.25s-3.46.05-3.41,0Z"/>
      <path class="cls-1" d="M57.13,16.09V4.92h-5.23s-3.86,11.17-3.86,11.17h3.41s2.28-6.25,2.28-6.25v6.25s3.46.05,3.41,0Z"/>
      <rect class="cls-1" x="38.66" y="17.17" width="3.48" height="4.46"/>
      <rect class="cls-1" x="53.62" y="17.17" width="3.48" height="4.46"/>
      <rect class="cls-1" x="59.94" y="17.17" width="3.48" height="4.46"/>
      <rect class="cls-1" x="59.94" y="9.34" width="3.48" height="6.74"/>
      <rect class="cls-1" x="59.94" y="4.74" width="3.48" height="2.84"/>
      <polygon class="cls-1" points="44.73 17.17 50.93 17.17 49.25 21.79 46.31 21.79 44.73 17.17"/>
      <path class="cls-1" d="M79.03,9.48h3.1v2.5s.71-1.71,2.07-2.42,2.69-.16,2.69-.16v2.83h-1.9s-.79-.24-1.79.98-.84,2.88-.84,2.88h-3.37l.05-6.6Z"/>
      <rect class="cls-1" x="79.06" y="17.23" width="3.29" height="4.46"/>
      <path class="cls-1" d="M76.67,12.99s.3-3.83-5.68-3.83c-4.51,0-5.11,2.69-5.11,3.75,0,2.36,2.85,3.18,2.85,3.18h7.8s-.19-1.22-4.92-2.07c-2.04-.36-2.62-.95-2.62-1.5-.01-1.14,1.32-1.38,2.11-1.38,2.39,0,2.36,1.85,2.36,1.85h3.21Z"/>
      <path class="cls-1" d="M73.03,17.28h3.86v.87s.03,3.89-5.38,3.89c-6.6,0-5.87-4.4-5.87-4.4h3.15s-.24,2.15,2.47,2.15,2.47-1.44,1.77-2.5Z"/>
    </g>
  </g>
</svg>