<?xml version="1.0" encoding="UTF-8"?>
<svg id="Layer_2" data-name="Layer 2" xmlns="http://www.w3.org/2000/svg" viewBox="0 0 95.24 29.77">
  <defs>
    <style>
      .cls-1 {
        fill: #1b886d;
        font-family: Arial-BoldItalicMT, Arial;
        font-size: 12.61px;
        font-style: italic;
        font-weight: 700;
      }

      .cls-2 {
        fill: #818385;
      }
    </style>
  </defs>
  <g id="Layer_1-2" data-name="Layer 1">
    <g>
      <text class="cls-1" transform="translate(49.85 17.05) scale(1.11 1)"><tspan x="0" y="0">CARE</tspan></text>
      <g>
        <rect class="cls-2" x=".17" y="18.67" width="89.73" height="2.41"/>
        <polygon class="cls-2" points="0 17.01 0 2.09 5.17 2.09 11.83 12.57 11.83 2.05 25.69 2.05 25.69 4.67 14.85 4.67 14.85 16.97 10.55 16.97 3.28 5.33 3.28 16.86 3.28 17.01 0 17.01"/>
        <rect class="cls-2" x="16.67" y="8.05" width="9.06" height="2.59"/>
        <rect class="cls-2" x="16.67" y="14.38" width="9.06" height="2.59"/>
        <path class="cls-2" d="M27.55,2.14h3.82l3.36,4.51,1.81-2.47h7.02V1.88h2.33v2.33h44.03v2.13h-44.19v7.7s.28.91,1.23.91.95-.11.95-.11v2.11h-1.9s-2.44-.13-2.44-2.65v-7.94h-5.2l-2.05,2.59,6.4,8.11h-3.64l-4.57-5.87-4.42,5.78h-3.64l6.53-7.91-5.44-6.92Z"/>
        <g>
          <path class="cls-2" d="M1.9,26.37l-.37-1.61c-.06-.28-.14-.47-.23-.57-.07-.08-.19-.13-.37-.17l.04-.12h2.12l-.04.12c-.21,0-.36.04-.45.13-.09.08-.14.18-.14.3,0,.07.02.2.06.38l.29,1.31.71-.98c.18-.25.3-.43.34-.53.05-.1.07-.19.07-.27s-.03-.15-.09-.21-.15-.1-.28-.11l.04-.12h1.33v.12c-.12.01-.22.05-.31.12-.09.07-.26.27-.51.62l-1.26,1.73-.29,1.02c-.06.21-.09.33-.09.37,0,.09.04.17.11.23.07.06.19.09.36.09h.12l-.04.12H.75l.03-.12c.16,0,.3-.02.4-.07.1-.05.18-.11.23-.18.03-.05.09-.19.15-.42l.34-1.17Z"/>
          <path class="cls-2" d="M5.67,25.3c.17,0,.33.04.48.12.15.08.27.19.34.33.08.14.12.3.12.47,0,.35-.1.7-.3,1.06s-.46.63-.78.83c-.32.2-.65.3-.97.3-.3,0-.52-.09-.69-.26-.16-.18-.24-.39-.24-.65,0-.3.06-.59.18-.85s.27-.5.46-.69c.19-.2.4-.36.64-.48.24-.12.49-.18.75-.18ZM5.53,25.48c-.12,0-.21.03-.29.1-.15.14-.32.46-.52.96s-.29.96-.29,1.36c0,.1.03.18.09.25.06.07.13.1.21.1s.16-.03.23-.08c.1-.08.21-.25.35-.53.14-.27.25-.57.34-.9s.13-.63.13-.91c0-.11-.03-.2-.08-.26s-.12-.09-.19-.09Z"/>
          <path class="cls-2" d="M8.58,25.3l-.63,2.22c-.03.1-.05.17-.05.21,0,.02,0,.03.02.05.02.02.04.03.06.03.1,0,.23-.09.4-.27.24-.26.49-.63.75-1.12l.3-1,.83-.03-.63,2.15c-.05.18-.08.29-.08.31,0,.02,0,.04.02.05.02.02.03.03.05.03.03,0,.06-.01.09-.04.08-.06.18-.19.31-.38l.11.08c-.3.55-.64.82-1,.82-.13,0-.24-.03-.32-.1-.08-.07-.12-.16-.12-.27,0-.12.03-.27.08-.45l.16-.55c-.28.41-.49.69-.62.83-.2.22-.36.36-.49.43-.13.07-.26.11-.38.11-.12,0-.21-.04-.3-.13s-.13-.19-.13-.32c0-.11.03-.26.08-.45l.37-1.3c.06-.21.09-.36.09-.43,0-.03,0-.06-.03-.09s-.05-.05-.09-.06-.11-.02-.22-.02l.03-.12,1.11-.19h.2Z"/>
          <path class="cls-2" d="M12.11,25.3l-.49,1.83c.4-.89.71-1.44.91-1.65.12-.12.25-.18.38-.18.09,0,.16.03.22.1.06.07.08.16.08.28,0,.21-.05.39-.15.53-.07.09-.14.14-.22.14-.09,0-.15-.04-.2-.12-.04-.08-.07-.13-.09-.14-.02-.01-.04-.02-.06-.02s-.04,0-.07.02c-.05.03-.11.09-.19.19s-.17.27-.29.51-.2.44-.26.6c-.06.16-.15.48-.26.94h-.79l.54-2.16c.04-.16.06-.27.06-.32,0-.06-.01-.1-.03-.14-.02-.03-.05-.06-.08-.07-.04-.02-.11-.02-.22-.02l.03-.09.98-.22h.2Z"/>
          <path class="cls-2" d="M16.78,25.94h1.62l.36-1.24c.05-.17.07-.3.07-.39s-.03-.15-.09-.2-.2-.08-.42-.09l.04-.12h2.2l-.04.12c-.22,0-.38.05-.49.14-.11.09-.21.27-.28.54l-.82,2.83c-.05.18-.08.32-.08.4s.03.14.09.18c.08.06.21.09.41.09l-.03.12h-2.16l.05-.12c.21,0,.36-.04.46-.12.1-.08.19-.27.27-.55l.38-1.32h-1.61l-.38,1.32c-.05.18-.08.31-.08.4,0,.08.03.14.1.19.07.05.2.08.39.08l-.03.12h-2.13l.04-.12c.21,0,.36-.04.46-.12s.19-.27.27-.55l.82-2.83c.05-.16.07-.29.07-.38s-.03-.16-.09-.2c-.06-.05-.2-.08-.41-.09l.04-.12h2.16l-.05.12c-.2,0-.35.04-.45.13-.1.09-.2.27-.28.55l-.37,1.24Z"/>
          <path class="cls-2" d="M21.04,27.11c-.02.14-.03.26-.03.35,0,.16.05.29.14.39.09.1.22.15.38.15s.3-.04.46-.11c.15-.07.33-.2.53-.39l.1.09c-.25.3-.49.52-.73.65-.24.13-.5.19-.79.19-.36,0-.61-.09-.75-.26-.14-.17-.21-.38-.21-.6,0-.36.1-.71.31-1.07.21-.36.49-.64.85-.86.36-.22.72-.32,1.08-.32.18,0,.32.04.41.13.09.09.14.2.14.33,0,.16-.05.31-.14.46-.13.2-.29.37-.48.49s-.4.22-.64.29c-.16.04-.37.08-.64.1ZM21.06,26.94c.19-.03.34-.07.45-.12.11-.05.21-.13.31-.24s.19-.24.26-.41c.07-.16.11-.32.11-.46,0-.06-.02-.11-.05-.14-.03-.03-.08-.05-.13-.05-.1,0-.22.07-.35.22-.24.27-.44.66-.6,1.2Z"/>
          <path class="cls-2" d="M26.16,25.35l-.63,2.17-.07.26s-.01.06-.01.07c0,.03,0,.05.03.07.02.02.04.03.06.03.05,0,.11-.03.19-.1.03-.03.11-.13.23-.3l.11.06c-.15.28-.32.49-.49.62-.17.13-.36.19-.57.19-.12,0-.22-.03-.28-.1-.07-.06-.1-.15-.1-.24,0-.09.03-.24.1-.47l.08-.26c-.25.43-.5.74-.73.92-.13.1-.28.16-.43.16-.2,0-.35-.08-.43-.25-.09-.16-.13-.35-.13-.56,0-.31.09-.66.28-1.05.19-.4.43-.72.74-.96.25-.2.48-.3.7-.3.12,0,.22.04.29.11.07.07.13.2.16.39l.12-.4.77-.05ZM25.11,25.97c0-.18-.03-.3-.08-.38-.04-.06-.09-.08-.16-.08s-.14.03-.21.1c-.15.14-.3.41-.47.82-.17.41-.25.77-.25,1.07,0,.12.02.2.06.25.04.05.08.08.13.08.1,0,.2-.06.3-.17.14-.16.27-.36.39-.59.2-.41.31-.77.31-1.09Z"/>
          <path class="cls-2" d="M28.41,23.8l-1.08,3.67c-.06.22-.09.35-.09.41,0,.03,0,.05.03.07s.04.03.06.03c.04,0,.08-.02.11-.05.1-.08.22-.23.35-.43l.13.06c-.21.33-.41.57-.61.71-.14.1-.28.14-.44.14-.14,0-.26-.04-.34-.12-.09-.08-.13-.17-.13-.28,0-.08.03-.21.08-.39l.88-3.01c.05-.16.07-.27.07-.33,0-.05-.02-.09-.07-.12-.06-.04-.15-.06-.28-.06l.04-.12,1.1-.19h.2Z"/>
          <path class="cls-2" d="M30.07,24.51l-.26.89h.43l-.11.38h-.42l-.54,1.89c-.03.12-.05.21-.05.27,0,.03.01.05.03.07.02.02.04.03.07.03.04,0,.08-.02.11-.05.1-.08.22-.21.35-.4l.11.07c-.15.26-.32.45-.5.57-.18.12-.36.18-.53.18-.15,0-.26-.04-.34-.11-.08-.08-.12-.17-.12-.29,0-.13.03-.29.08-.49l.52-1.77h-.44l.07-.24c.28-.1.51-.22.7-.36s.42-.36.69-.66h.17Z"/>
          <path class="cls-2" d="M32.21,23.8l-.85,2.94c.29-.43.51-.73.64-.88.2-.22.37-.37.51-.45.14-.08.28-.12.41-.12.11,0,.21.04.29.13.08.08.12.2.12.33,0,.12-.03.26-.08.44l-.41,1.39c-.04.12-.06.2-.06.24,0,.02,0,.04.02.05.02.02.03.02.05.02.03,0,.05-.01.08-.03.07-.05.14-.14.22-.26.02-.03.05-.08.09-.14l.13.07c-.19.31-.36.52-.53.64-.17.12-.33.17-.48.17-.14,0-.24-.03-.32-.1-.08-.07-.11-.16-.11-.26,0-.1.03-.23.08-.41l.4-1.39c.03-.09.04-.16.04-.21,0-.02,0-.05-.03-.06-.02-.02-.04-.03-.06-.03-.08,0-.19.07-.32.2-.28.27-.57.69-.85,1.26l-.29.97h-.81l1.07-3.69c.04-.16.07-.27.07-.34,0-.05-.02-.1-.07-.13-.06-.04-.14-.06-.26-.05l.02-.13,1.09-.19h.2Z"/>
          <path class="cls-2" d="M37.92,23.91l.33,3.04,2.1-3.04h1.55l-.04.12c-.21,0-.38.05-.49.14-.11.09-.21.27-.28.54l-.82,2.83c-.05.18-.08.31-.08.4,0,.08.03.15.1.19.06.05.19.08.38.08l-.03.12h-2.21l.04-.12c.24,0,.41-.05.52-.14.11-.09.21-.27.29-.54l.83-2.87-2.53,3.66h-.13l-.4-3.73-.84,2.94c-.03.12-.05.22-.05.3,0,.11.04.2.11.26.08.07.2.1.38.11l-.03.12h-1.46l.03-.12c.18,0,.31-.04.4-.11.16-.12.28-.31.36-.56l.96-3.27c-.09-.1-.17-.17-.25-.2s-.2-.05-.37-.05l.04-.12h1.58Z"/>
          <path class="cls-2" d="M44.53,25.35l-.63,2.17-.07.26s-.01.06-.01.07c0,.03,0,.05.03.07.02.02.04.03.06.03.05,0,.11-.03.19-.1.03-.03.11-.13.23-.3l.11.06c-.15.28-.32.49-.49.62-.17.13-.36.19-.57.19-.12,0-.22-.03-.28-.1-.07-.06-.1-.15-.1-.24,0-.09.03-.24.1-.47l.08-.26c-.25.43-.5.74-.73.92-.13.1-.28.16-.43.16-.2,0-.35-.08-.43-.25-.09-.16-.13-.35-.13-.56,0-.31.09-.66.28-1.05.19-.4.43-.72.74-.96.25-.2.48-.3.7-.3.12,0,.22.04.29.11.07.07.13.2.16.39l.12-.4.77-.05ZM43.49,25.97c0-.18-.03-.3-.08-.38-.04-.06-.09-.08-.16-.08s-.14.03-.21.1c-.15.14-.3.41-.47.82-.17.41-.25.77-.25,1.07,0,.12.02.2.06.25.04.05.08.08.13.08.1,0,.2-.06.3-.17.14-.16.27-.36.39-.59.2-.41.31-.77.31-1.09Z"/>
          <path class="cls-2" d="M46.46,25.3l-.4,1.4c.27-.41.48-.69.61-.84.2-.22.37-.37.51-.44s.28-.12.4-.12c.11,0,.21.04.29.13.08.08.12.19.12.33,0,.12-.03.27-.08.44l-.42,1.39c-.03.12-.05.2-.05.24,0,.02,0,.04.02.06s.03.03.05.03c.02,0,.04,0,.07-.03.08-.06.15-.15.23-.27.02-.03.05-.08.09-.14l.12.08c-.32.54-.66.81-1.01.81-.13,0-.24-.03-.32-.1-.08-.07-.11-.16-.11-.26,0-.09.03-.23.08-.41l.41-1.39c.03-.09.04-.16.04-.2,0-.02-.01-.05-.03-.06-.02-.02-.04-.03-.07-.03-.08,0-.18.06-.3.17-.3.29-.59.71-.87,1.28l-.27.97h-.83l.61-2.09c.06-.21.09-.35.09-.44,0-.04,0-.07-.03-.09s-.05-.05-.08-.06c-.04-.01-.11-.02-.22-.02l.04-.12,1.1-.19h.2Z"/>
          <path class="cls-2" d="M51.59,25.35l-.63,2.17-.07.26s-.01.06-.01.07c0,.03,0,.05.03.07.02.02.04.03.06.03.05,0,.11-.03.19-.1.03-.03.11-.13.23-.3l.11.06c-.15.28-.32.49-.49.62-.17.13-.36.19-.57.19-.12,0-.22-.03-.28-.1-.07-.06-.1-.15-.1-.24,0-.09.03-.24.1-.47l.08-.26c-.25.43-.5.74-.73.92-.13.1-.28.16-.43.16-.2,0-.35-.08-.43-.25-.09-.16-.13-.35-.13-.56,0-.31.09-.66.28-1.05.19-.4.43-.72.74-.96.25-.2.48-.3.7-.3.12,0,.22.04.29.11.07.07.13.2.16.39l.12-.4.77-.05ZM50.55,25.97c0-.18-.03-.3-.08-.38-.04-.06-.09-.08-.16-.08s-.14.03-.21.1c-.15.14-.3.41-.47.82-.17.41-.25.77-.25,1.07,0,.12.02.2.06.25.04.05.08.08.13.08.1,0,.2-.06.3-.17.14-.16.27-.36.39-.59.2-.41.31-.77.31-1.09Z"/>
          <path class="cls-2" d="M54.31,25.5h.87l-.1.36h-.45c.07.13.1.25.1.37,0,.2-.05.38-.16.55s-.27.3-.48.4c-.21.1-.44.15-.7.15-.07,0-.14,0-.22-.01-.08-.01-.17-.02-.27-.04-.14.07-.23.13-.27.18-.03.03-.04.06-.04.09,0,.04.02.07.05.1.06.05.14.09.25.11.44.1.74.17.88.23.19.08.34.18.44.31.1.13.15.28.15.46,0,.27-.13.51-.38.71-.25.2-.64.31-1.16.31s-.92-.09-1.17-.26c-.18-.13-.27-.28-.27-.45,0-.13.06-.26.18-.37.12-.11.37-.21.76-.3-.13-.07-.22-.14-.27-.2-.06-.08-.09-.17-.09-.26,0-.15.06-.27.17-.39.12-.11.31-.22.59-.33-.21-.08-.37-.19-.46-.33s-.14-.29-.14-.47c0-.19.06-.37.17-.54.11-.17.28-.31.51-.42.22-.11.48-.16.77-.16.18,0,.35.02.49.06.07.02.16.07.26.14ZM52.51,28.47c-.21.08-.35.17-.42.26-.08.09-.11.2-.11.3,0,.14.07.27.22.38s.39.17.71.17c.27,0,.47-.05.59-.15.12-.1.18-.21.18-.35,0-.12-.06-.21-.17-.29s-.33-.15-.64-.23c-.15-.04-.27-.07-.36-.1ZM53.63,25.46c-.11,0-.2.03-.27.1-.12.11-.22.29-.31.54-.09.25-.13.49-.13.71,0,.11.03.19.09.25.06.06.14.09.23.09s.17-.03.23-.09c.12-.12.23-.31.32-.57.09-.26.14-.5.14-.71,0-.1-.03-.17-.09-.23-.06-.06-.13-.09-.21-.09Z"/>
          <path class="cls-2" d="M56.12,27.11c-.02.14-.03.26-.03.35,0,.16.05.29.14.39.09.1.22.15.38.15s.3-.04.46-.11c.15-.07.33-.2.53-.39l.1.09c-.25.3-.49.52-.73.65-.24.13-.5.19-.79.19-.36,0-.61-.09-.75-.26-.14-.17-.21-.38-.21-.6,0-.36.1-.71.31-1.07.21-.36.49-.64.85-.86.36-.22.72-.32,1.08-.32.18,0,.32.04.41.13.09.09.14.2.14.33,0,.16-.05.31-.14.46-.13.2-.29.37-.48.49s-.4.22-.64.29c-.16.04-.37.08-.64.1ZM56.15,26.94c.19-.03.34-.07.45-.12.11-.05.21-.13.31-.24s.19-.24.26-.41c.07-.16.11-.32.11-.46,0-.06-.02-.11-.05-.14-.03-.03-.08-.05-.13-.05-.1,0-.22.07-.35.22-.24.27-.44.66-.6,1.2Z"/>
          <path class="cls-2" d="M61.68,23.8l-1.06,3.65c-.07.23-.1.37-.1.41,0,.02,0,.05.03.06.02.02.04.03.06.03.04,0,.08-.02.13-.06.08-.06.18-.18.29-.35l.12.06c-.31.54-.64.8-1.01.8-.13,0-.23-.03-.3-.1-.07-.07-.11-.16-.11-.26s.03-.25.08-.44l.1-.33c-.27.48-.51.8-.71.96-.15.12-.3.18-.44.18-.16,0-.3-.07-.41-.2s-.17-.33-.17-.58c0-.32.07-.64.22-.96s.31-.58.5-.79c.19-.21.37-.36.54-.45.17-.09.34-.14.5-.14.08,0,.16.02.23.05s.14.1.23.2l.24-.81c.06-.2.09-.34.09-.43,0-.05-.02-.1-.06-.13-.04-.04-.09-.06-.16-.06-.03,0-.07,0-.11.01l.03-.13,1.07-.2h.2ZM60.25,25.87c0-.13-.03-.23-.08-.29-.05-.06-.11-.09-.18-.09s-.14.04-.22.11c-.15.14-.32.42-.48.84s-.25.77-.25,1.06c0,.1.02.18.06.23.04.05.08.08.12.08.08,0,.15-.03.23-.1.18-.16.37-.45.55-.85.18-.4.27-.73.27-.98Z"/>
          <path class="cls-2" d="M65.92,25.3l.24,2.29c.33-.32.54-.58.64-.77.1-.19.15-.35.15-.47,0-.05-.01-.1-.03-.14s-.07-.12-.13-.2-.1-.14-.11-.16c-.02-.04-.02-.09-.02-.15,0-.11.04-.21.11-.28s.17-.12.29-.12.21.04.27.12c.1.11.14.24.14.39,0,.24-.12.56-.35.95-.23.39-.76.94-1.58,1.66h-.13l-.2-2-1.41,2h-.14c.03-.6.05-1.17.05-1.7,0-.34-.02-.59-.06-.74-.02-.09-.06-.16-.12-.2s-.12-.07-.18-.07c-.03,0-.08,0-.13.01v-.12l1.12-.3c.06.17.1.33.12.48.04.23.06.5.06.81,0,.11,0,.27-.01.5l1.26-1.78h.14Z"/>
          <path class="cls-2" d="M69.21,25.3l-.67,2.32c-.04.13-.06.22-.06.26,0,.02.01.05.03.07.02.02.04.03.06.03.04,0,.07-.02.11-.05.1-.08.22-.23.35-.44l.11.07c-.33.57-.68.86-1.05.86-.14,0-.25-.04-.34-.12s-.13-.18-.13-.3c0-.08.02-.18.06-.31l.45-1.56c.04-.15.07-.26.07-.34,0-.05-.02-.09-.06-.13-.04-.04-.1-.06-.17-.06-.03,0-.07,0-.12,0l.04-.13,1.11-.18h.2ZM69,23.8c.13,0,.25.05.34.14.09.09.14.21.14.34s-.05.25-.14.34c-.09.09-.21.14-.34.14s-.24-.05-.34-.14-.14-.21-.14-.34.05-.25.14-.34c.09-.09.2-.14.34-.14Z"/>
          <path class="cls-2" d="M71.27,24.51l-.26.89h.43l-.11.38h-.42l-.54,1.89c-.03.12-.05.21-.05.27,0,.03.01.05.03.07.02.02.04.03.07.03.04,0,.08-.02.11-.05.1-.08.22-.21.35-.4l.11.07c-.15.26-.32.45-.5.57-.18.12-.36.18-.53.18-.15,0-.26-.04-.34-.11-.08-.08-.12-.17-.12-.29,0-.13.03-.29.08-.49l.52-1.77h-.44l.07-.24c.28-.1.51-.22.7-.36s.42-.36.69-.66h.17Z"/>
          <path class="cls-2" d="M73.41,23.8l-.85,2.94c.29-.43.51-.73.64-.88.2-.22.37-.37.51-.45.14-.08.28-.12.41-.12.11,0,.21.04.29.13.08.08.12.2.12.33,0,.12-.03.26-.08.44l-.41,1.39c-.04.12-.06.2-.06.24,0,.02,0,.04.02.05.02.02.03.02.05.02.03,0,.05-.01.08-.03.07-.05.14-.14.22-.26.02-.03.05-.08.09-.14l.13.07c-.19.31-.36.52-.53.64-.17.12-.33.17-.48.17-.14,0-.24-.03-.32-.1-.08-.07-.11-.16-.11-.26,0-.1.03-.23.08-.41l.4-1.39c.03-.09.04-.16.04-.21,0-.02,0-.05-.03-.06-.02-.02-.04-.03-.06-.03-.08,0-.19.07-.32.2-.28.27-.57.69-.85,1.26l-.29.97h-.81l1.07-3.69c.04-.16.07-.27.07-.34,0-.05-.02-.1-.07-.13-.06-.04-.14-.06-.26-.05l.02-.13,1.09-.19h.2Z"/>
          <path class="cls-2" d="M81.42,23.8l-.33,1.41h-.13c-.01-.38-.11-.67-.28-.86-.17-.19-.4-.28-.68-.28-.3,0-.6.13-.9.39-.3.26-.55.65-.76,1.18-.17.43-.25.85-.25,1.27,0,.37.09.66.28.86.18.2.44.3.76.3.26,0,.5-.06.71-.17.21-.11.43-.3.65-.55h.16c-.27.4-.54.69-.82.85s-.61.24-1.01.24c-.53,0-.96-.16-1.29-.48-.32-.32-.49-.74-.49-1.26,0-.49.13-.95.39-1.39s.63-.8,1.12-1.07c.49-.27.97-.41,1.45-.41.18,0,.41.04.68.12.14.04.24.06.29.06.11,0,.22-.06.33-.18h.12Z"/>
          <path class="cls-2" d="M84.26,25.35l-.63,2.17-.07.26s-.01.06-.01.07c0,.03,0,.05.03.07.02.02.04.03.06.03.05,0,.11-.03.19-.1.03-.03.11-.13.23-.3l.11.06c-.15.28-.32.49-.49.62-.17.13-.36.19-.57.19-.12,0-.22-.03-.28-.1-.07-.06-.1-.15-.1-.24,0-.09.03-.24.1-.47l.08-.26c-.25.43-.5.74-.73.92-.13.1-.28.16-.43.16-.2,0-.35-.08-.43-.25-.09-.16-.13-.35-.13-.56,0-.31.09-.66.28-1.05.19-.4.43-.72.74-.96.25-.2.48-.3.7-.3.12,0,.22.04.29.11.07.07.13.2.16.39l.12-.4.77-.05ZM83.21,25.97c0-.18-.03-.3-.08-.38-.04-.06-.09-.08-.16-.08s-.14.03-.21.1c-.15.14-.3.41-.47.82-.17.41-.25.77-.25,1.07,0,.12.02.2.06.25.04.05.08.08.13.08.1,0,.2-.06.3-.17.14-.16.27-.36.39-.59.2-.41.31-.77.31-1.09Z"/>
          <path class="cls-2" d="M85.98,25.3l-.49,1.83c.4-.89.71-1.44.91-1.65.12-.12.25-.18.38-.18.09,0,.16.03.22.1.06.07.08.16.08.28,0,.21-.05.39-.15.53-.07.09-.14.14-.22.14-.09,0-.15-.04-.2-.12-.04-.08-.07-.13-.09-.14-.02-.01-.04-.02-.06-.02s-.04,0-.07.02c-.05.03-.11.09-.19.19s-.17.27-.29.51-.2.44-.26.6c-.06.16-.15.48-.26.94h-.79l.54-2.16c.04-.16.06-.27.06-.32,0-.06-.01-.1-.03-.14-.02-.03-.05-.06-.08-.07-.04-.02-.11-.02-.22-.02l.03-.09.98-.22h.2Z"/>
          <path class="cls-2" d="M88.04,27.11c-.02.14-.03.26-.03.35,0,.16.05.29.14.39.09.1.22.15.38.15s.3-.04.46-.11c.15-.07.33-.2.53-.39l.1.09c-.25.3-.49.52-.73.65-.24.13-.5.19-.79.19-.36,0-.61-.09-.75-.26-.14-.17-.21-.38-.21-.6,0-.36.1-.71.31-1.07.21-.36.49-.64.85-.86.36-.22.72-.32,1.08-.32.18,0,.32.04.41.13.09.09.14.2.14.33,0,.16-.05.31-.14.46-.13.2-.29.37-.48.49s-.4.22-.64.29c-.16.04-.37.08-.64.1ZM88.07,26.94c.19-.03.34-.07.45-.12.11-.05.21-.13.31-.24s.19-.24.26-.41c.07-.16.11-.32.11-.46,0-.06-.02-.11-.05-.14-.03-.03-.08-.05-.13-.05-.1,0-.22.07-.35.22-.24.27-.44.66-.6,1.2Z"/>
        </g>
        <path class="cls-2" d="M92.83,0c.4,0,.8.1,1.18.31s.68.5.9.89.32.79.32,1.21-.11.82-.32,1.2c-.21.38-.51.68-.89.89-.38.21-.78.32-1.2.32s-.82-.11-1.2-.32c-.38-.21-.68-.51-.89-.89-.21-.38-.32-.78-.32-1.2s.11-.82.32-1.21.52-.68.9-.89.78-.31,1.18-.31ZM92.83.3c-.35,0-.7.09-1.03.27-.34.18-.6.44-.79.78-.19.34-.28.69-.28,1.05s.09.71.28,1.05c.19.33.45.59.78.78.33.18.68.28,1.05.28s.71-.09,1.05-.28c.33-.19.59-.45.78-.78.19-.33.28-.68.28-1.05s-.09-.72-.28-1.05c-.19-.34-.45-.6-.79-.78-.34-.18-.68-.27-1.04-.27ZM91.54,1.01h1.23c.41,0,.7.05.86.15.23.14.34.34.34.59,0,.16-.05.3-.15.43-.1.13-.25.22-.46.27l.46.85c.07.12.14.21.21.28.03.03.08.05.15.06v.12h-.82l-.7-1.25h-.16v.67c0,.19.03.32.08.37.05.05.16.08.33.09v.12h-1.44v-.12c.14,0,.23-.02.27-.07.06-.07.08-.2.08-.39v-1.6c0-.19-.02-.3-.06-.36-.04-.05-.12-.08-.24-.1v-.12ZM92.51,2.33c.08.01.14.02.19.02.15,0,.27-.06.38-.17.1-.11.16-.26.16-.44s-.05-.33-.15-.43c-.1-.1-.25-.15-.45-.15h-.13v1.17Z"/>
      </g>
    </g>
  </g>
</svg>