<?xml version="1.0" encoding="UTF-8"?>
<svg id="Layer_2" data-name="Layer 2" xmlns="http://www.w3.org/2000/svg" viewBox="0 0 57.2 42.24">
  <defs>
    <style>
      .cls-1 {
        fill: #089da6;
      }

      .cls-2 {
        fill: #1f2757;
      }
    </style>
  </defs>
  <g id="Layer_1-2" data-name="Layer 1">
    <g>
      <path class="cls-2" d="M13.58,8.06l-2.91,1.97v-.96s-.77-.66,2.02-2.15,4.39-2.45,4.39-2.45v19.41s-3.38.12-3.38-3.11-.21-12.81-.12-12.72Z"/>
      <g>
        <path class="cls-1" d="M27.73,10.51c.28,1.13.44,2.31.44,3.53,0,7.45-5.55,13.5-12.4,13.5S3.38,21.49,3.38,14.04,8.93.54,15.78.54c1.85,0,3.6.45,5.18,1.25-2.03-1.13-4.36-1.79-6.84-1.79C6.32,0,0,6.36,0,14.21s6.32,14.21,14.12,14.21,14.12-6.36,14.12-14.21c0-1.28-.18-2.52-.5-3.71Z"/>
        <path class="cls-1" d="M27.73,10.51c-.96-3.88-3.47-7.06-6.77-8.72,3.29,1.84,5.77,4.98,6.77,8.72Z"/>
      </g>
      <path class="cls-1" d="M30.62,5.75l13.17,13.1V5.69h.67v17.09l-13.3-13.04v12.53h-.89l-.02-16.51s.42-.05.37,0Z"/>
      <path class="cls-1" d="M46.45,5.4h10.58v.8h-8.48v7.5h7.15v.8s-7.08-.13-7.08,0v7.67h8.51v.8h-10.74s.07-17.55.07-17.58Z"/>
      <path class="cls-1" d="M50.49,25.36h6.65v.51h-5.33v4.72h4.49v.51s-4.45-.08-4.45,0v4.82h5.35v.51h-6.75s.04-11.03.04-11.05Z"/>
      <path class="cls-1" d="M36.81,25.34h-.66l-4.26,9.71s-.52.86-3.54.86-5.28-2.38-5.28-5.28,2.85-4.86,5.31-4.86,3.87.86,3.87.86l.3-.26s-2.03-1.16-4.03-1.16c-2.79,0-6.36,1.52-6.36,5.32,0,4.33,3.25,5.98,6.26,5.98s3.9-.86,3.9-.86l1.44-3.43h4.53s.86,2.21.89,2.28c.49,1.52,1.25,1.78,1.25,1.78h1.28l-4.89-10.93ZM34.02,31.52l2-4.62,1.9,4.62h-3.9Z"/>
      <path class="cls-1" d="M42.13,25.14h4.62s1.87.66,1.87,2.91c0,2.77-2.1,3.17-2.1,3.17l3.12,4.89h-1.8s-3.05-5.05-3.05-4.95,0-.3,0-.3c0,0,2.66-.26,2.66-2.74,0-1.98-1.54-2.18-2.3-2.18h-1.74v10.37h-.36s-1.02.5-1.02-2.28.18-8.97.1-8.88Z"/>
      <rect class="cls-1" x="23.43" y="41.19" width="33.75" height="1.05"/>
    </g>
  </g>
</svg>