<?xml version="1.0" encoding="UTF-8"?>
<svg id="Layer_2" data-name="Layer 2" xmlns="http://www.w3.org/2000/svg" xmlns:xlink="http://www.w3.org/1999/xlink" viewBox="0 0 70.9 53.84">
  <defs>
    <style>
      .cls-1 {
        fill: #231f20;
      }

      .cls-2 {
        fill: #fff;
        stroke: #231f20;
        stroke-miterlimit: 10;
        stroke-width: .5px;
      }

      .cls-3 {
        fill: none;
      }

      .cls-4 {
        fill: #9d1c20;
      }

      .cls-5 {
        fill: #2bace2;
      }

      .cls-6 {
        fill: #9d1f22;
      }

      .cls-7 {
        clip-path: url(#clippath);
      }

      .cls-8 {
        fill: #f9a61a;
      }
    </style>
    <clipPath id="clippath">
      <ellipse class="cls-3" cx="18.31" cy="19.82" rx="10.28" ry="10.99"/>
    </clipPath>
  </defs>
  <g id="Layer_1-2" data-name="Layer 1">
    <g>
      <path class="cls-4" d="M30.87,19.72c0-7.49-5.62-13.57-12.55-13.57s-12.55,6.07-12.55,13.57,5.62,13.57,12.55,13.57c5.14,0,9.56-3.34,11.5-8.12,0,0,.43,1.23,1.28,3.34s1.9,2.93,1.9,2.93c-3.32,4.85-8.66,8-14.67,8C8.24,39.44.08,30.61.08,19.72S8.24,0,18.32,0c6.3,0,12.12,3.36,15.39,8.6,0,0,1.48,1.97,2.29,5.5s.73,5.64.73,5.64c0,7.49,5.81,13.54,12.75,13.54,5.95,0,10.93-4.47,12.22-10.47h-6.9l5.21-4.48h10.56v10.56l-4.62,4.01v-4.66l-.13.28c-2.99,6.47-9.18,10.92-16.33,10.92-10.07,0-18.64-8.79-18.64-19.68"/>
      <path class="cls-6" d="M34.84,7.96c3.32-4.83,8.65-7.96,14.64-7.96,8.06,0,14.89,5.65,17.31,13.48l-4.88,4.35c-.85-6.6-6.09-11.67-12.43-11.67-5.64,0-10.41,4.02-11.99,9.55,0,0-.71-3.54-1.29-5.07-.58-1.53-1.37-2.67-1.37-2.67Z"/>
      <rect class="cls-1" y="42.76" width="70.9" height=".66"/>
      <rect class="cls-1" y="53.17" width="70.9" height=".66"/>
      <g>
        <path class="cls-1" d="M.09,48.01c0-.99.28-1.76.83-2.31.55-.55,1.32-.83,2.3-.83s1.78.27,2.33.81.82,1.3.82,2.27c0,.71-.12,1.29-.36,1.74-.24.45-.58.8-1.03,1.06-.45.25-1.01.38-1.68.38s-1.25-.11-1.69-.33c-.45-.22-.81-.56-1.09-1.03-.28-.47-.42-1.06-.42-1.77ZM1.96,48.02c0,.61.11,1.05.34,1.32.23.27.54.4.93.4s.71-.13.93-.39.33-.73.33-1.41c0-.57-.11-.99-.34-1.25-.23-.26-.54-.39-.93-.39s-.68.13-.91.4c-.23.27-.34.71-.34,1.32Z"/>
        <path class="cls-1" d="M7.04,49.03l1.78-.11c.04.29.12.51.24.66.19.25.47.37.83.37.27,0,.47-.06.62-.19.14-.13.22-.27.22-.44s-.07-.3-.21-.42c-.14-.12-.46-.24-.96-.35-.82-.18-1.4-.43-1.75-.73-.35-.31-.53-.69-.53-1.17,0-.31.09-.6.27-.88.18-.28.45-.49.81-.65.36-.16.86-.24,1.49-.24.77,0,1.36.14,1.77.43s.65.74.72,1.37l-1.76.1c-.05-.27-.15-.47-.3-.59-.15-.12-.36-.19-.62-.19-.22,0-.38.05-.49.14-.11.09-.17.2-.17.34,0,.1.05.18.14.26.09.08.3.15.63.22.82.18,1.4.35,1.76.53.35.18.61.4.77.67.16.27.24.57.24.9,0,.39-.11.75-.32,1.07-.21.33-.51.58-.9.75-.39.17-.87.25-1.46.25-1.03,0-1.74-.2-2.14-.59-.4-.4-.62-.9-.67-1.51Z"/>
        <path class="cls-1" d="M13.45,44.98h2.46l.95,3.68.94-3.68h2.46v6.05h-1.53v-4.61l-1.18,4.61h-1.39l-1.18-4.61v4.61h-1.53v-6.05Z"/>
        <path class="cls-1" d="M25.17,50.04h-2.12l-.29,1h-1.91l2.27-6.05h2.04l2.27,6.05h-1.96l-.3-1ZM24.78,48.73l-.67-2.18-.66,2.18h1.33Z"/>
        <path class="cls-1" d="M28.04,44.98h1.75l2.28,3.35v-3.35h1.76v6.05h-1.76l-2.27-3.32v3.32h-1.76v-6.05Z"/>
        <path class="cls-1" d="M40.92,48.84v-1.26h2.89v2.58c-.55.38-1.04.63-1.47.77s-.93.2-1.51.2c-.72,0-1.3-.12-1.76-.37-.45-.24-.8-.61-1.05-1.09-.25-.48-.37-1.04-.37-1.67,0-.66.14-1.23.41-1.72.27-.49.67-.86,1.2-1.11.41-.2.96-.29,1.66-.29s1.17.06,1.5.18c.33.12.61.31.83.56s.38.58.49.97l-1.8.32c-.07-.23-.2-.4-.38-.52-.18-.12-.4-.18-.68-.18-.41,0-.74.14-.98.43-.24.28-.37.74-.37,1.35,0,.65.12,1.12.37,1.4.25.28.59.42,1.03.42.21,0,.41-.03.6-.09.19-.06.41-.16.65-.31v-.57h-1.25Z"/>
        <path class="cls-1" d="M44.95,51.03v-6.05h3.12c.58,0,1.02.05,1.32.15.31.1.55.28.74.55.19.27.28.6.28.98,0,.34-.07.63-.21.87s-.34.44-.59.59c-.16.1-.38.18-.66.24.22.07.38.15.49.22.07.05.17.16.3.32.13.16.22.29.26.38l.91,1.75h-2.11l-1-1.85c-.13-.24-.24-.39-.34-.47-.13-.09-.29-.14-.46-.14h-.17v2.46h-1.88ZM46.83,47.43h.79c.09,0,.25-.03.5-.08.12-.02.22-.09.3-.19.08-.1.12-.22.12-.35,0-.2-.06-.35-.19-.45-.12-.1-.36-.16-.7-.16h-.82v1.23Z"/>
        <path class="cls-1" d="M51.12,48.01c0-.99.28-1.76.83-2.31.55-.55,1.32-.83,2.3-.83s1.78.27,2.33.81c.54.54.82,1.3.82,2.27,0,.71-.12,1.29-.36,1.74-.24.45-.58.8-1.03,1.06-.45.25-1.01.38-1.68.38s-1.25-.11-1.69-.33-.81-.56-1.09-1.03c-.28-.47-.42-1.06-.42-1.77ZM52.99,48.02c0,.61.11,1.05.34,1.32.23.27.54.4.93.4s.71-.13.93-.39.33-.73.33-1.41c0-.57-.11-.99-.34-1.25-.23-.26-.54-.39-.93-.39s-.68.13-.91.4c-.23.27-.34.71-.34,1.32Z"/>
        <path class="cls-1" d="M62.33,44.98h1.87v3.61c0,.36-.06.7-.17,1.01-.11.32-.29.6-.52.83s-.49.4-.75.5c-.36.13-.8.2-1.31.2-.29,0-.62-.02-.96-.06-.35-.04-.64-.12-.87-.25s-.45-.3-.64-.52c-.19-.23-.33-.46-.4-.7-.12-.38-.17-.73-.17-1.02v-3.61h1.87v3.69c0,.33.09.59.27.77.18.19.44.28.76.28s.57-.09.76-.27c.18-.18.27-.44.27-.78v-3.69Z"/>
        <path class="cls-1" d="M65.43,44.98h3.11c.68,0,1.18.16,1.52.48.34.32.51.78.51,1.37s-.18,1.09-.55,1.43c-.37.34-.93.52-1.68.52h-1.02v2.25h-1.88v-6.05ZM67.31,47.56h.46c.36,0,.61-.06.76-.19.15-.13.22-.29.22-.48s-.06-.35-.19-.48c-.13-.13-.36-.2-.71-.2h-.53v1.35Z"/>
      </g>
      <path class="cls-1" d="M18.4,7.26c-6.48,0-11.73,5.61-11.73,12.52s5.25,12.52,11.73,12.52,11.73-5.61,11.73-12.52-5.25-12.52-11.73-12.52ZM18.4,31.56c-6.09,0-11.03-5.27-11.03-11.78s4.94-11.78,11.03-11.78,11.03,5.27,11.03,11.78-4.94,11.78-11.03,11.78Z"/>
      <g>
        <path class="cls-1" d="M18.31,8.59c-5.81,0-10.52,5.03-10.52,11.22s4.71,11.22,10.52,11.22,10.52-5.03,10.52-11.22-4.71-11.22-10.52-11.22ZM18.31,30.37c-5.46,0-9.89-4.73-9.89-10.56s4.43-10.56,9.89-10.56,9.89,4.73,9.89,10.56-4.43,10.56-9.89,10.56Z"/>
        <g class="cls-7">
          <g>
            <path class="cls-5" d="M28.89,18.74c-.5-5.83-5.09-10.4-10.68-10.4s-10.02,4.41-10.65,10.1l21.33.31Z"/>
            <path class="cls-8" d="M29.36,18.9c-.53,6.92-5.41,12.35-11.36,12.35s-10.66-5.23-11.33-11.98l22.69-.36Z"/>
            <polygon class="cls-2" points="6.87 17.52 9.21 17.52 9.21 16.89 10.17 16.89 10.17 15.84 12.5 15.84 12.4 11.43 13.13 11.4 13.32 15.16 13.74 15.84 13.74 17.46 15.93 16.4 15.93 17.46 17.81 16.34 17.81 17.41 19.84 16.36 19.84 17.52 21.64 16.34 21.64 17.41 23.63 16.32 23.63 17.63 25.66 17.63 25.66 18.38 26.52 18.38 26.52 17.59 27.77 17.59 27.77 18.33 30.3 18.33 30.3 19.36 3.63 19.36 5.3 17.69 6.87 17.52"/>
            <g>
              <path class="cls-1" d="M20.55,25.79c-.71.07-1,.19-1,.19l2.39.16s.71.73.94,1c.23.27.42.58.42.58v.44s1.62,1.81,1.62,1.81l.08-.18s-.54-.3-.75-.85c-.22-.55-.61-1.77-1.27-2.57-.66-.81-1.04-1.08-1.04-1.08l-.03-1s.34-.16.36-.58-.27-.67-.27-.67c0,0,.31-.34-.28-1.23s-1.33-1.29-1.33-1.29c0,0-.01-.2-.3-.5-.28-.3-.51-.46-.51-.46l.03-.23h-4.46s-.89,1.29-1.42,1.78c-.53.49-.88,1.17-.81,1.66.07.49.73,2.53.73,2.53,0,0-.61.32-.62.84-.01.51-.03,1.27-.03,1.27l-.2.04s-.11.11-.22.36-.04.43-.04.43c0,0-.28-.01-.49.4-.2.42-.23,1.19-.23,1.19l-.11.74,5.82,2.47,4.58-1.93s-.48-1.08-.64-1.31-.42-.36-.9-.28c-.48.09-2.78.12-3.24.13h-.47s-.77-.58-.77-.58c0,0,1.59.12,3.26.1,1.67-.01,2.05.09,2.21.19s.86,1.41.86,1.41l1.21-.6s-.2-.47-.64-.58-.51-.1-.51-.1l.58-.51-3.58-.03s.35-.2-.55-.2h-2.78s-1.08.09-1.08.29.2.25.2.25l-.07.22h.52l-.26.23,3.27.17-.39.39s-1.29-.12-2.17-.16-1.43-.45-1.43-.45l.19-.22s-.42-.03-1.05.2c-.63.23-.9.76-.9.76l-.71-.36s.06-.81.07-1.09.57-.63.57-.63l-.33-.19s.92-.28,1.66-.33c.74-.06,4.03-.09,4.03-.09l1.18-.48s.71.23,1.22.25c.51.01,1.38-.36,1.38-.36,0,0-.1-.19-.47-.19h-.55v.35l-1.54-.1-.08-.35h-.15l-.31.44s-1.38.05-2.07.16l-3.68.07s0-.08,1.04-.35c1.04-.27,1.27-.27,1.27-.27l.55.34s.55-.12,1.33-.13c.78-.01.98-.19.98-.19,0,0-.86-.4-1.46-.31-.59.09-1.47.19-1.47.19l-2.09.04v-.28h2.95s.18-.19.18-.19c0,0-.74-.18-1-.15-.26.03-.81.13-.81.13h-1.29s-.11-.34.2-.4c.31-.07,2.26-.01,2.26-.01l.05-.27-.23-.09-.57.09s-.12-.49,1.15-.7,2.12-.74,2.12-.74c0,0,.12-.27-.2-.27s-.88.08-.88.08l-.86.66-.51-.63-.04-1.56s.28-.13.2-.35c-.08-.22-.44-.94-.44-.94,0,0,.12-1.04.62-1.15s1.23.05,1.23.05l-1,.31-.03.23,1.31.04.03-.34.31-.26.32.23-.03.26-.13.2v.26h-1.28s-.05.12-.05.12l1.69.74s.09.54-.16.62c-.26.08-.62-.11-.62-.11,0,0-.18.19-.43.43s-.61.35-.61.35c0,0,.16.4.7.36.54-.04.63-.23.63-.23l.44.38v.38s.78.07.78.07l.89.74-.03.26s-.38-.18-.96-.24c-.58-.07-1.06-.07-1.06-.07l-.67.43,3.44.03.57.57-.18.03s-.11-.18-.82-.11ZM20.23,29.83l.41.02.02.19-.16.11h-.29v-.33ZM17.81,30.42c.03-.15.4.22.4.22l-.07.14-.53.03.19-.39ZM16.76,30.42s.56-.14.61.08c.05.22,0,.23,0,.23,0,0-.7.06-.61-.31ZM15.55,30.21l.74.33-.38.25-.66-.26.3-.32ZM13.92,21.49l.22-.34.3.03.64.6-.24.33-.99-.42.07-.19ZM13.9,25.44s-.36-.97-.45-1.32c-.09-.34-.16-.49-.16-.49l.15-.17s.73.01.99.03.47.06.47.06l.08.23s-.37,1.09-.49,1.25c-.13.16-.58.41-.58.41ZM15.59,24.35l-.65.7-.21-.21.41-.89.49.19-.05.21ZM16.07,19.99l-.11.06-.26-.27.15-.36.52.05.13.22-.41.31ZM18.04,20.02l-.37-.06v-.52s.21-.01.21-.01l.22.13-.06.46ZM19.45,20.42l-.58-.4.31-.3.48.48-.21.22ZM21.31,21.98c.18-.08.39.1.34.23s-.22.22-.34.22-.36-.29,0-.45ZM21.25,23.65l.37-.36.31.21-.36.45-.32-.3Z"/>
              <polygon class="cls-1" points="15.03 28.15 22.63 28 22.62 28.12 22.25 28.12 22.2 28.27 19.26 28.31 18.65 28.48 14.29 28.56 14.31 28.43 15.03 28.15"/>
              <rect class="cls-1" x="6.52" y="19.82" width="8.62" height=".11"/>
              <rect class="cls-1" x="6.52" y="20.86" width="8.62" height=".11"/>
              <rect class="cls-1" x="6.92" y="22.15" width="7.37" height=".11"/>
              <rect class="cls-1" x="6.92" y="23.33" width="7.37" height=".11"/>
              <rect class="cls-1" x="6.92" y="24.72" width="6.71" height=".11"/>
              <rect class="cls-1" x="6.92" y="26.23" width="6.17" height=".11"/>
              <rect class="cls-1" x="6.92" y="27.6" width="6.17" height=".11"/>
              <rect class="cls-1" x="19.73" y="19.82" width="9.89" height=".11" transform="translate(49.35 39.75) rotate(180)"/>
              <rect class="cls-1" x="19.78" y="20.86" width="9.84" height=".11" transform="translate(49.4 41.83) rotate(180)"/>
              <rect class="cls-1" x="21.84" y="22.15" width="7.37" height=".11" transform="translate(51.06 44.4) rotate(180)"/>
              <rect class="cls-1" x="21.84" y="23.33" width="7.37" height=".11" transform="translate(51.06 46.76) rotate(180)"/>
              <rect class="cls-1" x="21.87" y="24.72" width="6.71" height=".11" transform="translate(50.45 49.55) rotate(180)"/>
              <rect class="cls-1" x="22.73" y="26.23" width="6.17" height=".11" transform="translate(51.62 52.56) rotate(180)"/>
            </g>
            <rect class="cls-1" x="23.25" y="27.6" width="6.17" height=".11" transform="translate(52.68 55.31) rotate(180)"/>
            <path class="cls-1" d="M14.99,19.95s.15-1.07.41-1.11.59-.33,1.26-.15,1.18.18,1.18.18c0,0,0-.55.22-.63s.66.07.66.22.59.48.59.48l.18.48-3.36-.15-.52.04-.63.63Z"/>
          </g>
        </g>
      </g>
    </g>
  </g>
</svg>