<?xml version="1.0" encoding="UTF-8"?>
<svg id="Layer_2" data-name="Layer 2" xmlns="http://www.w3.org/2000/svg" viewBox="0 0 95.44 23.92">
  <defs>
    <style>
      .cls-1 {
        fill: #6eafb0;
      }

      .cls-2 {
        fill: #05809b;
      }

      .cls-3 {
        fill: #94d2c2;
      }

      .cls-4 {
        fill: #010101;
      }

      .cls-5 {
        fill: #4a95a1;
      }
    </style>
  </defs>
  <g id="Layer_1-2" data-name="Layer 1">
    <g>
      <polygon class="cls-3" points=".02 23.7 25.74 7.19 14.45 0 0 9.35 .02 23.7"/>
      <polygon class="cls-2" points="25.67 7.12 29.18 9.37 29.24 9.4 29.24 23.92 14.41 14.25 25.67 7.12"/>
      <polygon class="cls-1" points="14.58 14.36 25.74 7.19 14.45 0 3.53 7.07 14.58 14.36"/>
      <polygon class="cls-5" points="14.58 14.36 25.74 7.19 14.45 0 14.58 14.36"/>
      <path class="cls-4" d="M42.95,12.92c-.05.08-.13.12-.23.12-.08,0-.17-.04-.29-.13-.12-.08-.28-.18-.48-.28-.2-.1-.46-.2-.76-.28-.31-.09-.68-.13-1.13-.13s-.84.05-1.18.15c-.34.1-.63.24-.85.41-.23.17-.4.38-.52.6-.12.23-.18.47-.18.72,0,.33.09.6.27.82.18.21.41.4.7.55.29.15.62.28.99.38.37.1.75.2,1.14.31.39.1.77.21,1.14.33.37.12.7.27.99.46.29.18.52.41.7.68s.27.6.27,1-.09.79-.27,1.15c-.18.36-.43.67-.77.94-.34.27-.75.47-1.24.63-.49.15-1.05.23-1.67.23-.81,0-1.51-.11-2.1-.34-.59-.23-1.1-.54-1.54-.93l.24-.3c.07-.07.15-.1.24-.1.05,0,.12.03.2.08.08.05.18.12.3.2.12.08.26.17.42.26.16.09.35.18.57.26s.46.15.74.2c.28.05.6.08.95.08.49,0,.92-.06,1.31-.17.38-.12.71-.28.97-.48.26-.2.47-.44.61-.72.14-.28.21-.57.21-.89,0-.34-.09-.63-.27-.85-.18-.22-.41-.41-.7-.56-.29-.15-.62-.27-.99-.37-.37-.1-.75-.2-1.14-.29s-.77-.2-1.14-.32c-.37-.12-.7-.27-.99-.46-.29-.19-.52-.42-.7-.69-.18-.28-.27-.62-.27-1.04,0-.32.08-.64.24-.94s.39-.57.69-.8c.3-.23.68-.42,1.12-.56s.95-.21,1.52-.21c.64,0,1.21.08,1.72.24.51.16.97.4,1.39.73l-.21.32Z"/>
      <path class="cls-4" d="M45.56,17.55v.14c0,.54.07,1.02.22,1.43.15.41.36.75.64,1.03.28.28.61.49,1,.63.39.14.83.21,1.31.21.43,0,.8-.04,1.12-.12.32-.08.58-.17.8-.27s.39-.19.51-.27c.13-.08.22-.12.28-.12.07,0,.13.02.17.07l.22.23c-.14.14-.32.28-.55.41-.23.13-.48.23-.76.32-.28.09-.58.16-.9.21s-.64.08-.96.08c-.59,0-1.12-.09-1.6-.26-.48-.17-.9-.42-1.24-.75-.34-.33-.61-.73-.8-1.21-.19-.48-.28-1.02-.28-1.63,0-.52.09-.99.26-1.43.18-.44.43-.81.76-1.13s.74-.56,1.22-.74c.48-.18,1.02-.27,1.63-.27.48,0,.93.07,1.34.21.41.14.77.34,1.08.61.3.27.54.6.72.99.18.39.26.84.26,1.35,0,.11-.02.18-.05.22-.03.04-.09.06-.17.06h-6.24ZM51.29,17.11c0-.39-.06-.73-.19-1.04-.13-.31-.31-.57-.55-.78-.24-.21-.52-.38-.84-.49-.32-.11-.68-.17-1.07-.17-.44,0-.84.06-1.19.17-.35.12-.65.28-.91.5s-.46.48-.62.78c-.15.3-.26.64-.31,1.02h5.68Z"/>
      <path class="cls-4" d="M54.1,15.66c.36-.39.77-.7,1.23-.94.46-.23.97-.35,1.55-.35.43,0,.8.06,1.13.18.32.12.59.3.81.52.21.23.37.5.48.82.11.32.16.68.16,1.09v4.44h-.75v-4.44c0-.65-.17-1.16-.5-1.53s-.84-.56-1.52-.56c-.5,0-.98.12-1.41.35-.44.23-.83.55-1.17.96v5.23h-.75v-10.17h.75v4.39Z"/>
      <g>
        <path class="cls-4" d="M79.34,16.39c0,.74-.13,1.43-.39,2.06-.26.63-.62,1.18-1.09,1.64s-1.04.82-1.7,1.08c-.66.26-1.4.39-2.2.39s-1.54-.13-2.2-.39c-.66-.26-1.23-.62-1.7-1.08-.47-.46-.84-1.01-1.1-1.64-.26-.63-.39-1.32-.39-2.06s.13-1.43.39-2.06c.26-.63.63-1.18,1.1-1.64.47-.46,1.04-.82,1.7-1.08.66-.26,1.39-.39,2.2-.39.54,0,1.05.06,1.52.18s.91.29,1.31.5c.4.22.75.48,1.07.79.32.31.58.66.8,1.04.22.38.39.8.5,1.25.12.45.17.92.17,1.41ZM77.32,16.39c0-.56-.08-1.05-.24-1.49-.16-.44-.38-.82-.67-1.12-.29-.31-.64-.54-1.05-.71-.41-.16-.88-.25-1.4-.25s-.99.08-1.4.25-.77.4-1.06.71c-.29.31-.52.68-.67,1.12-.16.44-.24.94-.24,1.49s.08,1.05.24,1.49c.16.44.38.81.67,1.12s.64.54,1.06.7c.41.16.88.25,1.4.25s.99-.08,1.4-.25c.41-.16.76-.4,1.05-.7s.51-.68.67-1.12c.16-.44.24-.94.24-1.49Z"/>
        <path class="cls-4" d="M82.36,15.15c.15-.14.31-.28.48-.4.17-.12.35-.23.54-.31.19-.09.39-.15.61-.2.22-.05.45-.07.71-.07.41,0,.78.07,1.09.2s.58.32.8.56c.21.24.37.53.48.86.11.33.17.7.17,1.1v4.57h-1.81v-4.57c0-.44-.11-.78-.32-1.02s-.53-.36-.96-.36c-.31,0-.61.07-.88.2-.27.14-.53.32-.78.55v5.19h-1.81v-7.18h1.11c.24,0,.39.1.46.32l.12.57Z"/>
        <path class="cls-4" d="M90.35,18.08c.03.37.1.69.21.96.11.27.25.49.43.67.18.17.39.31.63.39.24.09.51.13.8.13s.55-.03.76-.1c.21-.07.4-.14.56-.22.16-.08.3-.15.42-.22.12-.07.24-.1.35-.1.15,0,.26.05.34.16l.52.63c-.2.22-.43.41-.68.56-.25.15-.51.27-.78.36-.27.09-.55.16-.83.19-.28.04-.55.06-.82.06-.52,0-1.01-.08-1.46-.25-.45-.17-.84-.41-1.18-.74-.33-.32-.6-.73-.79-1.2-.19-.48-.29-1.03-.29-1.66,0-.49.08-.95.25-1.38.17-.43.41-.81.72-1.13.31-.32.69-.57,1.14-.76.45-.19.95-.28,1.52-.28.47,0,.91.07,1.31.22.4.14.75.36,1.04.63.29.28.52.62.68,1.02.16.4.25.86.25,1.38,0,.26-.03.44-.09.53-.06.09-.17.14-.34.14h-4.66ZM93.81,17.04c0-.22-.03-.44-.1-.63-.07-.2-.17-.37-.3-.52-.13-.15-.3-.27-.5-.35-.2-.09-.44-.13-.71-.13-.52,0-.94.14-1.24.43-.3.28-.49.69-.58,1.21h3.42Z"/>
      </g>
      <path class="cls-4" d="M61.92,15.9l-.5-.51s.9-1.21,2.99-1.21,2.63,1.47,2.63,2.32v4.93h-.89v-.73s-.3.92-2.42.92-2.65-1.49-2.65-2.37.61-2.26,2.69-2.26,2.5,1.03,2.5,1.03v-1.86s-.07-1.34-2.16-1.34c-1.19,0-2.21,1.09-2.21,1.09ZM64.03,17.48c-1.8,0-2.11,1.34-2.11,1.91s.2,1.72,2.05,1.72,2.2-1.06,2.2-1.06v-1.57s-.69-1-2.15-1Z"/>
    </g>
  </g>
</svg>