<?xml version="1.0" encoding="UTF-8"?>
<svg id="Layer_2" data-name="Layer 2" xmlns="http://www.w3.org/2000/svg" viewBox="0 0 52.77 64.82">
  <defs>
    <style>
      .cls-1 {
        fill: #8c181b;
      }

      .cls-2 {
        fill: #231f20;
      }

      .cls-3 {
        fill: #1b5cab;
      }

      .cls-4 {
        fill: #3eac49;
      }

      .cls-5 {
        fill: none;
        stroke: #231f20;
        stroke-miterlimit: 10;
      }

      .cls-6 {
        fill: #0a6534;
      }

      .cls-7 {
        fill: #126ab4;
      }
    </style>
  </defs>
  <g id="Layer_1-2" data-name="Layer 1">
    <g>
      <path class="cls-7" d="M45.39,23.72s-4.55-12.24-18.21-12.24c-8.79,0-17.9,7.39-17.9,20.67,0,9.48,8.16,19.18,17.9,19.18,14.08,0,18.11-12.07,18.11-12.07,0,0-5.13,8.27-14.76,8.27s-16.54-8.32-16.54-16.43,6.23-15.43,15.18-15.43c9.94,0,16.22,8.05,16.22,8.05Z"/>
      <g>
        <g>
          <path class="cls-6" d="M32.22,36.61s.79-3.39,3.84-5.77c3.05-2.38,6.1-2.38,6.1-2.38,0,0-.45,4.22-2.29,6.57-1.84,2.35-5.31,4.07-5.31,4.07l-.45,1.16s3.19-.83,6.3-4.97c3.11-4.13,2.6-7.85,2.6-7.85,0,0-4.69.3-7.71,2.94s-3.56,5.38-3.56,5.38l.48.83Z"/>
          <path class="cls-6" d="M38.92,29.55s-1.62,1.17-2.87,2.27-1.92,2-1.92,2l.11.38,4.68-4.65Z"/>
        </g>
        <g>
          <path class="cls-6" d="M28.6,36.94s-1.72-2.99-1.16-6.94c.56-3.95,2.72-6.23,2.72-6.23,0,0,2.52,3.32,2.8,6.35.28,3.03-1.02,6.84-1.02,6.84l.46,1.16s1.7-2.97,1.12-8.2-3.43-7.49-3.43-7.49c0,0-3.11,3.7-3.47,7.82-.36,4.12,1.1,6.46,1.1,6.46l.9.23Z"/>
          <path class="cls-6" d="M29.57,25.44s-.61,1.97-.97,3.64-.36,2.82-.36,2.82l.31.23,1.02-6.69Z"/>
        </g>
        <path class="cls-6" d="M26.29,38.95s-3.22-.83-5.48-4.05-2.26-6.42-2.26-6.42c0,0,4.01.48,6.24,2.41.75.65,1.44,1.5,2.01,2.33,1.14,1.65.58-.55.2-.99-.53-.63-1.09-1.37-1.86-2.01-3.93-3.27-7.56-2.63-7.56-2.63,0,0,.28,4.94,2.8,8.12,2.51,3.18,5.11,3.75,5.11,3.75l.79-.51Z"/>
        <path class="cls-6" d="M20.52,29.87l.72-.06s.97.43,2.62,1.89c1.65,1.45,2.1,2.01,2.1,2.01l-5.44-3.84Z"/>
        <path class="cls-6" d="M24.39,29.74l-.35-4.46s1.27.53,2.31,1.08c1.04.55,1.14.76,1.14.76l.33-.74s-1.15-1.09-2.67-1.58-1.87-.49-1.87-.49c0,0-.04,1.9.03,3.1s.17,2.08.17,2.08l.91.26Z"/>
        <path class="cls-6" d="M32.58,26.63s.32-.43,1.92-1.11,2.74-1,2.74-1c0,0,.06,1.99-.04,3.25s-.32,1.94-.32,1.94l-.92.39s.35-1.53.45-3.04.01-1.38.01-1.38c0,0-1.57.53-2.51,1.15s-1.3.8-1.3.8l-.03-1.02Z"/>
      </g>
      <path class="cls-4" d="M28.8,41.74s-2.4-.44-4.24-2.93c-1.85-2.48-1.29-4.93-1.29-4.93,0,0,2.07.46,3.48,1.56s1.83,1.56,1.83,1.56c0,0-.15-2.18.68-3.79.84-1.6,1.33-2.16,1.33-2.16,0,0,1.83,2.76,1.92,4.13s.1,1.6.1,1.6c0,0,.95-1.24,2.57-2.14s2.76-.82,2.76-.82c0,0-.04,3.31-1.9,5.43s-3.52,2.16-3.52,2.16c0,0,.27-.26.48-.9s.13-1.04.13-1.04c0,0-.7.06-1.2.42s-.63.56-.63.56c0,0,.25-.54-.17-1.28s-.61-.84-.61-.84c0,0-.44.5-.59,1.12s-.08,1-.08,1c0,0-.1-.36-.95-.66s-1.03-.18-1.03-.18c0,0-.08.8.23,1.26s.7.86.7.86Z"/>
      <g>
        <path class="cls-1" d="M16.26,55.25c-.14.03-.24.08-.28.14-.07.1-.17.31-.34.73-.3.76-.98,2.39-1.29,3.24-.04.03-.12.05-.2.05-.07,0-.12-.02-.17-.05-.07-.16-.16-.39-.24-.57l-.26-.62c-.09-.21-.17-.41-.22-.5-.06.11-.13.27-.21.45l-.29.63c-.09.21-.16.4-.26.61-.03.03-.12.05-.21.05-.07,0-.11-.02-.17-.05-.1-.27-.35-.86-.56-1.35l-1.01-2.31c-.17-.39-.2-.42-.41-.46l-.16-.03c-.05-.07-.04-.2.03-.23.23.01.49.02.81.02.27,0,.52,0,.75-.02.05.03.07.19.01.23l-.11.02c-.11.02-.16.05-.16.1s.13.35.32.81l.61,1.45c.17.4.27.59.34.74.07-.13.22-.44.32-.67l.08-.19c.04-.1.06-.19.06-.23s-.04-.18-.07-.24l-.6-1.38c-.14-.33-.19-.37-.42-.4h-.06c-.06-.06-.05-.21.02-.24.27.01.51.02.78.02.32,0,.55,0,.71-.02.07.02.07.2.02.23l-.11.03c-.07.02-.17.05-.17.09,0,.05.02.12.06.2l.19.45c.06.14.14.31.19.43.06-.14.13-.3.19-.44l.06-.13c.11-.25.18-.44.18-.48,0-.05-.02-.06-.12-.09l-.22-.05s-.04-.2.02-.23c.18.01.4.02.61.02.24,0,.47,0,.63-.02.05.03.06.19,0,.24l-.17.04c-.21.05-.25.05-.47.44-.15.27-.3.6-.38.77-.06.12-.14.31-.14.34,0,.02,0,.06.05.16l.29.66c.16.36.25.57.29.66.3-.76.64-1.59.94-2.39.04-.11.16-.46.16-.53,0-.07-.1-.09-.18-.12l-.14-.04c-.05-.06-.04-.2.02-.23.2.01.45.02.64.02.22,0,.4,0,.57-.02.06.03.06.18.02.23l-.19.05Z"/>
        <path class="cls-1" d="M17.86,58.41c-.03.44.16.56.28.56.07,0,.14-.02.24-.08.06.01.09.09.07.15-.07.1-.37.35-.72.35-.22,0-.35-.08-.52-.23-.04-.04-.07-.05-.1-.05s-.07.03-.13.07c-.11.08-.3.21-.53.21-.36,0-.7-.23-.7-.69,0-.33.19-.54.65-.68.24-.08.41-.13.58-.18.11-.03.14-.08.15-.13,0-.07.01-.14.01-.22,0-.25-.09-.56-.36-.56-.15,0-.28.09-.32.37-.01.1-.05.16-.11.21-.09.07-.33.15-.45.15-.11,0-.14-.07-.14-.16,0-.17.15-.38.3-.5.21-.18.6-.4,1.04-.4.52,0,.83.27.79.95l-.04.86ZM17.12,58.24c0-.1,0-.12-.04-.12-.28.04-.52.15-.52.46,0,.21.14.39.32.39.19,0,.23-.12.24-.32v-.41Z"/>
        <path class="cls-1" d="M21.2,58.23c0,.61.02.77.14.77.11,0,.16-.01.27-.05.07.06.07.22,0,.28-.61.04-1.1.24-1.12.24-.04,0-.09-.04-.11-.09l.02-.2c0-.05-.03-.07-.06-.05-.22.14-.44.28-.67.28-.71,0-1.19-.58-1.19-1.29,0-.92.66-1.51,1.48-1.51.14,0,.29.01.35.03.04-.02.06-.07.06-.12v-.84c0-.26,0-.33-.12-.41l-.11-.06c-.05-.04-.04-.16,0-.2.27-.07.65-.22.95-.37.04,0,.08.01.11.05-.01.27-.02.54-.02.95v2.6ZM20.4,57.37c0-.1-.02-.17-.04-.22-.07-.14-.21-.24-.35-.24-.32,0-.63.35-.63,1.03,0,.43.19,1.03.69,1.03.09,0,.17-.03.25-.08.07-.05.07-.13.07-.25v-1.27Z"/>
        <path class="cls-1" d="M22.97,58.55c0,.46.03.52.23.54h.12c.05.05.05.2,0,.24-.22-.01-.46-.02-.75-.02s-.54,0-.74.02c-.06-.04-.06-.19,0-.23h.12c.21-.03.23-.09.23-.55v-.99c0-.26,0-.34-.12-.42l-.09-.06s-.04-.16,0-.2c.29-.08.73-.26.92-.38.05,0,.09.02.11.06-.01.2-.02.48-.02.78v1.2ZM23.02,55.59c0,.31-.23.48-.47.48-.27,0-.43-.2-.43-.46,0-.29.22-.48.47-.48s.43.2.43.46Z"/>
        <path class="cls-1" d="M26.5,56.69c0,.18,0,.2.17.2h.43c.32,0,.4-.05.46-.36l.03-.16c.04-.05.2-.05.23,0-.01.21-.02.44-.02.69s0,.48.02.69c-.03.06-.19.07-.23,0l-.03-.16c-.06-.31-.14-.37-.46-.37h-.43c-.17,0-.17,0-.17.2v.78c0,.3.03.51.1.62.08.12.2.17.65.17.54,0,.75-.02,1.09-.76.05-.07.2-.05.23.03-.02.34-.17.87-.26,1.05-.33-.01-.92-.02-1.43-.02h-.81c-.3,0-.6,0-1.07.02-.05-.04-.05-.2,0-.23l.29-.05c.28-.05.32-.08.32-.69v-2.44c0-.59-.04-.63-.32-.69l-.16-.03c-.06-.04-.05-.19.01-.23.29.01.6.02.89.02h1.32c.4,0,.75,0,.83-.02,0,.1.05.58.08,1.01-.03.07-.17.08-.23.03-.07-.23-.16-.42-.24-.52-.12-.12-.3-.2-.61-.2h-.5c-.2,0-.2.01-.2.25v1.14Z"/>
        <path class="cls-1" d="M29.02,55.67c0-.26,0-.33-.12-.41l-.11-.06s-.04-.16,0-.2c.27-.07.64-.22.95-.37.04,0,.08.01.11.05-.01.27-.02.54-.02.95v2.92c0,.46.03.51.24.54h.11c.05.05.05.2,0,.24-.2-.01-.47-.02-.75-.02s-.53,0-.75.02c-.06-.04-.06-.19,0-.23h.12c.2-.03.23-.09.23-.55v-2.88Z"/>
        <path class="cls-1" d="M32.04,57.61c.06.06.09.16.09.27,0,.08-.03.19-.08.25l-1.49.14c-.05-.05-.09-.14-.09-.26,0-.12.04-.2.09-.27l1.48-.14Z"/>
        <path class="cls-1" d="M36.36,58.2c0,.43,0,.84.01,1.05-.04.08-.22.15-.37.15,0,0-.21-.33-.5-.71l-1.43-1.87c-.36-.46-.56-.74-.68-.84-.03.07-.03.18-.03.42v1.27c0,.53.03,1.02.09,1.2.06.14.2.18.36.21l.17.03c.05.05.04.19,0,.23-.33-.01-.58-.02-.83-.02-.23,0-.46,0-.69.02-.04-.04-.05-.18,0-.23l.11-.02c.17-.03.29-.08.34-.22.07-.18.09-.67.09-1.2v-1.66c0-.36,0-.46-.04-.56-.05-.11-.14-.19-.35-.22l-.17-.03c-.04-.05-.04-.21.02-.23.29.01.6.02.86.02.21,0,.39,0,.52-.02.06.29.47.79,1.02,1.49l.52.65c.27.34.45.57.6.72.03-.07.03-.18.03-.29v-.9c0-.53-.03-1.02-.09-1.2-.06-.14-.19-.18-.36-.21l-.17-.03c-.05-.05-.04-.19,0-.23.33.01.58.02.83.02.23,0,.45,0,.69-.02.04.04.05.18,0,.23l-.11.02c-.16.03-.28.08-.34.22-.07.18-.09.67-.09,1.2v1.56Z"/>
        <path class="cls-1" d="M37.89,57.76c-.14,0-.16.01-.16.12,0,.49.3.97.88.97.17,0,.41-.04.58-.34.07-.01.16.04.16.15-.25.56-.71.75-1.09.75-.84,0-1.29-.62-1.29-1.33,0-.82.56-1.46,1.34-1.46.65,0,.99.44.99.94,0,.12-.03.22-.22.22h-1.19ZM38.3,57.47c.09,0,.19-.01.25-.06.03-.02.04-.08.04-.15,0-.22-.12-.36-.33-.36-.26,0-.48.26-.48.47,0,.09.09.1.29.1h.23Z"/>
        <path class="cls-1" d="M40.49,57.76c-.14,0-.16.01-.16.12,0,.49.3.97.88.97.17,0,.41-.04.58-.34.07-.01.16.04.16.15-.25.56-.71.75-1.09.75-.84,0-1.29-.62-1.29-1.33,0-.82.56-1.46,1.34-1.46.65,0,.99.44.99.94,0,.12-.03.22-.22.22h-1.19ZM40.9,57.47c.09,0,.19-.01.25-.06.03-.02.04-.08.04-.15,0-.22-.12-.36-.33-.36-.26,0-.48.26-.48.47,0,.09.09.1.29.1h.23Z"/>
        <path class="cls-1" d="M42.46,55.67c0-.26,0-.33-.12-.41l-.11-.06s-.04-.16,0-.2c.27-.07.64-.22.95-.37.04,0,.08.01.11.05-.01.27-.02.54-.02.95v2.92c0,.46.03.51.24.54h.11c.05.05.05.2,0,.24-.2-.01-.47-.02-.75-.02s-.53,0-.75.02c-.06-.04-.06-.19,0-.23h.12c.2-.03.23-.09.23-.55v-2.88Z"/>
      </g>
      <path class="cls-3" d="M42.33,61.32s.26-.2.56-.71.16-.42.49-.42.27.81.56.81.81-4.86,1.58-4.86.63,3.23.63,4.15-.26,3.59.03,3.59.44-3.75.93-3.75c.78,0,1.04,1.61,1.25,1.61s.21-.88.59-1.08.96.61,1.1.61h.78v.23h-.87s-.45-.49-.82-.49-.27,1.22-.69,1.22-1.02-1.63-1.25-1.55c0,0-.36,4.15-.92,4.15s-.56-.74-.6-1.48.16-6.13-.1-6.13c0,0-.3-.03-.36.54s-.63,4.15-1.22,4.15-.52-1.2-.7-1.2-.16.93-.92.93H9.06v-.38l33.28.07Z"/>
      <path class="cls-5" d="M.47,19.38S6.97.5,28.17.5c15.59,0,23.79,12.1,23.79,12.1"/>
      <g>
        <path class="cls-2" d="M11.49,50.77l-1.56,2.76-.5-.59,1.06-1.77-1.76.94-.49-.58,1.1-1.72-1.79.9-.51-.6,2.79-1.31.49.58-1.06,1.71,1.72-.92.5.59Z"/>
        <path class="cls-2" d="M7.11,48.46l.27.69c-.28.09-.53.09-.74,0-.22-.09-.43-.3-.63-.64-.19-.3-.29-.55-.32-.75-.02-.2,0-.36.07-.49.07-.13.24-.29.52-.49l.76-.51c.21-.15.37-.27.45-.36.09-.09.17-.21.25-.35l.41.67s-.08.11-.15.2c-.03.04-.05.06-.06.08.18.04.34.11.47.21.13.09.25.22.34.37.16.26.22.52.18.76-.04.25-.17.44-.38.58-.14.09-.28.14-.43.15s-.29-.04-.43-.12c-.13-.09-.3-.23-.48-.44-.25-.28-.44-.46-.57-.55l-.06.04c-.12.08-.19.18-.2.28-.01.1.04.24.15.42.08.12.16.2.24.24.09.04.2.04.34,0ZM7.07,47.2c.08.07.2.18.35.35.15.16.27.26.34.29.11.05.22.04.31-.02.09-.06.15-.15.17-.27.02-.12,0-.23-.07-.34-.08-.12-.19-.21-.33-.27-.11-.04-.21-.05-.31-.02-.07.02-.18.08-.33.19l-.13.09Z"/>
        <path class="cls-2" d="M6.38,42.62l.31.68-.39.19c.2.04.37.12.52.23.14.12.25.25.32.41.14.32.14.65,0,1-.14.35-.43.63-.87.85-.45.22-.83.28-1.16.18-.33-.11-.57-.33-.72-.66-.14-.31-.14-.64,0-.99l-1.31.65-.33-.73,3.63-1.81ZM5.88,45.26c.28-.14.46-.28.55-.43.13-.21.15-.42.05-.63-.08-.17-.21-.28-.4-.33-.19-.05-.42,0-.69.13-.3.15-.49.32-.57.5-.08.18-.08.36,0,.54.08.17.21.29.39.34.18.05.41.01.67-.12Z"/>
        <path class="cls-2" d="M3.06,43.11l-.67.25-.26-.76.67-.25.26.76ZM6.17,41.95l-2.74,1.02-.26-.76,2.74-1.02.26.76Z"/>
        <path class="cls-2" d="M4.08,37.41v-.82c.28.05.52.17.71.36.18.19.3.46.36.79.09.52,0,.94-.29,1.26-.23.25-.54.41-.93.49-.47.09-.87.03-1.18-.18-.31-.21-.5-.51-.57-.91-.08-.45,0-.83.24-1.14.24-.31.65-.52,1.23-.62l.34,2c.22-.05.39-.15.49-.29.1-.15.14-.31.11-.5-.02-.12-.07-.22-.15-.3-.08-.07-.19-.12-.35-.13ZM3.31,37.51c-.22.05-.37.14-.47.27-.09.13-.13.28-.1.45.03.17.12.31.25.4.14.09.31.12.52.07l-.2-1.19Z"/>
        <path class="cls-2" d="M4.83,35.82l-4,.35-.06-.81,4-.35.06.81Z"/>
        <path class="cls-2" d="M3.64,32.72l-.77-.04.07-1.59.77.04-.07,1.59Z"/>
        <path class="cls-2" d="M5.21,28.07l-.12.8-1.47-.25c-.31-.05-.51-.07-.61-.05s-.18.06-.24.13c-.06.07-.1.16-.12.27-.02.14,0,.27.05.39.06.12.14.21.25.27.11.06.33.12.65.17l1.3.22-.12.8-2.87-.48.11-.74.42.07c-.28-.32-.4-.68-.34-1.08.03-.18.08-.33.16-.47.08-.14.18-.23.28-.29.11-.06.22-.09.34-.1.12,0,.3,0,.52.04l1.78.3Z"/>
        <path class="cls-2" d="M4.96,25.44l.34-.73c.24.18.4.41.48.67.08.26.07.55-.02.87-.15.51-.41.84-.8.98-.31.11-.66.11-1.04-.01-.46-.15-.79-.39-.98-.72-.19-.34-.23-.7-.12-1.09.12-.44.36-.74.7-.9.35-.17.8-.15,1.36.04l-.55,1.95c.22.06.41.05.56-.03.16-.08.26-.21.31-.39.03-.12.03-.23,0-.34-.04-.1-.12-.2-.25-.28ZM4.23,25.16c-.21-.06-.39-.06-.54.02-.14.08-.24.19-.28.35-.05.17-.03.33.06.48.08.15.23.25.43.31l.33-1.16Z"/>
        <path class="cls-2" d="M6.11,22.39l.43-.68c.22.22.35.46.4.72.05.27,0,.55-.12.86-.21.49-.51.78-.91.87-.32.07-.66.02-1.03-.15-.44-.21-.73-.49-.88-.85-.15-.36-.14-.72.02-1.09.18-.42.45-.68.81-.8.36-.12.81-.04,1.35.22l-.79,1.85c.21.09.4.11.56.05.16-.06.28-.17.36-.34.05-.12.06-.23.03-.33-.03-.11-.1-.21-.21-.32ZM5.42,22.02c-.21-.09-.38-.11-.53-.05-.15.06-.26.16-.32.31-.07.16-.07.32,0,.48.07.16.2.28.39.37l.47-1.11Z"/>
        <path class="cls-2" d="M7.57,21.52l-3.49-2.09.38-.7,3.49,2.09-.38.71Z"/>
        <path class="cls-2" d="M6.65,17.29l.26-.36-.17-.14c-.19-.16-.32-.29-.39-.41-.06-.12-.08-.26-.06-.43.02-.17.1-.34.23-.52.13-.18.29-.34.47-.48l.36.43c-.1.08-.18.17-.25.27-.07.09-.09.18-.08.25.01.07.08.16.19.25l.16.13.35-.48.48.39-.35.48,1.83,1.47-.47.64-1.83-1.47-.26.36-.48-.39Z"/>
        <path class="cls-2" d="M9.02,16.44c-.19-.18-.32-.41-.41-.68s-.1-.54-.03-.81c.07-.27.2-.51.39-.73.3-.34.65-.51,1.05-.52.4,0,.76.15,1.08.46.32.32.49.69.5,1.12.01.43-.13.8-.42,1.13-.18.2-.4.35-.65.45s-.51.11-.76.04-.51-.23-.75-.47ZM9.59,15.87c.21.21.42.32.62.32s.38-.07.52-.22c.14-.15.2-.34.18-.55-.02-.21-.13-.43-.35-.64-.21-.21-.41-.31-.62-.32s-.38.07-.51.22-.2.34-.18.55c.02.22.13.43.34.64Z"/>
        <path class="cls-2" d="M13.12,14.41l-.59.52-1.87-2.34.55-.48.27.33c-.03-.24-.03-.42,0-.53.03-.12.1-.22.19-.3.13-.12.29-.19.48-.23l.25.7c-.15.02-.27.07-.36.14-.08.07-.13.16-.15.26s0,.22.07.38c.07.15.26.43.58.83l.58.72Z"/>
        <path class="cls-2" d="M13.91,9.89l.63-.35.19.37c.08-.41.27-.71.58-.88.16-.09.32-.14.48-.13.16,0,.31.06.46.16.04-.21.11-.38.2-.53.09-.14.22-.26.36-.34.19-.11.37-.15.54-.15.17,0,.33.07.47.19.11.09.22.26.35.52l.87,1.73-.68.38-.78-1.55c-.14-.27-.25-.43-.33-.48-.11-.07-.24-.06-.37,0-.09.05-.17.13-.22.24-.05.11-.07.23-.05.37.02.14.1.34.23.59l.66,1.3-.68.38-.75-1.48c-.13-.26-.23-.43-.29-.49-.06-.06-.13-.1-.2-.11-.07,0-.15.01-.24.06-.1.06-.18.14-.24.25-.05.11-.07.23-.05.36s.1.33.23.59l.66,1.31-.68.38-1.36-2.7Z"/>
        <path class="cls-2" d="M20.95,8.82l.77-.13c0,.31-.08.58-.24.8-.16.22-.39.38-.69.49-.48.17-.89.13-1.22-.12-.27-.2-.46-.5-.59-.91-.15-.48-.15-.9,0-1.26.15-.36.41-.6.78-.73.41-.14.78-.11,1.11.09s.58.6.76,1.19l-1.83.64c.08.23.19.38.35.47.15.09.31.1.48.04.11-.04.2-.11.26-.2.06-.09.08-.22.08-.38ZM20.74,8.03c-.08-.22-.18-.37-.32-.45-.14-.08-.29-.09-.43-.04-.16.06-.27.16-.34.32-.07.16-.06.34,0,.55l1.09-.38Z"/>
        <path class="cls-2" d="M25.13,8.82l-.7.14-.08-.44c-.09.2-.2.35-.34.47s-.3.19-.46.22c-.33.07-.63-.02-.92-.25s-.47-.6-.56-1.1c-.09-.51-.05-.92.13-1.23.18-.31.44-.5.79-.57.32-.06.62.02.9.25l-.27-1.5.76-.15.74,4.15ZM22.83,7.65c.06.32.14.55.25.67.16.18.35.25.57.21.17-.03.31-.14.4-.32.09-.18.11-.42.06-.73-.06-.35-.17-.58-.31-.71-.15-.13-.31-.17-.5-.14-.18.04-.32.14-.41.31-.09.17-.11.41-.06.71Z"/>
        <path class="cls-2" d="M25.5,5.32l-.06-.75.77-.07.06.75-.77.07ZM25.78,8.78l-.25-3.05.77-.07.25,3.05-.77.07Z"/>
        <path class="cls-2" d="M29.79,6.52l-.76.13c-.02-.16-.08-.28-.17-.36-.09-.08-.21-.12-.35-.13-.19,0-.35.07-.46.2-.12.14-.18.37-.18.7,0,.36.05.62.16.77.11.15.27.23.46.23.15,0,.27-.04.36-.13.09-.09.16-.24.2-.45l.75.15c-.08.36-.24.64-.46.82-.23.18-.52.27-.9.27-.43,0-.76-.15-1.01-.44-.25-.29-.37-.68-.37-1.18,0-.51.14-.9.4-1.18.26-.28.6-.41,1.04-.41.35,0,.63.09.84.25.21.16.35.41.44.74Z"/>
        <path class="cls-2" d="M31.08,6.7l-.67-.23c.12-.28.28-.48.49-.59.21-.11.5-.14.87-.09.34.05.59.13.74.24.15.11.26.23.31.37.05.14.05.38,0,.73l-.13.94c-.04.27-.05.47-.04.6,0,.13.04.27.08.43l-.75-.11c-.01-.06-.03-.14-.04-.25,0-.05-.01-.08-.01-.1-.15.11-.3.19-.46.24-.16.04-.32.06-.49.03-.3-.04-.52-.16-.67-.36-.15-.19-.21-.42-.17-.68.02-.17.08-.32.18-.44.09-.12.22-.21.37-.26.15-.05.36-.08.63-.1.37-.02.62-.05.77-.09v-.08c.03-.15,0-.27-.06-.35-.06-.08-.2-.13-.4-.16-.14-.02-.25,0-.33.04-.08.05-.16.14-.22.27ZM32.02,7.5c-.1.02-.26.04-.48.06-.22.02-.36.04-.43.08-.11.06-.17.15-.19.26-.01.11.01.22.08.31.07.09.16.15.29.17.14.02.27,0,.41-.09.1-.06.17-.14.22-.24.03-.07.06-.19.08-.39l.02-.16Z"/>
        <path class="cls-2" d="M33.23,9.24l.93-4.11.75.19-.93,4.11-.75-.19Z"/>
        <path class="cls-2" d="M36.13,9.15l.76.2c-.03.16,0,.3.05.41.06.12.18.21.34.28.18.08.34.11.46.07.08-.02.14-.08.17-.16.02-.06.02-.11,0-.16-.02-.05-.09-.12-.2-.2-.52-.38-.84-.66-.95-.84-.15-.25-.18-.5-.07-.78.1-.24.27-.41.52-.5.25-.09.57-.05.95.12.37.16.62.34.74.55.13.2.18.44.15.72l-.72-.16c.01-.12,0-.23-.06-.32-.06-.09-.16-.17-.31-.24-.19-.08-.33-.11-.43-.09-.07.02-.12.05-.14.12-.02.05-.01.11.02.17.04.08.24.24.58.5.34.26.56.48.66.68.1.2.1.42,0,.65-.1.26-.29.44-.57.53-.28.1-.62.06-1.02-.12-.37-.16-.63-.36-.78-.61-.15-.25-.21-.52-.17-.82Z"/>
        <path class="cls-2" d="M40.74,11.36l.6.52c-.23.2-.47.32-.72.34s-.53-.05-.8-.22c-.44-.27-.68-.61-.73-1.04-.03-.34.05-.7.25-1.07.24-.44.54-.72.89-.84.35-.12.7-.07,1.03.13.37.23.6.54.67.93.07.39-.04.85-.34,1.39l-1.67-1.01c-.11.21-.14.41-.1.58.04.18.14.31.29.41.11.06.21.09.31.07s.21-.08.32-.19ZM41.17,10.68c.11-.21.14-.39.1-.55-.04-.16-.12-.29-.26-.37-.15-.09-.3-.1-.45-.05-.16.05-.29.18-.39.37l1,.6Z"/>
        <path class="cls-2" d="M41.99,13.42l-.62-.48,1.71-2.47.58.44-.24.35c.21-.09.38-.13.49-.12.12,0,.22.05.32.13.14.11.25.25.32.44l-.59.42c-.05-.15-.13-.26-.22-.33-.09-.07-.18-.1-.27-.09-.09,0-.21.06-.33.16s-.33.37-.63.79l-.53.76Z"/>
        <path class="cls-2" d="M43.67,14.83l1.09-3.1.6.57-.59,1.54-.22.5c.12-.07.19-.11.23-.14.07-.05.15-.09.23-.13l1.41-.76.59.56-2.81,1.45-.51-.49Z"/>
        <path class="cls-2" d="M45.26,16.46l2.15-2.06.52.6-2.15,2.06-.52-.6ZM47.7,14.12l.53-.5.52.6-.53.5-.52-.6Z"/>
        <path class="cls-2" d="M49.41,18.45l-.56-.55c.11-.12.16-.24.17-.36,0-.12-.03-.25-.12-.37-.12-.16-.26-.25-.43-.26-.17-.01-.39.08-.63.27-.28.22-.44.42-.48.61-.04.19,0,.36.11.53.09.12.19.2.31.22.12.03.28,0,.46-.1l.35.72c-.33.15-.63.19-.9.12-.28-.08-.52-.27-.75-.59-.26-.36-.35-.73-.29-1.11.06-.38.29-.72.67-1.02.38-.3.76-.43,1.13-.39.37.04.68.25.94.62.21.3.32.58.32.86,0,.27-.09.55-.29.82Z"/>
        <path class="cls-2" d="M49.65,21.23l.27.77c-.29.06-.56.02-.79-.09-.23-.12-.43-.33-.58-.62-.25-.46-.29-.89-.12-1.29.14-.31.38-.57.73-.78.42-.25.81-.33,1.17-.24.36.09.64.31.83.66.21.4.26.78.13,1.16-.13.38-.45.71-.97,1.01l-.95-1.77c-.2.12-.32.27-.37.45-.05.17-.03.34.05.51.06.11.14.19.24.23s.22.04.37,0ZM50.35,20.87c.19-.12.31-.26.36-.42.05-.16.03-.31-.05-.46-.08-.15-.2-.25-.36-.29-.16-.04-.33,0-.51.11l.57,1.05Z"/>
        <path class="cls-2" d="M50.11,22.33l.4.71c-.13.09-.21.2-.24.33s-.02.28.05.46c.08.19.16.33.27.39.07.05.15.05.23.02.05-.02.09-.06.11-.11.02-.05.02-.15,0-.29-.11-.66-.14-1.09-.1-1.3.06-.29.22-.49.48-.6.23-.1.47-.09.7.04.23.13.43.39.59.8.15.39.2.7.15.94-.05.24-.17.45-.38.62l-.4-.65c.09-.08.15-.17.17-.28.02-.11,0-.24-.06-.4-.08-.2-.16-.33-.24-.39-.06-.04-.12-.05-.18-.02-.05.02-.08.07-.1.13-.02.09,0,.35.07.79.07.44.07.76,0,.97-.07.21-.21.36-.44.46-.25.11-.5.09-.76-.05-.26-.14-.47-.42-.64-.85-.15-.39-.19-.72-.13-1.01.06-.29.21-.52.44-.7Z"/>
      </g>
    </g>
  </g>
</svg>