<?xml version="1.0" encoding="UTF-8"?>
<svg id="Layer_2" data-name="Layer 2" xmlns="http://www.w3.org/2000/svg" viewBox="0 0 711.7 291.48">
  <defs>
    <style>
      .cls-1 {
        fill: #10125a;
      }

      .cls-2 {
        fill: #f47920;
      }

      .cls-3 {
        fill: #0d9c4a;
      }
    </style>
  </defs>
  <g id="Layer_1-2" data-name="Layer 1">
    <g>
      <g>
        <path class="cls-3" d="M193.77,105.46c33.87-12.64,42.99-32.33,35.45-59.38-3.25-11.67-7.25-23.13-11.55-36.71-4.11,12.6-7.6,23.26-14.77,32.07-4.96,6.08-10.25,11.89-15.07,18.08-8.32,10.68-7.89,31.16,1.37,43.57,3.65-10.34,8.61-19.39,13.2-28.62,4.54-9.12,7.87-18.85,12.33-28.2.37,6.88-1.37,13.46-3.55,19.86-2.2,6.47-4.73,12.86-7.51,19.11-2.87,6.47-6.21,12.73-9.9,20.22Z"/>
        <path class="cls-3" d="M154.61,54.37c-8.96,29.53-7.71,44.86,19.2,52.16-5.09-9.63-12.27-17.58-13.67-28.44,5.6,8.7,11.19,17.39,16.89,26.24,4.64-10.19,3.23-19.03-4.19-26.1-6.9-6.57-14.17-12.81-18.22-23.85Z"/>
      </g>
      <g>
        <path class="cls-1" d="M190.93,274.88h-7.58v11.56c0,1.65-.39,2.91-1.17,3.76-.78.85-1.76,1.28-2.95,1.28s-2.25-.42-3.01-1.27c-.76-.84-1.14-2.08-1.14-3.72v-31.47c0-1.82.42-3.12,1.25-3.9.84-.78,2.16-1.17,3.98-1.17h10.61c3.14,0,5.55.24,7.24.72,1.67.46,3.11,1.24,4.33,2.31,1.22,1.08,2.14,2.4,2.77,3.96.63,1.56.95,3.31.95,5.26,0,4.16-1.28,7.31-3.84,9.46-2.56,2.14-6.38,3.22-11.45,3.22ZM188.93,256.17h-5.57v12.48h5.57c1.95,0,3.58-.2,4.89-.61,1.31-.41,2.31-1.08,2.99-2.01.69-.93,1.03-2.14,1.03-3.65,0-1.8-.53-3.27-1.59-4.4-1.19-1.21-3.63-1.81-7.33-1.81Z"/>
        <path class="cls-1" d="M220.04,253.88v11.28c.97-1.11,1.91-2,2.83-2.65.92-.65,1.94-1.14,3.05-1.46,1.11-.32,2.31-.49,3.59-.49,1.93,0,3.64.41,5.14,1.23,1.49.82,2.67,2.01,3.52,3.57.54.91.9,1.93,1.09,3.05.19,1.12.28,2.42.28,3.89v14.57c0,1.52-.35,2.67-1.04,3.45-.7.78-1.62,1.17-2.77,1.17-2.51,0-3.76-1.54-3.76-4.62v-12.84c0-2.43-.36-4.3-1.09-5.61-.72-1.31-2.1-1.96-4.12-1.96-1.36,0-2.58.39-3.66,1.16-1.09.77-1.9,1.82-2.44,3.16-.41,1.13-.61,3.15-.61,6.04v10.05c0,1.5-.34,2.65-1.02,3.44-.68.79-1.62,1.18-2.83,1.18-2.51,0-3.76-1.54-3.76-4.62v-32.98c0-1.54.33-2.7.99-3.47.66-.77,1.58-1.16,2.77-1.16s2.15.39,2.83,1.17c.68.78,1.02,1.93,1.02,3.45Z"/>
        <path class="cls-1" d="M266.28,287.19c-1.84,1.43-3.62,2.5-5.33,3.22-1.72.71-3.64,1.07-5.78,1.07-1.95,0-3.66-.39-5.14-1.16-1.48-.77-2.61-1.81-3.41-3.13-.8-1.32-1.2-2.75-1.2-4.29,0-2.08.66-3.85,1.98-5.32,1.32-1.47,3.13-2.45,5.43-2.95.48-.11,1.68-.36,3.59-.75,1.91-.39,3.55-.75,4.92-1.07,1.36-.32,2.85-.72,4.44-1.18-.09-2.01-.5-3.48-1.21-4.41-.71-.94-2.2-1.41-4.44-1.41-1.93,0-3.38.27-4.36.81-.97.54-1.81,1.35-2.51,2.42-.7,1.08-1.19,1.79-1.48,2.13-.29.34-.91.52-1.85.52-.85,0-1.59-.27-2.21-.82-.62-.55-.93-1.25-.93-2.1,0-1.34.47-2.64,1.42-3.9.95-1.26,2.42-2.3,4.43-3.12,2.01-.82,4.5-1.23,7.49-1.23,3.34,0,5.97.39,7.88,1.18,1.91.79,3.26,2.04,4.05,3.75.79,1.71,1.18,3.97,1.18,6.8,0,1.78,0,3.3-.01,4.54,0,1.24-.02,2.63-.04,4.15,0,1.43.24,2.92.71,4.47.47,1.55.71,2.55.71,2.99,0,.78-.37,1.49-1.1,2.13-.73.64-1.56.96-2.49.96-.78,0-1.55-.37-2.31-1.1-.76-.73-1.57-1.8-2.42-3.19ZM265.78,276.19c-1.11.41-2.73.84-4.86,1.3-2.13.46-3.6.79-4.41,1-.82.21-1.6.63-2.34,1.25-.74.62-1.11,1.49-1.11,2.6s.44,2.13,1.31,2.94c.87.81,2.01,1.21,3.43,1.21,1.5,0,2.89-.33,4.16-.99,1.27-.66,2.2-1.51,2.8-2.55.69-1.15,1.03-3.05,1.03-5.68v-1.09Z"/>
        <path class="cls-1" d="M288.51,280.51v6.35c0,1.54-.36,2.7-1.09,3.47-.72.77-1.64,1.16-2.76,1.16s-2-.39-2.7-1.17c-.71-.78-1.06-1.93-1.06-3.45v-21.17c0-3.42,1.23-5.13,3.7-5.13,1.26,0,2.17.4,2.73,1.2.56.8.86,1.98.92,3.54.91-1.56,1.84-2.74,2.8-3.54.96-.8,2.23-1.2,3.83-1.2s3.15.4,4.65,1.2c1.5.8,2.26,1.86,2.26,3.18,0,.93-.32,1.69-.96,2.3-.64.6-1.33.91-2.08.91-.28,0-.95-.17-2.02-.52-1.07-.34-2.01-.52-2.83-.52-1.11,0-2.02.29-2.73.88-.71.58-1.25,1.45-1.64,2.6-.39,1.15-.66,2.52-.81,4.11-.15,1.59-.22,3.52-.22,5.81Z"/>
        <path class="cls-1" d="M331.23,276.58v10.11c0,1.6-.36,2.79-1.09,3.59-.72.8-1.68,1.2-2.87,1.2s-2.08-.4-2.8-1.2c-.72-.8-1.07-2-1.07-3.59v-12.12c0-1.91-.07-3.4-.2-4.46-.13-1.06-.48-1.93-1.06-2.6-.58-.68-1.49-1.02-2.73-1.02-2.49,0-4.13.85-4.92,2.56-.79,1.71-1.18,4.16-1.18,7.35v10.28c0,1.58-.36,2.77-1.07,3.58-.71.81-1.66,1.21-2.83,1.21s-2.09-.4-2.83-1.21c-.73-.81-1.1-2-1.1-3.58v-21.75c0-1.43.33-2.52.99-3.26.66-.74,1.53-1.11,2.6-1.11s1.91.35,2.6,1.04c.7.7,1.04,1.66,1.04,2.88v.72c1.32-1.58,2.73-2.74,4.23-3.48,1.5-.74,3.18-1.11,5.01-1.11s3.56.38,4.93,1.14c1.37.76,2.51,1.91,3.4,3.45,1.28-1.56,2.66-2.72,4.12-3.47,1.47-.75,3.09-1.13,4.87-1.13,2.08,0,3.87.41,5.38,1.23,1.5.82,2.63,1.99,3.37,3.51.65,1.37.97,3.54.97,6.49v14.85c0,1.6-.36,2.79-1.09,3.59-.72.8-1.68,1.2-2.87,1.2s-2.09-.4-2.83-1.21c-.73-.81-1.1-2-1.1-3.58v-12.78c0-1.63-.07-2.94-.21-3.93-.14-.98-.52-1.81-1.13-2.48-.61-.67-1.54-1-2.79-1-1,0-1.95.3-2.85.89-.9.59-1.6,1.39-2.1,2.4-.56,1.28-.84,3.55-.84,6.8Z"/>
        <path class="cls-1" d="M375.63,287.19c-1.84,1.43-3.62,2.5-5.33,3.22-1.72.71-3.64,1.07-5.78,1.07-1.95,0-3.66-.39-5.14-1.16-1.48-.77-2.61-1.81-3.41-3.13-.8-1.32-1.2-2.75-1.2-4.29,0-2.08.66-3.85,1.98-5.32,1.32-1.47,3.13-2.45,5.43-2.95.48-.11,1.68-.36,3.59-.75,1.91-.39,3.55-.75,4.92-1.07,1.36-.32,2.85-.72,4.44-1.18-.09-2.01-.5-3.48-1.21-4.41-.72-.94-2.2-1.41-4.44-1.41-1.93,0-3.38.27-4.36.81-.97.54-1.81,1.35-2.51,2.42-.7,1.08-1.19,1.79-1.48,2.13-.29.34-.91.52-1.85.52-.85,0-1.59-.27-2.21-.82-.62-.55-.93-1.25-.93-2.1,0-1.34.47-2.64,1.42-3.9.95-1.26,2.42-2.3,4.43-3.12,2.01-.82,4.5-1.23,7.49-1.23,3.34,0,5.97.39,7.88,1.18,1.91.79,3.26,2.04,4.05,3.75.79,1.71,1.18,3.97,1.18,6.8,0,1.78,0,3.3-.01,4.54,0,1.24-.02,2.63-.04,4.15,0,1.43.24,2.92.71,4.47s.71,2.55.71,2.99c0,.78-.37,1.49-1.1,2.13-.73.64-1.56.96-2.49.96-.78,0-1.55-.37-2.31-1.1-.76-.73-1.57-1.8-2.42-3.19ZM375.13,276.19c-1.11.41-2.73.84-4.86,1.3-2.13.46-3.6.79-4.41,1-.82.21-1.6.63-2.34,1.25-.74.62-1.11,1.49-1.11,2.6s.44,2.13,1.31,2.94c.87.81,2.01,1.21,3.43,1.21,1.5,0,2.89-.33,4.16-.99,1.27-.66,2.2-1.51,2.8-2.55.69-1.15,1.03-3.05,1.03-5.68v-1.09Z"/>
        <path class="cls-1" d="M417.58,282.07c0,.95-.28,1.96-.85,3.04-.57,1.08-1.43,2.1-2.59,3.08-1.16.97-2.62,1.76-4.39,2.35-1.76.59-3.75.89-5.96.89-4.7,0-8.37-1.37-11-4.11-2.64-2.74-3.96-6.41-3.96-11.02,0-3.12.6-5.88,1.81-8.27,1.21-2.4,2.95-4.25,5.24-5.56,2.28-1.31,5.01-1.96,8.19-1.96,1.97,0,3.77.29,5.42.86,1.64.58,3.04,1.32,4.18,2.23,1.14.91,2.01,1.88,2.62,2.91.6,1.03.91,1.99.91,2.88s-.34,1.68-1.02,2.31c-.68.63-1.5.95-2.47.95-.63,0-1.16-.16-1.57-.49-.42-.32-.89-.85-1.41-1.57-.93-1.41-1.9-2.47-2.91-3.18-1.01-.71-2.3-1.06-3.86-1.06-2.25,0-4.06.88-5.43,2.63-1.37,1.75-2.06,4.15-2.06,7.2,0,1.43.18,2.74.53,3.94.35,1.2.86,2.22,1.53,3.06.67.85,1.48,1.49,2.42,1.92.95.44,1.99.65,3.12.65,1.52,0,2.83-.35,3.91-1.06,1.09-.71,2.05-1.78,2.88-3.23.46-.85.97-1.52,1.5-2.01.54-.48,1.2-.72,1.98-.72.93,0,1.7.35,2.31,1.06.61.71.92,1.46.92,2.26Z"/>
        <path class="cls-1" d="M428.05,257.03c-1.06,0-1.96-.32-2.72-.97-.75-.65-1.13-1.57-1.13-2.76,0-1.08.39-1.96,1.16-2.66.77-.7,1.67-1.04,2.69-1.04s1.86.32,2.62.95c.76.63,1.14,1.55,1.14,2.76s-.37,2.08-1.11,2.74c-.74.66-1.63.99-2.65.99ZM431.81,264.88v21.98c0,1.52-.36,2.67-1.09,3.45-.72.78-1.64,1.17-2.76,1.17s-2.02-.4-2.72-1.2c-.7-.8-1.04-1.94-1.04-3.43v-21.75c0-1.5.35-2.64,1.04-3.4.7-.76,1.6-1.14,2.72-1.14s2.03.38,2.76,1.14c.72.76,1.09,1.82,1.09,3.18Z"/>
        <path class="cls-1" d="M460.89,277.89h-14.87c.02,1.73.37,3.25,1.04,4.57.68,1.32,1.58,2.31,2.7,2.98,1.12.67,2.36,1,3.72,1,.91,0,1.74-.11,2.49-.32.75-.21,1.48-.55,2.19-1,.71-.45,1.36-.94,1.95-1.46.59-.52,1.36-1.23,2.31-2.12.39-.33.95-.5,1.67-.5.78,0,1.41.21,1.89.64.48.43.72,1.03.72,1.81,0,.69-.27,1.49-.81,2.41-.54.92-1.35,1.8-2.44,2.65-1.09.85-2.45,1.55-4.09,2.1-1.64.56-3.53.84-5.67.84-4.88,0-8.68-1.39-11.39-4.18-2.71-2.79-4.07-6.56-4.07-11.34,0-2.25.33-4.33,1-6.25.67-1.92,1.64-3.57,2.92-4.94,1.28-1.37,2.86-2.43,4.73-3.16,1.88-.73,3.96-1.1,6.24-1.1,2.97,0,5.52.63,7.65,1.88,2.13,1.25,3.72,2.87,4.78,4.86,1.06,1.99,1.59,4.01,1.59,6.07,0,1.91-.55,3.15-1.64,3.72-1.1.57-2.64.85-4.62.85ZM446.02,273.57h13.79c-.19-2.6-.89-4.54-2.1-5.84-1.22-1.29-2.82-1.94-4.8-1.94s-3.45.65-4.67,1.96c-1.22,1.31-1.95,3.24-2.21,5.81Z"/>
        <path class="cls-1" d="M498.05,281.54c0,2.1-.51,3.9-1.53,5.39-1.02,1.5-2.53,2.63-4.53,3.4-2,.77-4.42,1.16-7.28,1.16s-5.07-.42-7.02-1.25c-1.95-.84-3.39-1.88-4.32-3.13-.93-1.25-1.39-2.51-1.39-3.77,0-.84.3-1.55.89-2.14.59-.59,1.35-.89,2.26-.89.8,0,1.41.19,1.84.59.43.39.84.94,1.23,1.64.78,1.36,1.71,2.37,2.8,3.04,1.09.67,2.57,1,4.44,1,1.52,0,2.77-.34,3.75-1.02.97-.68,1.46-1.45,1.46-2.33,0-1.34-.51-2.31-1.52-2.92-1.01-.61-2.68-1.2-5-1.75-2.62-.65-4.75-1.33-6.39-2.05-1.64-.71-2.96-1.66-3.94-2.83-.98-1.17-1.48-2.61-1.48-4.32,0-1.52.45-2.96,1.36-4.32.91-1.36,2.25-2.44,4.02-3.24,1.77-.81,3.91-1.21,6.42-1.21,1.97,0,3.74.2,5.31.61,1.57.41,2.88.96,3.93,1.64,1.05.69,1.85,1.45,2.4,2.28.55.84.82,1.65.82,2.45,0,.87-.29,1.59-.88,2.14-.59.56-1.42.84-2.49.84-.78,0-1.44-.22-1.99-.67-.55-.45-1.17-1.11-1.88-2.01-.58-.74-1.25-1.34-2.03-1.78-.78-.45-1.84-.67-3.18-.67s-2.52.29-3.43.88c-.91.59-1.36,1.31-1.36,2.19,0,.8.33,1.45,1,1.96.67.51,1.57.93,2.7,1.27,1.13.33,2.69.74,4.68,1.23,2.36.58,4.28,1.26,5.78,2.06,1.49.8,2.63,1.74,3.4,2.83.77,1.09,1.16,2.33,1.16,3.72Z"/>
      </g>
      <path class="cls-1" d="M247.57,212.64v10.46h-67.62v-10.46h8.38c3.45,0,5.96-.73,7.55-2.19,1.58-1.46,2.38-3.43,2.38-5.91v-62.32c0-5.02-1.05-8.7-3.15-11.02-2.1-2.32-5.05-3.49-8.84-3.49h-5.48v-9.9l41.36-2.36v34.31c2.41-11.47,6.62-20.28,12.61-26.43,6-6.15,12.75-9.22,20.27-9.22,6.41,0,11.48,1.86,15.2,5.57,3.72,3.71,5.58,8.49,5.58,14.34,0,5.02-1.29,9.09-3.88,12.2-2.58,3.11-5.74,4.67-9.46,4.67-3.31,0-6.15-1.35-8.53-4.05-2.38-2.7-3.57-6.15-3.57-10.35,0-2.32.56-4.76,1.69-7.31.6-1.42.89-2.44.89-3.04,0-1.05-.22-1.82-.67-2.31-.45-.49-1.15-.73-2.11-.73-2.47,0-5.19,1.57-8.14,4.72-4.53,4.88-8.34,12.47-11.43,22.78-3.09,10.31-4.64,20.72-4.64,31.21v22.72c0,2.63.65,4.63,1.96,6.02,1.31,1.39,3.14,2.08,5.48,2.08h14.17Z"/>
      <path class="cls-1" d="M383.27,209.42l4.34,8.1c-4.21,3.15-7.98,5.32-11.32,6.52-3.34,1.2-7.02,1.8-11.01,1.8-5.93,0-10.72-1.37-14.37-4.11-3.65-2.74-7-7.89-10.03-15.47-7.03,7.58-13.34,12.73-18.92,15.47-5.58,2.74-11.89,4.11-18.92,4.11-9.72,0-17.3-2.44-22.75-7.31-5.45-4.87-8.17-11.06-8.17-18.56,0-11.32,5.03-20.4,15.1-27.22,8.07-5.4,25.75-10.8,53.04-16.2v-15.19c0-6-1.83-10.89-5.48-14.68-3.65-3.79-8.55-5.68-14.68-5.68-4.69,0-8.82,1.09-12.41,3.26-2.41,1.43-3.62,2.85-3.62,4.27,0,.75.45,1.88,1.34,3.37,1.93,3.37,2.9,6.71,2.9,10.01,0,4.2-1.28,7.59-3.83,10.18-2.55,2.59-5.96,3.88-10.24,3.88-4.55,0-8.2-1.41-10.96-4.22-2.76-2.81-4.14-6.43-4.14-10.85,0-7.27,3.62-13.68,10.86-19.23,9.03-6.9,20.27-10.35,33.71-10.35,10.13,0,19.13,1.73,26.99,5.17,5.03,2.18,9.12,5.98,12.25,11.42,3.14,5.44,4.7,12.13,4.7,20.08v53.43c0,4.05.69,6.97,2.07,8.77,1.38,1.8,3.27,2.7,5.69,2.7,2,0,4.62-1.16,7.86-3.49ZM340.26,166.34c-14.75,2.18-24.73,5.53-29.93,10.07-5.21,4.54-7.81,10.52-7.81,17.94,0,5.25,1.22,9.28,3.67,12.09,2.45,2.81,5.88,4.22,10.29,4.22,6.82,0,12.49-2.66,17.01-7.99,4.51-5.32,6.77-12.6,6.77-21.82v-14.51Z"/>
      <path class="cls-1" d="M510.65,213.57v10.46h-58.21v-10.46h6.1c3.24,0,5.65-.9,7.24-2.7,1.59-1.8,2.38-4.42,2.38-7.87v-45.67c0-7.8-1.63-13.78-4.89-17.94-3.26-4.16-7.53-6.24-12.81-6.24-7.2,0-13.07,2.94-17.6,8.83-4.53,5.89-6.79,14.49-6.79,25.82v35.21c0,3.45.81,6.07,2.43,7.87,1.62,1.8,3.71,2.7,6.26,2.7h7.34v10.46h-60.49v-10.46h7.86c3.03,0,5.33-.9,6.88-2.7,1.55-1.8,2.33-4.42,2.33-7.87v-62.65c0-3.6-1.12-6.47-3.36-8.61-2.24-2.14-5.19-3.21-8.84-3.21h-4.14v-9.79l40.43-2.36c1.45,6.45,2.55,14.14,3.31,23.06,5.64-8.32,11.65-14.55,18.04-18.67,6.39-4.12,13.13-6.19,20.21-6.19,9.62,0,17.22,3.49,22.78,10.46,5.5,6.97,8.25,16.69,8.25,29.13v48.82c0,3.75.79,6.45,2.38,8.1,1.59,1.65,4.1,2.47,7.55,2.47h5.38Z"/>
      <path class="cls-1" d="M582.63,116.87c8.28-10.72,16.5-16.09,24.65-16.09,4.14,0,7.46,1.31,9.94,3.94,2.48,2.63,3.73,6,3.73,10.12,0,3.68-.95,6.62-2.85,8.83-1.9,2.21-4.3,3.32-7.2,3.32-4.07,0-7.01-2.36-8.8-7.09-1.1-2.85-2.42-4.27-3.93-4.27-1.93,0-4.56,2.23-7.87,6.69,7.47,8.17,11.21,16.78,11.21,25.85,0,7.04-1.76,13.41-5.27,19.11-3.52,5.69-8.84,10.23-15.98,13.6-7.13,3.37-16.05,5.06-26.73,5.06l-11.06-.22c-8.2,0-13.75.89-16.65,2.68-2.96,1.79-4.45,4.1-4.45,6.93,0,2.46.93,4.28,2.79,5.48,2.41,1.64,6.27,2.46,11.58,2.46l9.51-.34c10.27-.6,17.82-.9,22.64-.9,16.06,0,27.23,2.48,33.5,7.44,6.27,4.96,9.41,11.83,9.41,20.62,0,10.52-3.62,18.97-10.86,25.35-8.82,7.81-24.23,11.72-46.22,11.72-18.75,0-31.92-2.37-39.5-7.1-7.58-4.73-11.37-10.29-11.37-16.67,0-3.98,1.62-7.47,4.86-10.47,3.24-3.01,10.1-5.82,20.58-8.45-6.82-1.5-11.96-4.05-15.41-7.65-3.45-3.6-5.17-8.25-5.17-13.95,0-5.17,1.29-9.56,3.88-13.16,2.58-3.6,7.22-6.79,13.91-9.56-6.34-3.75-11.12-8.2-14.32-13.37-3.21-5.17-4.81-11.05-4.81-17.65,0-7.12,1.76-13.54,5.27-19.28,3.51-5.73,8.92-10.3,16.22-13.71,7.3-3.41,16.19-5.11,26.66-5.11,4.96,0,9.78.49,14.46,1.46,4.68.98,9.23,2.44,13.64,4.39ZM594.48,240.49c0-4.43-2.27-7.65-6.82-9.67-3.1-1.43-10-2.14-20.68-2.14-19.3,0-31.74,1.42-37.33,4.27-5.58,2.85-8.38,6.41-8.38,10.69,0,4.05,2.17,7.44,6.51,10.18,4.34,2.74,12.58,4.11,24.71,4.11,15.78,0,27.16-1.99,34.12-5.96,5.24-3.08,7.86-6.9,7.86-11.47ZM553.89,120.92c-4.74,0-8.81,2.42-12.22,7.26-3.4,4.84-5.1,11.79-5.1,20.87s1.68,15.49,5.05,20.13c3.37,4.65,7.49,6.97,12.37,6.97s8.93-2.4,12.37-7.2c3.44-4.8,5.16-11.55,5.16-20.25s-1.72-15.6-5.16-20.47c-3.44-4.87-7.59-7.31-12.47-7.31Z"/>
      <path class="cls-1" d="M710.36,170.82h-67.83c.21,14.77,2.94,25.67,8.21,32.68,5.26,7.01,12.03,10.52,20.28,10.52,5.92,0,11.53-1.8,16.83-5.4,5.3-3.6,10.74-10.12,16.31-19.57l7.55,5.06c-5.86,11.25-12.56,19.29-20.11,24.13-7.55,4.84-16.77,7.26-27.66,7.26-15.86,0-28.68-5.25-38.46-15.75-9.79-10.5-14.68-23.96-14.68-40.38s4.93-30.15,14.79-41.17c9.86-11.02,21.95-16.54,36.29-16.54,9.93,0,18.46,2.21,25.59,6.64,7.13,4.43,12.68,10.89,16.65,19.4,3.96,8.51,6.05,19.55,6.26,33.13ZM642.53,160.58h32.28c3.02,0,5.19-.82,6.5-2.47,1.31-1.65,1.96-4.65,1.96-9,0-8.7-1.82-15.43-5.47-20.19-3.64-4.76-8.28-7.14-13.92-7.14-6.67,0-11.77,3.23-15.32,9.67-3.54,6.45-5.55,16.16-6.03,29.13Z"/>
      <g>
        <path class="cls-1" d="M335.39,27.47c5.12,7.09,8.34,14.71,8.34,18.22,0,4.36-2.6,12.04-6.53,16.08-11.02,5.01-27.95,8.01-42.75,8.01-13.15,0-21.65-2.21-27.71-5.4-7.01-3.77-11.34-9.57-11.34-18.03,0-5.53,1.42-11.26,4.72-17.25l4.8,1.37c-1.1,2.86-1.81,5.47-1.81,7.81,0,9.89,10,17.96,35.11,17.96,13.54,0,31.72-3.12,36.45-5.14-1.42-3.32-4.09-7.88-7.79-13.41,2.36-3.51,4.96-7.09,7.64-10.15l.87-.07ZM287.76,10.22c3.94,2.73,7.64,5.53,11.1,8.4-2.36,2.8-4.96,5.47-7.79,8.14-3.78-3.06-7.64-5.86-11.41-8.4l8.11-8.14ZM306.81,9.37c3.94,2.73,7.64,5.53,11.1,8.4-2.36,2.8-4.96,5.47-7.79,8.14-3.78-3.06-7.64-5.86-11.41-8.4l8.11-8.14Z"/>
        <path class="cls-1" d="M379,66.97h-1.34c-10.71,0-18.42-4.49-18.66-17.18-.08-7.42-.79-26.55-2.83-42.57,2.91-2.6,5.98-5.01,9.05-7.22l1.1.46c1.26,9.37,1.42,20.05,1.42,29.16,0,6.83-.16,10.28-.16,15.62,0,6.51,3.15,8.72,10.31,8.72h1.1v13.02Z"/>
        <path class="cls-1" d="M415.84,66.97h-1.02c-7.16,0-13.86-1.17-18.03-7.09h-.24c-4.25,4.62-9.6,7.09-16.45,7.09h-1.1c-3.78,0-5.51-3.38-5.51-6.51s1.73-6.51,5.51-6.51h1.1c5.27,0,8.11-.91,10.71-2.21,4.33-2.21,4.72-6.38,6.46-9.37,1.81-1.04,3.86-2.21,6.3-3.38l.55.39c-.94,2.73-1.5,4.69-1.5,5.99,0,3.06.87,5.01,3.86,6.7,2.36,1.17,5.04,1.89,8.42,1.89h.94v13.02ZM387.27,79.14c3.62,2.67,6.61,5.4,8.97,8.07-2.05,2.47-4.64,4.69-7.71,6.64-2.99-2.67-6.06-5.21-9.21-7.75l7.95-6.96ZM403.88,78.56c3.62,2.67,6.61,5.4,8.97,8.07-2.05,2.47-4.64,4.69-7.71,6.64-2.99-2.67-6.06-5.21-9.21-7.75l7.95-6.96Z"/>
        <path class="cls-1" d="M436.08.52c0,4.3,2.99,9.57,8.66,17.38l-7.01,4.43c.31,5.01.47,11.13.47,17.51,0,5.79-1.18,10.22-2.91,14.38-1.02,2.47-2.28,4.82-3.94,6.9-3.07,3.45-7.32,5.86-14.41,5.86h-1.1c-3.78,0-5.51-3.38-5.51-6.51s1.73-6.51,5.51-6.51h1.1c5.04,0,8.9-.78,11.18-2.67,1.34-1.11,1.34-2.93,1.34-6.44,0-16.21-2.6-30.65-2.6-33.91,0-2.41.63-4.49,2.13-6.05,1.5-1.56,3.38-3.19,6.14-4.88l.94.52Z"/>
        <path class="cls-1" d="M508.82,66.97h-1.1c-7.95,0-14.09-2.6-17-10.93h-.24c-1.18,3.32-2.6,5.21-4.33,6.31-4.57,2.99-10.08,4.62-16.93,4.62-8.27,0-13.93-4.04-13.93-15.16,0-1.3,0-3.19.16-5.53l5.12-.39c.31,5.08,3.38,8.07,10,8.07,3.62,0,7.48-.78,11.57-2.28,2.91-1.04,4.96-2.28,4.96-4.3,0-2.54-2.83-12.69-6.77-21.74,2.13-3.06,4.49-5.99,7.24-8.92l1.34.33c1.97,5.92,4.01,13.41,6.77,26.1,1.57,7.42,5.75,10.8,12.04,10.8h1.1v13.02Z"/>
        <path class="cls-1" d="M545.66,66.97h-1.02c-7.16,0-13.86-1.17-18.03-7.09h-.24c-4.25,4.62-9.6,7.09-16.45,7.09h-1.1c-3.78,0-5.51-3.38-5.51-6.51s1.73-6.51,5.51-6.51h1.1c5.27,0,8.11-.91,10.71-2.21,4.33-2.21,4.72-6.38,6.46-9.37,1.81-1.04,3.86-2.21,6.3-3.38l.55.39c-.94,2.73-1.5,4.69-1.5,5.99,0,3.06.87,5.01,3.86,6.7,2.36,1.17,5.04,1.89,8.42,1.89h.94v13.02ZM517.08,79.14c3.62,2.67,6.61,5.4,8.97,8.07-2.05,2.47-4.64,4.69-7.71,6.64-2.99-2.67-6.06-5.21-9.21-7.75l7.95-6.96ZM533.69,78.56c3.62,2.67,6.61,5.4,8.97,8.07-2.05,2.47-4.64,4.69-7.71,6.64-2.99-2.67-6.06-5.21-9.21-7.75l7.95-6.96Z"/>
        <path class="cls-1" d="M606.2,28.31c9.6,0,16.92,6.18,16.92,15.69,0,4.82-2.36,10.61-5.98,13.99-6.22,5.79-16.22,8.98-33.61,8.98-9.37,0-16.69-1.63-20.23-6.57h-.39c-4.09,4.17-9.21,6.57-16.22,6.57h-1.02c-3.78,0-5.51-3.38-5.51-6.51s1.73-6.51,5.51-6.51h1.1c5.9,0,10-1.3,12.12-3.9,1.42-1.69,2.6-5.08,3.78-7.75,1.89-1.17,3.78-2.41,5.9-3.58l.55.33c-.71,2.47-1.1,4.49-1.1,5.92,0,3.32,1.65,5.27,4.41,6.51,10.08-13.8,22.2-23.17,33.77-23.17ZM589.66,53.95c9.37,0,19.68-1.63,25.66-5.6-1.57-5.73-6.14-8.72-11.41-8.72-8.42,0-17.16,5.01-25.19,13.67,3.31.39,7.01.65,10.94.65Z"/>
      </g>
      <g>
        <path class="cls-2" d="M95.91,77.75c2.28.48,4.58.89,6.86,1.41,8.76,1.99,16.97,5.43,24.71,9.91,17.97,10.41,31.27,25.11,39.56,44.2,5.81,13.39,8.12,27.42,7.15,41.99-.5,7.6-2.06,15.04-4.59,22.17-7.03,19.81-19.52,35.28-37.87,45.74-13.54,7.71-28.17,11.12-43.76,10.27-7.8-.42-15.42-1.87-22.65-4.8-22.8-9.24-38.12-25.38-44.7-49.35-2.11-7.68-2.61-15.52-1.85-23.41,2.27-23.54,17.47-45.35,41.47-53.58,8.08-2.77,16.38-3.74,24.89-2.72,15.53,1.86,28.1,8.92,37.29,21.6,6.9,9.53,9.97,20.31,8.78,32.04-1.34,13.12-7.28,23.76-18.34,31.22-7.7,5.19-16.29,7.4-25.47,5.9-12-1.95-20.74-8.35-24.98-20.08-1.58-4.38-1.85-8.95-.7-13.45,1.85-7.25,5.99-12.64,13.4-14.91,4.21-1.29,8.3-.82,11.96,1.78,2.31,1.64,3.82,3.86,3.88,6.79.02.95-.19,1.97-.54,2.86-.56,1.46-2.33,2.89-4.82,2.65-2.77-.27-4.54,1.48-4.6,4.24-.08,3.51,2.39,6.8,5.87,8.15,7.5,2.91,14.41-.94,18.08-5.62,4.43-5.65,5.65-12.12,4.09-18.99-2.16-9.49-8.01-16.23-16.93-19.84-14.55-5.89-27.51-2.47-38.84,7.89-5.04,4.61-8.49,10.34-10.47,16.9-5.37,17.78-.97,33.24,11.32,46.72,4.92,5.4,10.96,9.33,17.7,12.05,11.11,4.48,22.58,5.31,34.18,2.33,18.27-4.7,31.32-15.94,39.79-32.64,2.6-5.13,4.34-10.61,5.34-16.25,2.83-16.03.3-31.24-7.67-45.46-7.81-13.93-19.07-24.21-33.71-30.56-12.05-5.23-24.03-7.38-35.89-6.6-10.75.71,17.06-21.61,22.07-20.56Z"/>
        <path class="cls-2" d="M122.57,87.54c-15.71-9.07-31.77-13.54-49.56-15.64v.03s0,0,0,0c0,0-33.29-7.57-37.43-4.17-4.14,3.4-5.31,8.54-7.43,10.06-2.12,1.52-9.07.81-11.9,7.74-1.08,2.63-.93,6.06.66,9.54-.19,1.69-.1,3.67.84,5.35-.1-1.16.12-2.19.44-3.08,1.32,2.05,3.15,4.06,5.57,5.88-.27.27-.54.55-.8.84-2.47,2.79-2.9,6.58-4.3,8.74-1.34,2.31-4.08,3.56-6.66,3.13-3.72-.9-7.37-5.71-12.01-3.33,4.72-1.77,7.07,2.52,11.14,4.29-5.03.02-5.95,5.89-9.38,7.76,3.81-1.79,5.26-7.24,9.58-6.53,3.61.87,7.54-.86,9.46-3.89,2.01-3.22,2.32-6.31,4.34-8.3.34-.38.72-.73,1.1-1.06.34.21.72.4,1.08.6-.42,1.9-.67,4.66.58,6.89-.24-2.73,1.22-4.85,1.88-5.66,2.29,1.04,4.85,1.95,7.76,2.65,18.56,4.45,33.59,1.3,37.18-2.73,3.59-4.03-.86-4.8,9.12-8.76.22-.09.4-.19.59-.3,23.47,4.29,53.71-1.65,38.13-10.07ZM21.06,87.51c-.47-.28-.63-.89-.35-1.36.28-.47.89-.63,1.36-.36.48.28.64.89.36,1.37-.28.48-.89.63-1.37.35ZM27.23,92.74c-.72-.42-.97-1.35-.54-2.08.42-.72,1.35-.96,2.08-.54.72.42.96,1.35.54,2.07-.42.72-1.35.96-2.07.54ZM49.86,92.94c.84-1.65.41-3.6-1.03-4.44-.24-.14-.5-.23-.77-.3,5.49-6.81,10.63-.71,10.63-.71-2.87,5.2-5.99,6.43-8.84,5.45Z"/>
      </g>
      <g>
        <path class="cls-1" d="M35.73,256.28c-9.29,0-16.82,7.53-16.82,16.82s7.53,16.82,16.82,16.82,16.82-7.53,16.82-16.82-7.53-16.82-16.82-16.82ZM35.73,283.94c-5.99,0-10.84-4.86-10.84-10.84s4.86-10.84,10.84-10.84,10.84,4.86,10.84,10.84-4.86,10.84-10.84,10.84Z"/>
        <path class="cls-1" d="M63.43,256.28c-9.29,0-16.82,7.53-16.82,16.82s7.53,16.82,16.82,16.82,16.82-7.53,16.82-16.82-7.53-16.82-16.82-16.82ZM63.43,283.94c-5.99,0-10.84-4.86-10.84-10.84s4.86-10.84,10.84-10.84,10.84,4.86,10.84,10.84-4.86,10.84-10.84,10.84Z"/>
        <path class="cls-1" d="M91.2,256.28c-9.29,0-16.82,7.53-16.82,16.82s7.53,16.82,16.82,16.82,16.82-7.53,16.82-16.82-7.53-16.82-16.82-16.82ZM91.2,283.94c-5.99,0-10.84-4.86-10.84-10.84s4.86-10.84,10.84-10.84,10.84,4.86,10.84,10.84-4.86,10.84-10.84,10.84Z"/>
        <path class="cls-1" d="M118.86,256.28c-9.29,0-16.82,7.53-16.82,16.82s7.53,16.82,16.82,16.82,16.82-7.53,16.82-16.82-7.53-16.82-16.82-16.82ZM118.86,283.94c-5.99,0-10.84-4.86-10.84-10.84s4.86-10.84,10.84-10.84,10.84,4.86,10.84,10.84-4.86,10.84-10.84,10.84Z"/>
        <path class="cls-1" d="M146.45,256.28c-9.29,0-16.82,7.53-16.82,16.82s7.53,16.82,16.82,16.82,16.82-7.53,16.82-16.82-7.53-16.82-16.82-16.82ZM146.45,283.94c-5.99,0-10.84-4.86-10.84-10.84s4.86-10.84,10.84-10.84,10.84,4.86,10.84,10.84-4.86,10.84-10.84,10.84Z"/>
      </g>
    </g>
  </g>
</svg>